<?xml version="1.0" standalone="no"?>
<!DOCTYPE svg PUBLIC "-//W3C//DTD SVG 1.1//EN" "http://www.w3.org/Graphics/SVG/1.1/DTD/svg11.dtd" >
<svg xmlns="http://www.w3.org/2000/svg">
<metadata></metadata>
<defs>
<font id="klinic_slabmedium_italic" horiz-adv-x="542" >
<font-face units-per-em="1000" ascent="750" descent="-250" />
<missing-glyph horiz-adv-x="220" />
<glyph unicode="ff" horiz-adv-x="600" d="M-40 -210q-35 0 -65 7l12 67q24 -6 48 -6q65 0 78 71l75 429h-84l13 70h83l22 119q29 161 207 161q57 0 150 -26q43 36 118 36q31 0 77 -8l-12 -65q-37 5 -52 5q-44 0 -69.5 -19.5t-33.5 -64.5l-24 -138h118l-13 -70h-117l-73 -411q-25 -142 -158 -142q-34 0 -66 7l12 67 q20 -6 48 -6q65 0 78 71l73 414h-211l-75 -426q-26 -142 -159 -142zM355 640q-112 0 -128 -96l-21 -116h211l25 140q4 27 16 55q-60 17 -103 17z" />
<glyph unicode="fi" horiz-adv-x="555" d="M-40 -210q-35 0 -65 7l12 67q24 -6 48 -6q65 0 78 71l75 429h-84l13 70h83l24 131q28 159 210 159q60 0 152 -23l-19 -63q-79 18 -127 18q-115 0 -132 -94l-22 -128h288l-58 -326q-9 -46 34 -46q20 0 51 11l-11 -66q-35 -11 -70 -11q-56 0 -77 32t-12 85l45 251h-202 l-75 -426q-26 -142 -159 -142z" />
<glyph unicode="fl" horiz-adv-x="557" d="M441 -10q-58 0 -78.5 32.5t-11.5 84.5l94 533q-52 10 -85 10q-115 0 -131 -94l-23 -128h118l-13 -70h-117l-75 -426q-26 -142 -159 -142q-35 0 -65 7l12 67q24 -6 48 -6q65 0 78 71l75 429h-84l13 70h83l24 131q28 159 210 159q45 0 102 -11h87l-107 -605q-9 -46 33 -46 q21 0 52 11l-11 -66q-35 -11 -69 -11z" />
<glyph unicode="ffi" horiz-adv-x="852" d="M-40 -210q-35 0 -65 7l12 67q24 -6 48 -6q65 0 78 71l75 429h-84l13 70h83l22 119q29 161 207 161q62 0 160 -29q52 39 142 39q61 0 151 -23l-18 -63q-79 18 -127 18q-115 0 -132 -94l-22 -128h288l-58 -326q-9 -46 34 -46q20 0 51 11l-11 -66q-35 -11 -70 -11 q-56 0 -77 32t-12 85l45 251h-202l-73 -411q-25 -142 -158 -142q-34 0 -66 7l12 67q20 -6 48 -6q65 0 78 71l73 414h-211l-75 -426q-26 -142 -159 -142zM355 640q-112 0 -128 -96l-21 -116h211l24 131q5 34 20 63q-58 18 -106 18z" />
<glyph unicode="ffl" horiz-adv-x="854" d="M-40 -210q-35 0 -65 7l12 67q24 -6 48 -6q65 0 78 71l75 429h-84l13 70h83l22 119q29 161 207 161q62 0 160 -29q52 39 142 39q46 0 101 -11h88l-107 -605q-9 -46 33 -46q21 0 52 11l-11 -66q-35 -11 -69 -11q-58 0 -78.5 32.5t-11.5 84.5l94 533q-52 10 -85 10 q-115 0 -132 -94l-22 -128h118l-13 -70h-117l-73 -411q-25 -142 -158 -142q-34 0 -66 7l12 67q20 -6 48 -6q65 0 78 71l73 414h-211l-75 -426q-26 -142 -159 -142zM355 640q-112 0 -128 -96l-21 -116h211l24 131q5 34 20 63q-58 18 -106 18z" />
<glyph unicode="ffb" horiz-adv-x="1126" d="M-40 -210q-35 0 -65 7l12 67q24 -6 48 -6q65 0 78 71l75 429h-84l13 70h83l22 119q29 161 207 161q62 0 160 -29q52 39 142 39q46 0 101 -11h88l-60 -333q62 65 141 65q73 0 119.5 -51.5t46.5 -143.5q0 -112 -65.5 -183.5t-158.5 -71.5q-99 0 -140 88l-14 -77h-80 l113 640q-52 10 -85 10q-115 0 -132 -94l-22 -128h118l-13 -70h-117l-73 -411q-25 -142 -158 -142q-34 0 -66 7l12 67q20 -6 48 -6q65 0 78 71l73 414h-211l-75 -426q-26 -142 -159 -142zM849 55q65 0 107.5 54t42.5 133q0 62 -27.5 96.5t-77.5 34.5q-65 0 -107.5 -55.5 t-42.5 -133.5q0 -60 27 -94.5t78 -34.5zM355 640q-112 0 -128 -96l-21 -116h211l24 131q5 34 20 63q-58 18 -106 18z" />
<glyph unicode="ffh" horiz-adv-x="1135" d="M260 -195q-34 0 -66 7l12 67q20 -6 48 -6q65 0 78 71l73 414h-211l-75 -426q-26 -142 -159 -142q-35 0 -65 7l12 67q24 -6 48 -6q65 0 78 71l75 429h-84l13 70h83l22 119q29 161 207 161q62 0 160 -29q52 39 142 39q46 0 101 -11h88l-60 -343q90 75 166 75q58 0 88.5 -39 t18.5 -106l-34 -192q-9 -46 34 -46q20 0 51 11l-11 -66q-35 -11 -70 -11q-57 0 -77 32.5t-11 84.5l32 182q16 81 -48 81q-62 0 -153 -82l-51 -288h-86l113 640q-52 10 -85 10q-115 0 -132 -94l-22 -128h118l-13 -70h-117l-73 -411q-25 -142 -158 -142zM206 428h211l24 131 q5 34 20 63q-58 18 -106 18q-112 0 -128 -96z" />
<glyph unicode="ffj" horiz-adv-x="825" d="M-40 -210q-35 0 -65 7l12 67q24 -6 48 -6q65 0 78 71l75 429h-84l13 70h83l22 119q29 161 207 161q62 0 160 -29q52 39 142 39q61 0 151 -23l-18 -63q-79 18 -127 18q-115 0 -132 -94l-22 -128h288l-82 -466q-26 -143 -154 -143q-27 0 -63 10l12 66q22 -8 44 -8 q62 0 75 71l69 400h-201l-73 -411q-25 -142 -158 -142q-34 0 -66 7l12 67q20 -6 48 -6q65 0 78 71l73 414h-211l-75 -426q-26 -142 -159 -142zM355 640q-112 0 -128 -96l-21 -116h211l24 131q5 34 20 63q-58 18 -106 18z" />
<glyph unicode="ffk" horiz-adv-x="1100" d="M-40 -210q-35 0 -65 7l12 67q24 -6 48 -6q65 0 78 71l75 429h-84l13 70h83l22 119q29 161 207 161q62 0 160 -29q52 39 142 39q46 0 101 -11h88l-59 -333q76 65 151 65q51 0 83.5 -28t32.5 -77q0 -58 -47 -97.5t-115 -55.5l49 -82q27 -43 58 -43q24 0 61 21l-12 -69 q-35 -19 -67 -19q-68 0 -112 75l-69 122l6 33q61 5 112.5 34t51.5 73q0 45 -53 45q-59 0 -143 -69l-53 -302h-86l113 640q-52 10 -85 10q-115 0 -132 -94l-22 -128h118l-13 -70h-117l-73 -411q-25 -142 -158 -142q-34 0 -66 7l12 67q20 -6 48 -6q65 0 78 71l73 414h-211 l-75 -426q-26 -142 -159 -142zM355 640q-112 0 -128 -96l-21 -116h211l24 131q5 34 20 63q-58 18 -106 18z" />
<glyph unicode="fft" horiz-adv-x="915" d="M260 -195q-34 0 -66 7l12 67q20 -6 48 -6q65 0 78 71l73 414h-211l-75 -426q-26 -142 -159 -142q-35 0 -65 7l12 67q24 -6 48 -6q65 0 78 71l75 429h-84l13 70h83l22 119q29 161 207 161q57 0 150 -26q43 36 118 36q31 0 77 -8l-12 -65q-37 5 -52 5q-44 0 -69.5 -19.5 t-33.5 -64.5l-24 -138h202l19 110h86l-20 -110h125l-13 -68h-123l-43 -246q-10 -58 51 -58q27 0 87 21l-12 -65q-48 -23 -103 -23q-59 0 -89.5 33.5t-18.5 96.5l42 241h-202l-73 -413q-25 -142 -158 -142zM227 544l-21 -116h211l25 140q4 27 16 55q-60 17 -103 17 q-112 0 -128 -96z" />
<glyph unicode="fb" horiz-adv-x="830" d="M566 -11q-99 0 -140 88l-14 -77h-79l112 640q-52 10 -85 10q-115 0 -131 -94l-23 -128h118l-13 -70h-117l-75 -426q-26 -142 -159 -142q-35 0 -65 7l12 67q24 -6 48 -6q65 0 78 71l75 429h-84l13 70h83l24 131q28 159 210 159q45 0 102 -11h87l-60 -333q62 65 141 65 q73 0 119.5 -51.5t46.5 -143.5q0 -112 -65.5 -183.5t-158.5 -71.5zM552 55q65 0 107.5 54t42.5 133q0 62 -27.5 96.5t-77.5 34.5q-65 0 -107.5 -55.5t-42.5 -133.5q0 -60 27 -94.5t78 -34.5z" />
<glyph unicode="fh" horiz-adv-x="838" d="M333 0l112 640q-52 10 -85 10q-115 0 -131 -94l-23 -128h118l-13 -70h-117l-75 -426q-26 -142 -159 -142q-35 0 -65 7l12 67q24 -6 48 -6q65 0 78 71l75 429h-84l13 70h83l24 131q28 159 210 159q45 0 102 -11h87l-60 -343q92 75 166 75q58 0 88.5 -39t18.5 -106 l-34 -192q-9 -46 34 -46q20 0 51 11l-11 -66q-35 -11 -70 -11q-57 0 -77 32.5t-11 84.5l32 182q16 81 -48 81q-62 0 -153 -82l-51 -288h-85z" />
<glyph unicode="fj" horiz-adv-x="528" d="M-40 -210q-35 0 -65 7l12 67q24 -6 48 -6q65 0 78 71l75 429h-84l13 70h83l24 131q28 159 210 159q60 0 152 -23l-19 -63q-79 18 -127 18q-115 0 -132 -94l-22 -128h288l-85 -481q-25 -142 -154 -142q-31 0 -62 9l12 66q23 -7 43 -7q62 0 75 71l72 414h-201l-75 -426 q-26 -142 -159 -142z" />
<glyph unicode="fk" horiz-adv-x="803" d="M333 0l112 640q-52 10 -85 10q-115 0 -131 -94l-23 -128h118l-13 -70h-117l-75 -426q-26 -142 -159 -142q-35 0 -65 7l12 67q24 -6 48 -6q65 0 78 71l75 429h-84l13 70h83l24 131q28 159 210 159q45 0 102 -11h87l-59 -333q76 65 151 65q51 0 83.5 -28t32.5 -77 q0 -58 -46.5 -97.5t-114.5 -55.5l48 -82q27 -43 58 -43q24 0 61 21l-12 -69q-35 -19 -67 -19q-68 0 -111 75l-70 122l6 33q61 5 113 34t52 73q0 45 -54 45q-60 0 -142 -69l-54 -302h-85z" />
<glyph unicode="ft" horiz-adv-x="619" d="M-40 -210q-35 0 -65 7l12 67q24 -6 48 -6q65 0 78 71l75 429h-84l13 70h83l25 140q14 78 57.5 114t117.5 36q31 0 77 -8l-12 -65q-37 5 -52 5q-44 0 -69 -19t-33 -65l-25 -138h202l19 110h87l-20 -110h124l-13 -68h-123l-43 -246q-10 -58 52 -58q26 0 86 21l-12 -65 q-48 -23 -103 -23q-59 0 -89.5 33.5t-18.5 96.5l42 241h-202l-75 -428q-26 -142 -159 -142z" />
<glyph unicode="tt" horiz-adv-x="628" d="M472 -11q-59 0 -89.5 33.5t-19.5 96.5l42 241h-219l-43 -246q-10 -58 51 -58q27 0 87 21l-12 -65q-48 -23 -103 -23q-59 0 -89.5 33.5t-18.5 96.5l42 241h-73l12 68h73l19 110h86l-20 -110h220l20 110h86l-20 -110h124l-12 -68h-123l-44 -246q-10 -58 52 -58q26 0 86 21 l-11 -65q-50 -23 -103 -23z" />
<glyph unicode=" "  horiz-adv-x="220" />
<glyph unicode="&#x09;" horiz-adv-x="220" />
<glyph unicode="&#xa0;" horiz-adv-x="220" />
<glyph unicode="!" horiz-adv-x="252" d="M77 167l63 442h95l-93 -442h-65zM91 -9q-24 0 -41 17t-17 40q0 24 17 41t41 17t41 -17t17 -41q0 -23 -17 -40t-41 -17z" />
<glyph unicode="&#x22;" horiz-adv-x="353" d="M83 399l39 223h78l-39 -223h-78zM241 399l39 223h78l-39 -223h-78z" />
<glyph unicode="#" horiz-adv-x="563" d="M72 12l37 116h-91l10 56h99l46 147h-93l11 56h101l37 117h66l-37 -117h128l37 117h67l-38 -117h95l-10 -56h-103l-47 -147h97l-10 -56h-105l-37 -116h-66l37 116h-128l-37 -116h-66zM194 184h128l46 147h-128z" />
<glyph unicode="$" horiz-adv-x="467" d="M158 -102l17 96q-70 7 -118.5 36t-48.5 68q0 21 13.5 36t37.5 15q21 0 34.5 -12.5t13.5 -29.5q0 -14 -9 -27q38 -22 87 -27l28 163q-27 10 -43 16.5t-38 19.5t-34.5 26.5t-21.5 33.5t-9 45q0 61 48 102.5t137 41.5h10l11 64h25l-12 -66q63 -7 106 -33.5t43 -61.5 q0 -20 -12.5 -35.5t-36.5 -15.5q-22 0 -36 13t-14 32q0 13 8 25q-29 13 -69 17l-26 -156q32 -12 44.5 -17t38.5 -19.5t37.5 -27t21.5 -34.5t10 -48q0 -62 -47.5 -104t-140.5 -42h-15l-15 -94h-25zM209 53q54 0 84 19.5t30 52.5q0 29 -22.5 47t-65.5 35zM252 441 q-51 -1 -79 -20.5t-28 -50.5q0 -27 20.5 -44t60.5 -33z" />
<glyph unicode="%" horiz-adv-x="652" d="M161 233q-50 0 -77 28t-27 79q0 60 36 102t100 42q51 0 77.5 -27.5t26.5 -78.5q0 -60 -35.5 -102.5t-100.5 -42.5zM165 281q31 0 50.5 26t19.5 68q0 62 -46 62q-31 0 -50.5 -26.5t-19.5 -67.5q0 -62 46 -62zM456 0q-51 0 -78 28t-27 78q0 61 36.5 103t100.5 42 q50 0 76.5 -27.5t26.5 -78.5q0 -60 -35.5 -102.5t-99.5 -42.5zM460 47q30 0 49.5 26t19.5 68q0 62 -46 62q-31 0 -50 -26t-19 -68q0 -62 46 -62zM101 0l-34 33l480 450l33 -34z" />
<glyph unicode="&#x26;" horiz-adv-x="635" d="M203 -13q-83 0 -131.5 41t-48.5 115q0 70 41 114t115 82q-48 64 -48 125q0 68 47 111.5t121 43.5q66 0 101.5 -35t35.5 -91q0 -59 -38 -98t-105 -74l112 -149q52 72 73 170h132l-12 -66h-63q-29 -95 -85 -164q42 -54 76 -54q23 0 47 8l-13 -69q-25 -8 -54 -8 q-65 0 -115 67q-82 -69 -188 -69zM210 58q73 0 138 55l-128 171q-57 -31 -85.5 -60.5t-28.5 -73.5q0 -41 26.5 -66.5t77.5 -25.5zM297 555q-34 0 -59.5 -22t-25.5 -62t41 -96q52 27 80.5 53.5t28.5 62.5q0 26 -16.5 45t-48.5 19z" />
<glyph unicode="'" horiz-adv-x="195" d="M83 399l39 223h78l-39 -223h-78z" />
<glyph unicode="(" horiz-adv-x="270" d="M101 -198q-75 150 -75 344q0 303 232 561h90q-240 -272 -240 -565q0 -85 20.5 -177t59.5 -163h-87z" />
<glyph unicode=")" horiz-adv-x="271" d="M-78 -198q240 272 240 565q0 85 -20 177t-59 163h87q74 -151 74 -344q0 -303 -232 -561h-90z" />
<glyph unicode="*" horiz-adv-x="383" d="M196 324q-32 4 -25 39q2 8 10.5 24.5t21.5 40t21 39.5h5q1 -17 4 -44.5t4 -39t-1 -27.5q-4 -17 -15.5 -25.5t-24.5 -6.5zM263 639q32 -4 25 -38q-2 -8 -10.5 -24.5t-21.5 -40t-21 -40.5l-5 1q0 18 -3 44.5t-4 39t0 27.5q4 16 16 24.5t24 6.5zM77 417q-10 30 23 44 q8 4 26 6.5t45 5t44 5.5l1 -5q-15 -11 -36.5 -28t-36 -28t-22.5 -14q-34 -16 -44 14zM383 547q10 -30 -24 -44q-8 -4 -25.5 -6.5t-44.5 -5t-44 -5.5l-2 4q15 11 36.5 28.5t36 28.5t22.5 14q35 15 45 -14zM349 389q-22 -26 -49 -5q-6 4 -15.5 18t-22.5 35t-23 34l4 4 q15 -6 39 -14t40 -14t22 -11q13 -10 13.5 -24t-8.5 -23zM110 575q22 26 49 5q6 -4 15.5 -18t23 -35t23.5 -34l-4 -4q-15 6 -40 14t-40.5 14t-21.5 11q-27 21 -5 47z" />
<glyph unicode="+" horiz-adv-x="479" d="M165 30l31 174h-173l12 66h172l31 175h70l-31 -175h173l-12 -66h-173l-30 -174h-70z" />
<glyph unicode="," horiz-adv-x="222" d="M77 104q24 0 40 -17t16 -42q0 -38 -38 -86t-89 -85l-31 32q66 58 81 94q-16 4 -26 18t-10 30q0 22 16.5 39t40.5 17z" />
<glyph unicode="-" horiz-adv-x="387" d="M46 195l13 74h274l-13 -74h-274z" />
<glyph unicode="." horiz-adv-x="212" d="M71 -9q-23 0 -39.5 16.5t-16.5 39.5t16.5 40t39.5 17t39.5 -17t16.5 -40t-16.5 -39.5t-39.5 -16.5z" />
<glyph unicode="/" horiz-adv-x="544" d="M-55 -198l576 905h80l-575 -905h-81z" />
<glyph unicode="0" horiz-adv-x="535" d="M231 -11q-99 0 -146 54.5t-47 149.5q0 55 16 105.5t46.5 92.5t82 67t116.5 25q98 0 145 -54.5t47 -147.5q0 -75 -26.5 -139.5t-87 -108.5t-146.5 -44zM236 56q81 0 124 67t43 156q0 138 -110 138q-55 0 -94.5 -34.5t-56.5 -84t-17 -105.5q0 -137 111 -137z" />
<glyph unicode="1" horiz-adv-x="354" d="M8 0l12 66h102l59 334q-53 -36 -85 -36q-26 0 -36 17t0 41l144 50h75l-72 -406h88l-11 -66h-276z" />
<glyph unicode="2" horiz-adv-x="458" d="M19 0l-14 49q16 11 67 40.5t89.5 54.5t82 59t67.5 71t24 73q0 31 -21 51.5t-65 20.5q-42 0 -85 -19q5 -10 5 -21q0 -23 -14 -38t-39 -15t-38 15t-13 36q0 47 60.5 76.5t133.5 29.5q72 0 117 -33.5t45 -96.5q0 -44 -22.5 -85.5t-64.5 -77.5t-84.5 -63.5t-97.5 -56.5h234 l-13 -70h-354z" />
<glyph unicode="3" horiz-adv-x="492" d="M180 -140q-77 0 -137 27t-60 75q0 24 16.5 40.5t42.5 16.5q23 0 37.5 -12.5t14.5 -33.5q0 -16 -8 -29q38 -18 87 -18q70 0 112 34.5t42 89.5q0 50 -37.5 74.5t-99.5 24.5h-41l13 64h39q72 0 116 32.5t44 87.5q0 42 -27 63.5t-75 21.5q-51 0 -89 -18q4 -8 4 -21 q0 -22 -16 -37.5t-41 -15.5q-24 0 -38 15t-14 36q0 48 62.5 77t140.5 29q83 0 132 -36.5t49 -104.5q0 -62 -38.5 -102t-99.5 -58q104 -37 104 -136q0 -80 -64 -133t-171 -53z" />
<glyph unicode="4" horiz-adv-x="491" d="M143 -129l11 62h96l18 99h-269l-16 58q89 85 158.5 192.5t89.5 196.5q29 9 47.5 -1t18.5 -40q0 -58 -68.5 -165.5t-144.5 -176.5h198l14 76q28 37 65 109h34l-33 -185h83l-11 -64h-81l-18 -99h79l-11 -62h-260z" />
<glyph unicode="5" horiz-adv-x="495" d="M191 -140q-80 0 -141 33.5t-61 82.5q0 25 16.5 41t42.5 16q24 0 37 -14t13 -35q0 -14 -8 -30q39 -26 94 -26q69 0 114.5 39t45.5 108q0 56 -30.5 84.5t-80.5 28.5q-83 0 -146 -67l-54 28q55 128 91 323h333q21 -83 -72 -83q-27 0 -104 6t-98 7q-21 -106 -53 -186 q59 39 125 39q73 0 125 -46t52 -130q0 -96 -66.5 -157.5t-174.5 -61.5z" />
<glyph unicode="6" horiz-adv-x="524" d="M236 -11q-90 0 -141.5 51.5t-51.5 161.5q0 66 18.5 135t53 132t93 103t130.5 40q67 0 114 -31t47 -73q0 -22 -14 -39.5t-42 -17.5q-25 0 -39.5 14t-14.5 34t13 33q-30 16 -63 16q-74 0 -124 -67t-74 -167q62 71 162 71q78 0 123.5 -44.5t45.5 -125.5q0 -97 -64.5 -161.5 t-171.5 -64.5zM237 55q65 0 106 44.5t41 111.5q0 51 -26 81.5t-77 30.5q-64 0 -109 -44t-45 -111q0 -50 28 -81.5t82 -31.5z" />
<glyph unicode="7" horiz-adv-x="472" d="M175 -140q-47 0 -47 48q0 83 79.5 227t172.5 253q-37 -11 -97 5t-83 16q-44 0 -66 -24.5t-30 -72.5h-73l29 160h66l-10 -54q30 60 93 60q31 0 87 -22t90 -16q12 43 55 43q23 0 35.5 -12.5t12.5 -32.5t-25 -54q-121 -155 -181 -270.5t-73 -248.5q-20 -5 -35 -5z" />
<glyph unicode="8" horiz-adv-x="531" d="M227 -11q-99 0 -150 43t-51 114q0 69 44 113t108 62q-77 35 -77 119q0 71 58.5 121.5t160.5 50.5q88 0 133.5 -38.5t45.5 -101.5q0 -55 -34.5 -96.5t-93.5 -59.5q102 -35 102 -136q0 -82 -66.5 -136.5t-179.5 -54.5zM231 54q71 0 113.5 38t42.5 93q0 46 -30.5 72.5 t-87.5 26.5q-70 0 -113 -37.5t-43 -94.5q0 -45 30 -71.5t88 -26.5zM316 549q-59 0 -95.5 -32t-36.5 -80q0 -39 26 -63t73 -24q57 0 95 34t38 82q0 39 -26 61t-74 22z" />
<glyph unicode="9" horiz-adv-x="516" d="M189 -140q-68 0 -122.5 28t-54.5 74q0 26 16.5 41.5t40.5 15.5q23 0 37 -14.5t14 -36.5q0 -13 -8 -26q32 -17 75 -17q146 0 186 241q-57 -77 -159 -77q-78 0 -126 46.5t-48 127.5q0 94 64 157t170 63q94 0 144.5 -55.5t50.5 -166.5q0 -45 -7.5 -94t-27.5 -105.5t-50 -100 t-81 -72.5t-114 -29zM274 417q-65 0 -105.5 -44t-40.5 -108q0 -51 27.5 -82.5t79.5 -31.5q62 0 106 44.5t44 108.5q0 49 -28.5 81t-82.5 32z" />
<glyph unicode=":" horiz-adv-x="229" d="M78 -9q-23 0 -40 16.5t-17 39.5t17 40t40 17t39.5 -17t16.5 -40t-16.5 -39.5t-39.5 -16.5zM132 294q-23 0 -40 16.5t-17 40.5q0 23 17 39.5t40 16.5t39.5 -16.5t16.5 -39.5q0 -24 -16.5 -40.5t-39.5 -16.5z" />
<glyph unicode=";" horiz-adv-x="239" d="M137 294q-23 0 -39.5 16.5t-16.5 40.5q0 23 16.5 39.5t39.5 16.5t40 -16.5t17 -39.5q0 -24 -17 -40.5t-40 -16.5zM84 104q24 0 39.5 -17t15.5 -42q0 -38 -37.5 -86t-88.5 -85l-31 32q64 56 81 94q-16 4 -26 18t-10 30q0 22 16.5 39t40.5 17z" />
<glyph unicode="&#x3c;" horiz-adv-x="452" d="M360 29l-337 189l6 39l404 189l-13 -78l-296 -133l249 -133z" />
<glyph unicode="=" horiz-adv-x="535" d="M31 89l12 69h415l-12 -69h-415zM71 315l12 69h415l-13 -69h-414z" />
<glyph unicode="&#x3e;" horiz-adv-x="452" d="M13 28l13 77l296 134l-249 133l13 73l337 -189l-6 -39z" />
<glyph unicode="?" horiz-adv-x="379" d="M100 167q-4 44 14.5 82t47 66t57.5 53.5t50 55.5t21 62q0 69 -87 69q-53 0 -122 -23l11 68q73 21 127 21q71 0 115 -33.5t44 -96.5q0 -42 -21.5 -79t-52 -64t-60.5 -53t-49.5 -58.5t-17.5 -69.5h-77zM128 -9q-24 0 -41 17t-17 40q0 24 17 41t41 17t41 -17t17 -41 q0 -23 -17 -40t-41 -17z" />
<glyph unicode="@" horiz-adv-x="762" d="M310 50q-55 0 -88 35.5t-33 96.5q0 88 63.5 156.5t149.5 68.5q46 0 72 -20.5t34 -50.5h3q19 41 28 55h51q-78 -175 -78 -247q0 -52 38 -52q47 0 86 57t39 144q0 111 -64.5 175.5t-174.5 64.5q-88 0 -171 -45t-137 -126t-54 -174q0 -110 71 -183.5t183 -73.5q90 0 177 53 l18 -37q-103 -58 -198 -58q-130 0 -212 86.5t-82 212.5q0 79 35.5 152t92.5 124t131 81.5t150 30.5q123 0 200 -76t77 -205q0 -109 -52.5 -177t-127.5 -68q-47 0 -64.5 24t-16.5 50h-4q-61 -74 -142 -74zM327 103q58 0 102.5 53.5t44.5 120.5q0 78 -68 78 q-59 0 -104.5 -52.5t-45.5 -118.5q0 -81 71 -81z" />
<glyph unicode="A" horiz-adv-x="681" d="M-45 0l13 71h78l269 467h-87l12 71h218l121 -538h79l-13 -71h-256l12 71h90l-26 117h-260l-66 -117h90l-13 -71h-261zM245 259h206l-56 265z" />
<glyph unicode="B" horiz-adv-x="610" d="M-6 0l12 71h89l83 467h-90l13 71h280q94 0 148 -39.5t54 -107.5q0 -54 -36.5 -95t-103.5 -59q54 -13 83.5 -45.5t29.5 -81.5q0 -79 -69.5 -130t-183.5 -51h-309zM182 70h124q74 0 118.5 30t44.5 83q0 92 -132 92h-119zM230 343h104q76 0 119 30.5t43 81.5q0 84 -121 84 h-111z" />
<glyph unicode="C" horiz-adv-x="611" d="M332 -12q-128 0 -207.5 73t-79.5 204q0 148 100.5 252t262.5 104q112 0 217 -48l-26 -157h-82l20 112q-65 21 -128 21q-122 0 -198 -81.5t-76 -200.5q0 -102 58 -153t148 -51q106 0 216 63l-14 -86q-100 -52 -211 -52z" />
<glyph unicode="D" horiz-adv-x="684" d="M-6 0l12 71h89l83 467h-90l13 71h274q132 0 206 -67t74 -195q0 -152 -100 -249.5t-274 -97.5h-287zM184 71h101q129 0 204 76.5t75 197.5q0 193 -197 193h-101z" />
<glyph unicode="E" horiz-adv-x="578" d="M-6 0l12 71h89l83 467h-90l13 71h490l-30 -171h-82l18 100h-231l-34 -196h248l-12 -71h-249l-35 -200h233l18 103h82l-30 -174h-493z" />
<glyph unicode="F" horiz-adv-x="547" d="M-6 0l12 71h89l83 467h-90l13 71h483l-31 -181h-82l19 109h-224l-37 -208h232l-13 -73h-231l-33 -185h99l-12 -71h-277z" />
<glyph unicode="G" horiz-adv-x="692" d="M346 -12q-139 0 -219.5 73.5t-80.5 203.5q0 153 105 254.5t270 101.5q124 0 236 -51l-25 -147h-83l17 100q-76 24 -142 24q-126 0 -207.5 -79t-81.5 -199q0 -96 56 -151t164 -55q70 0 146 27l29 164h-142l12 70h281l-12 -70h-56l-38 -217q-107 -49 -229 -49z" />
<glyph unicode="H" horiz-adv-x="755" d="M-6 0l12 71h89l83 467h-90l13 71h267l-12 -71h-90l-34 -195h323l34 195h-90l12 71h268l-12 -71h-90l-82 -467h89l-12 -71h-268l13 71h90l35 198h-323l-35 -198h90l-13 -71h-267z" />
<glyph unicode="I" horiz-adv-x="344" d="M-6 0l12 71h89l83 467h-90l13 71h267l-13 -71h-89l-82 -467h89l-12 -71h-267z" />
<glyph unicode="J" horiz-adv-x="316" d="M-30 -173l-25 57q51 20 85 53t41 72l94 529h-83l12 71h254l-12 -71h-83l-95 -535q-24 -131 -188 -176z" />
<glyph unicode="K" horiz-adv-x="672" d="M469 0l-206 302l1 6l259 231h-77l11 70h257l-13 -71h-70l-264 -239l157 -228h104l-13 -71h-146zM-6 0l12 71h89l83 467h-90l13 71h265l-12 -71h-88l-82 -467h96l-13 -71h-273z" />
<glyph unicode="L" horiz-adv-x="546" d="M-6 0l12 71h89l83 467h-90l13 71h280l-13 -71h-102l-82 -467h232l20 109h82l-32 -180h-492z" />
<glyph unicode="M" horiz-adv-x="903" d="M-12 0l13 71h85l100 467h-86l12 71h220l100 -458l257 458h226l-13 -71h-85l-65 -467h85l-13 -71h-251l13 71h85l63 456l-283 -493h-71l-114 493l-97 -456h85l-12 -71h-254z" />
<glyph unicode="N" horiz-adv-x="744" d="M-6 0l12 71h89l83 467h-90l13 71h175l247 -473l71 402h-89l12 71h262l-12 -71h-89l-95 -538h-79l-252 481l-73 -410h90l-13 -71h-262z" />
<glyph unicode="O" horiz-adv-x="708" d="M323 -12q-128 0 -202.5 74.5t-74.5 200.5q0 149 100 253.5t255 104.5q129 0 204 -74.5t75 -200.5q0 -150 -100 -254t-257 -104zM325 62q111 0 187.5 80t76.5 201q0 96 -51 150t-139 54q-111 0 -187 -81t-76 -201q0 -96 50.5 -149.5t138.5 -53.5z" />
<glyph unicode="P" horiz-adv-x="582" d="M-6 0l12 71h89l83 467h-90l13 71h266q101 0 160 -45t59 -129q0 -91 -73 -151.5t-200 -60.5h-102l-27 -152h108l-12 -71h-286zM223 294h98q87 0 131 40.5t44 99.5q0 48 -33 76t-100 28h-97z" />
<glyph unicode="Q" horiz-adv-x="708" d="M465 -145l-170 134q-116 8 -182.5 82t-66.5 192q0 149 100 253.5t255 104.5q129 0 204 -74.5t75 -200.5t-74.5 -223t-195.5 -124l114 -76zM325 62q111 0 187.5 80t76.5 201q0 96 -51 150t-139 54q-111 0 -187 -81t-76 -201q0 -96 50.5 -149.5t138.5 -53.5z" />
<glyph unicode="R" horiz-adv-x="633" d="M-6 0l12 71h89l83 467h-90l13 71h277q101 0 159 -45t58 -126q0 -73 -47 -123t-127 -68l72 -176h86l-12 -71h-137l-96 233h-122l-28 -162h89l-12 -71h-267zM225 302h105q88 0 131.5 38.5t43.5 96.5q0 101 -133 101h-106z" />
<glyph unicode="S" horiz-adv-x="519" d="M226 -12q-114 0 -216 34l25 142h80l-16 -87q65 -18 125 -18q75 0 114 27.5t39 73.5q0 33 -21.5 57t-54.5 36.5t-70.5 28.5t-70.5 32.5t-54.5 49.5t-21.5 79q0 77 57.5 127.5t169.5 50.5q94 0 195 -33l-24 -139h-81l15 87q-51 14 -103 14q-72 0 -106.5 -28.5t-34.5 -69.5 q0 -26 16 -45.5t42 -31.5t57 -23.5t62 -26t57 -33.5t42 -51t16 -75q0 -85 -61 -131.5t-177 -46.5z" />
<glyph unicode="T" horiz-adv-x="580" d="M104 0l13 71h96l82 467h-146l-17 -101h-80l30 172h540l-30 -172h-80l17 101h-145l-83 -467h97l-13 -71h-281z" />
<glyph unicode="U" horiz-adv-x="688" d="M310 -12q-113 0 -172 65.5t-39 178.5l54 306h-89l12 71h267l-12 -71h-90l-57 -322q-13 -72 21.5 -111t104.5 -39q69 0 117.5 38t60.5 111l58 323h-92l12 71h265l-12 -71h-90l-57 -325q-19 -108 -88.5 -166.5t-173.5 -58.5z" />
<glyph unicode="V" horiz-adv-x="656" d="M235 0l-115 538h-79l13 71h257l-12 -71h-92l90 -434l239 434h-91l12 71h263l-12 -71h-79l-305 -538h-89z" />
<glyph unicode="W" horiz-adv-x="930" d="M197 0l-78 538h-75l12 71h252l-13 -71h-94l60 -431l204 383l-8 48h-81l12 71h260l-12 -71h-95l69 -429l207 429h-94l13 71h255l-13 -71h-76l-263 -538h-86l-67 373l-202 -373h-87z" />
<glyph unicode="X" horiz-adv-x="648" d="M-36 0l13 70h75l233 244l-133 225h-74l11 70h257l-12 -69h-86l95 -168l158 168h-85l11 69h265l-12 -70h-75l-222 -233l140 -237h75l-13 -69h-255l13 69h86l-104 179l-168 -179h87l-13 -69h-267z" />
<glyph unicode="Y" horiz-adv-x="629" d="M131 0l13 71h92l26 148l-143 319h-78l13 71h262l-13 -70h-94l105 -241l190 241h-93l12 70h269l-12 -71h-76l-253 -316l-27 -151h92l-13 -71h-272z" />
<glyph unicode="Z" horiz-adv-x="575" d="M18 0l-21 43l445 492h-267l-18 -105h-82l31 179h455l25 -39l-449 -496h286l19 111h82l-32 -185h-474z" />
<glyph unicode="[" horiz-adv-x="296" d="M-2 -198l160 905h201l-11 -59h-122l-138 -787h122l-11 -59h-201z" />
<glyph unicode="\" horiz-adv-x="527" d="M350 -198l-256 905h81l256 -905h-81z" />
<glyph unicode="]" horiz-adv-x="296" d="M-64 -198l11 59h122l138 787h-122l11 59h201l-160 -905h-201z" />
<glyph unicode="^" horiz-adv-x="443" d="M53 338l213 290h47l110 -290h-76l-69 205l-142 -205h-83z" />
<glyph unicode="_" horiz-adv-x="526" d="M-4 -88l10 55h412l-10 -55h-412z" />
<glyph unicode="`" horiz-adv-x="331" d="M229 505l-164 130l57 61l139 -157z" />
<glyph unicode="a" d="M190 -11q-72 0 -118.5 51.5t-46.5 143.5q0 111 66 183t158 72q95 0 135 -81l13 70h85l-57 -326q-9 -46 33 -46q21 0 52 11l-12 -66q-35 -11 -68 -11q-84 0 -87 76q-62 -77 -153 -77zM217 55q64 0 107.5 56t43.5 133q0 59 -27 94t-77 35q-64 0 -107.5 -54.5t-43.5 -133.5 q0 -61 28 -95.5t76 -34.5z" />
<glyph unicode="b" horiz-adv-x="517" d="M254 -11q-101 0 -140 88l-14 -77h-80l113 639h-70l13 68h155l-60 -333q62 65 141 65q72 0 118.5 -51.5t46.5 -143.5q0 -111 -65.5 -183t-157.5 -72zM240 55q65 0 107.5 54t42.5 133q0 62 -27.5 96.5t-77.5 34.5q-65 0 -108 -55.5t-43 -133.5q0 -60 27.5 -94.5t78.5 -34.5 z" />
<glyph unicode="c" horiz-adv-x="409" d="M221 -11q-92 0 -144 50.5t-52 143.5q0 107 65.5 181.5t180.5 74.5q70 0 130 -25l-13 -65q-54 24 -108 24q-79 0 -123 -54t-44 -131q0 -63 32 -98t95 -35q58 0 114 22l-12 -69q-61 -19 -121 -19z" />
<glyph unicode="d" d="M190 -11q-72 0 -118.5 51.5t-46.5 143.5q0 111 66 183t158 72t135 -80l50 280h-88l12 68h173l-106 -605q-9 -46 33 -46q21 0 52 11l-12 -66q-35 -11 -69 -11q-83 0 -86 76q-62 -77 -153 -77zM217 55q64 0 107.5 56t43.5 133q0 59 -27 94t-77 35q-64 0 -107.5 -54.5 t-43.5 -133.5q0 -61 28 -95.5t76 -34.5z" />
<glyph unicode="e" horiz-adv-x="427" d="M218 -11q-87 0 -140.5 48.5t-53.5 143.5q0 111 70 184.5t171 73.5q63 0 97 -30t34 -79q0 -42 -24.5 -73t-67 -49t-90.5 -27t-105 -12q7 -113 120 -113q60 0 138 36l-14 -71q-60 -32 -135 -32zM113 233q55 2 98.5 11.5t74.5 31t31 52.5q0 47 -56 47q-53 0 -93.5 -39.5 t-54.5 -102.5z" />
<glyph unicode="f" horiz-adv-x="303" d="M-40 -210q-35 0 -65 7l12 67q24 -6 48 -6q65 0 78 71l75 429h-84l13 70h83l25 140q14 78 57.5 114t117.5 36q31 0 77 -8l-12 -65q-37 5 -52 5q-44 0 -69 -19t-33 -65l-25 -138h118l-13 -70h-117l-75 -426q-26 -142 -159 -142z" />
<glyph unicode="g" horiz-adv-x="450" d="M133 -210q-110 0 -156.5 32.5t-46.5 78.5q0 81 139 142q-10 13 -10 31q0 36 39 68q-56 38 -56 113t55 129.5t140 54.5q36 0 67 -11h163l-13 -68l-75 3q18 -29 18 -66q0 -75 -55 -129.5t-140 -54.5q-30 0 -54 7q-14 -14 -14 -24q0 -7 5.5 -13.5t17.5 -13.5t23 -12 t31 -13.5t32 -13.5q108 -47 108 -117q0 -49 -49.5 -86t-168.5 -37zM238 377q-51 0 -83.5 -36.5t-32.5 -85.5q0 -37 20.5 -58.5t58.5 -21.5q51 0 83.5 36t32.5 86q0 36 -20.5 58t-58.5 22zM138 -145q67 0 98 16t31 37q0 30 -94 69q-46 20 -61 28q-99 -45 -99 -92 q0 -58 125 -58z" />
<glyph unicode="h" horiz-adv-x="525" d="M20 0l113 639h-76l12 68h162l-61 -343q92 75 167 75q58 0 88 -39t18 -106l-33 -192q-9 -46 33 -46q21 0 52 11l-12 -66q-35 -11 -69 -11q-57 0 -77 32.5t-11 84.5l32 182q14 81 -49 81q-61 0 -152 -82l-51 -288h-86z" />
<glyph unicode="i" horiz-adv-x="262" d="M147 -10q-109 0 -89 117l44 252h-75l12 69h161l-58 -326q-7 -46 33 -46q21 0 52 11l-11 -66q-35 -11 -69 -11zM174 516q-24 0 -42 17.5t-18 42.5t18 42.5t42 17.5q25 0 43 -17.5t18 -42.5t-18 -42.5t-43 -17.5z" />
<glyph unicode="j" horiz-adv-x="239" d="M179 516q-25 0 -42.5 17.5t-17.5 42.5t17.5 42.5t42.5 17.5t42.5 -17.5t17.5 -42.5t-17.5 -42.5t-42.5 -17.5zM-36 -210q-29 0 -63 10l12 66q22 -8 44 -8q62 0 74 71l76 430h-81l13 69h166l-88 -496q-25 -142 -153 -142z" />
<glyph unicode="k" horiz-adv-x="491" d="M20 0l113 639h-70l13 68h155l-60 -333q77 65 152 65q51 0 83.5 -28t32.5 -77q0 -58 -47 -97.5t-115 -55.5l49 -82q27 -43 57 -43q22 0 62 21l-13 -69q-33 -19 -67 -19q-68 0 -111 75l-69 122l6 33q61 5 112.5 34t51.5 73q0 45 -53 45q-61 0 -143 -69l-53 -302h-86z" />
<glyph unicode="l" horiz-adv-x="240" d="M124 -10q-57 0 -77.5 32.5t-12.5 84.5l94 532h-76l13 68h161l-107 -605q-7 -46 33 -46q21 0 52 11l-11 -66q-35 -11 -69 -11z" />
<glyph unicode="m" horiz-adv-x="782" d="M43 0l64 359h-74l12 69h155l-11 -59q76 70 149 70q40 0 67.5 -20t35.5 -58q82 78 158 78q54 0 84 -36t18 -102l-35 -199q-7 -46 34 -46q20 0 51 11l-11 -66q-35 -11 -70 -11q-57 0 -77 32.5t-11 84.5l33 191q13 72 -45 72q-54 0 -129 -69l-52 -301h-85l52 298 q13 72 -45 72q-53 0 -130 -71l-53 -299h-85z" />
<glyph unicode="n" horiz-adv-x="548" d="M43 0l64 359h-74l12 69h157l-12 -66q92 77 169 77q58 0 88.5 -39t18.5 -106l-34 -192q-9 -46 33 -46q21 0 52 11l-11 -66q-35 -11 -70 -11q-57 0 -77 32.5t-11 84.5l32 182q16 81 -49 81q-60 0 -151 -82l-51 -288h-86z" />
<glyph unicode="o" horiz-adv-x="499" d="M215 -11q-88 0 -139.5 50.5t-51.5 142.5q0 108 67 182.5t178 74.5q88 0 139.5 -50.5t51.5 -142.5q0 -108 -67 -182.5t-178 -74.5zM217 55q68 0 111 57t43 134q0 58 -26.5 92t-77.5 34q-68 0 -111 -56.5t-43 -133.5q0 -59 26.5 -93t77.5 -34z" />
<glyph unicode="p" horiz-adv-x="541" d="M277 -11q-96 0 -136 80l-47 -268h-86l99 558h-72l12 69h150l-10 -62q61 73 148 73q72 0 118.5 -51.5t46.5 -143.5q0 -112 -65 -183.5t-158 -71.5zM262 55q64 0 107.5 54.5t43.5 133.5q0 61 -28 95.5t-77 34.5q-64 0 -107.5 -56t-43.5 -134q0 -59 27.5 -93.5t77.5 -34.5z " />
<glyph unicode="q" horiz-adv-x="517" d="M191 -11q-73 0 -119.5 51.5t-46.5 143.5q0 111 65.5 183t157.5 72q100 0 141 -89l14 78h79l-97 -559h76l-12 -68h-163l44 252q-59 -64 -139 -64zM218 55q65 0 107.5 55.5t42.5 132.5q0 60 -27 95t-78 35q-65 0 -107.5 -54t-42.5 -133q0 -62 27.5 -96.5t77.5 -34.5z" />
<glyph unicode="r" horiz-adv-x="412" d="M43 0l64 359h-74l13 69h156l-14 -77q78 88 154 88q33 0 53.5 -18.5t20.5 -56.5q0 -34 -14 -71l-77 5q8 24 8 41q0 26 -26 26q-49 0 -129 -86l-49 -279h-86z" />
<glyph unicode="s" horiz-adv-x="372" d="M146 -11q-81 0 -145 29l11 64q68 -28 133 -28q46 0 69.5 16t23.5 42q0 27 -30.5 46.5t-66.5 32t-66.5 42.5t-30.5 76q0 56 42.5 93t122.5 37q62 0 130 -24l-11 -62q-64 22 -115 22q-46 0 -65.5 -16t-19.5 -38t20 -38t48.5 -27.5t57.5 -26t49 -41.5t20 -65 q0 -54 -41.5 -94t-135.5 -40z" />
<glyph unicode="t" horiz-adv-x="323" d="M166 -11q-59 0 -89.5 33.5t-18.5 96.5l42 241h-73l12 68h73l19 110h86l-20 -110h125l-13 -68h-123l-43 -246q-10 -58 51 -58q27 0 87 21l-12 -65q-48 -23 -103 -23z" />
<glyph unicode="u" d="M167 -11q-58 0 -88.5 39t-18.5 106l40 225h-74l12 69h159l-51 -289q-16 -81 48 -81q59 0 151 81l52 289h85l-58 -329q-9 -47 34 -47q20 0 51 11l-11 -62q-35 -11 -69 -11q-86 0 -91 77q-90 -78 -171 -78z" />
<glyph unicode="v" horiz-adv-x="469" d="M155 0l-75 361h-70l12 67h128l62 -345q160 182 160 265q0 21 -21 21q-27 0 -60 -23l-27 51q57 41 112 41q43 0 60.5 -23t17.5 -55q0 -122 -227 -360h-72z" />
<glyph unicode="w" horiz-adv-x="696" d="M156 0l-77 361h-68l12 67h123l65 -340q97 129 129 226l-9 47h-70l12 67h125l67 -344q61 72 99.5 146t38.5 114q0 13 -5.5 18.5t-19.5 5.5q-27 0 -63 -23l-23 51q55 42 109 42q40 0 59.5 -23t19.5 -59q0 -61 -55.5 -159t-142.5 -197h-70l-46 210q-56 -108 -138 -210h-72z " />
<glyph unicode="x" horiz-adv-x="474" d="M65 -11q-19 0 -34 7.5t-26 23t-16.5 25t-13.5 28.5l47 27q15 -38 39 -38q21 0 48 34.5t79 119.5l-67 147h-69l12 65h116l59 -144q52 87 83 120.5t69 33.5q19 0 33.5 -7t26 -22t17 -24.5t14.5 -29.5l-46 -27q-19 38 -40 38q-20 0 -43 -31.5t-79 -126.5l67 -143h67l-11 -65 h-114l-59 142q-52 -82 -86 -117.5t-73 -35.5z" />
<glyph unicode="y" horiz-adv-x="481" d="M130 0l-46 361h-70l12 67h134l50 -421q69 84 118 180.5t49 146.5q0 33 -28 33q-27 0 -60 -23l-26 51q54 43 112 43q43 0 64 -24.5t21 -66.5q0 -58 -42 -152t-105.5 -184t-148 -155.5t-159.5 -65.5q-67 0 -119 52l37 49q38 -32 79 -32q86 0 202 141h-74z" />
<glyph unicode="z" horiz-adv-x="439" d="M16 -4l-22 39l295 331h-159l-13 -80h-72l24 142h325l20 -37l-287 -321q22 2 65 -4.5t59 -6.5q40 0 58 20.5t34 64.5l62 -17q-8 -28 -15 -45t-22.5 -41.5t-41.5 -37t-61 -12.5q-24 0 -76.5 10.5t-83.5 10.5q-36 0 -89 -16z" />
<glyph unicode="{" horiz-adv-x="301" d="M134 -212q-51 0 -75.5 26t-24.5 66q0 36 35 122.5t35 127.5q0 83 -102 91l12 66q30 2 53.5 10t38.5 17.5t25.5 28.5t15.5 32t8 39t3 39v42v16q0 36 2 62.5t10 55.5t22 47.5t39.5 30.5t60.5 12q33 0 64 -11l-9 -52q-23 7 -45 7q-17 0 -29 -4.5t-19 -16.5t-11 -19.5 t-5.5 -29.5t-1.5 -28.5v-32.5q0 -119 -9 -161q-24 -100 -123 -120q-2 -1 -4 -1q43 -10 62 -43t19 -75q0 -52 -35 -138t-35 -113q0 -36 41 -36q22 0 52 7l-9 -54q-35 -10 -61 -10z" />
<glyph unicode="|" horiz-adv-x="236" d="M-2 -198l160 905h79l-160 -905h-79z" />
<glyph unicode="}" horiz-adv-x="301" d="M9 -212q-32 0 -65 11l9 52q26 -8 45 -8q17 0 29 4.5t19 16.5t11 19.5t5.5 29.5t1.5 28.5v32.5q0 120 10 162q23 100 122 120q2 1 4 1q-43 9 -62 42.5t-19 75.5q0 52 35 138t35 113q0 36 -41 36q-22 0 -52 -7l9 54q35 10 61 10q51 0 76 -26.5t25 -65.5q0 -36 -35.5 -122.5 t-35.5 -127.5q0 -83 102 -91l-11 -66q-42 -2 -70.5 -16.5t-43 -31t-22 -49t-8 -51.5t-0.5 -59v-17q0 -46 -4.5 -78t-17.5 -64.5t-41 -49t-71 -16.5z" />
<glyph unicode="~" horiz-adv-x="590" d="M87 171l-48 23q20 33 33 52t35 43t46.5 35.5t53.5 11.5q37 0 71.5 -21.5t64 -43t55.5 -21.5q53 0 107 89l47 -25q-78 -140 -162 -140q-40 0 -98.5 44t-93.5 44q-25 0 -47 -15.5t-33.5 -30.5t-30.5 -45z" />
<glyph unicode="&#xa1;" horiz-adv-x="231" d="M-7 -180l92 443h65l-63 -443h-94zM136 323q-23 0 -40 17t-17 41t17 41t40 17q24 0 41 -17t17 -41t-17 -41t-41 -17z" />
<glyph unicode="&#xa2;" horiz-adv-x="454" d="M83 -70l-27 8l65 125q-84 40 -84 154q0 97 60 165t163 68q35 0 59 -8l45 86l26 -8l-46 -87q72 -33 70 -128h-68q2 51 -29 75l-143 -275q14 -5 35 -5q86 0 117 92h71q-19 -69 -68 -107t-124 -38q-34 0 -58 7zM150 118l143 274q-13 5 -33 5q-68 0 -109.5 -54t-41.5 -126 q0 -70 41 -99z" />
<glyph unicode="&#xa3;" horiz-adv-x="526" d="M33 -3l-14 40q55 18 84 51.5t29 74.5q0 16 -10 60h-87l6 35h72q-9 40 -9 70q0 73 53.5 123t153.5 50q53 0 91 -15.5t55.5 -40t24 -49.5t3.5 -49h-79q5 39 -16 66t-80 27q-60 0 -92 -31t-32 -82q0 -31 10 -69h172l-6 -35h-158q8 -38 8 -53q0 -60 -48 -100q21 0 60 -7.5 t65 -7.5q75 0 126 60l46 -43q-71 -80 -167 -80q-35 0 -89 11t-84 11q-38 0 -88 -17z" />
<glyph unicode="&#xa4;" horiz-adv-x="568" d="M257 55q-68 0 -117 37l-66 -56l-39 47l65 53q-30 46 -30 105q0 91 66 157l-51 60l50 42l49 -63q62 38 130 38q67 0 116 -38l67 58l38 -47l-66 -54q31 -45 31 -105q0 -90 -65 -158l52 -59l-50 -42l-50 63q-59 -38 -130 -38zM261 118q70 0 121 50.5t51 120.5q0 55 -33.5 89 t-89.5 34q-70 0 -121.5 -51t-51.5 -121q0 -54 34.5 -88t89.5 -34z" />
<glyph unicode="&#xa5;" horiz-adv-x="604" d="M135 0l10 57h79l13 71h-159l7 37h159l3 17l-29 59h-120l6 36h96l-73 154h-66l11 60h224l-11 -60h-74l84 -188l150 188h-74l11 60h230l-11 -60h-65l-128 -154h96l-6 -36h-121l-49 -59l-3 -17h160l-7 -37h-160l-12 -71h79l-10 -57h-240z" />
<glyph unicode="&#xa6;" horiz-adv-x="239" d="M95 343l65 364h79l-65 -364h-79zM0 -198l71 400h79l-71 -400h-79z" />
<glyph unicode="&#xa7;" horiz-adv-x="430" d="M169 -88q-65 0 -114.5 27.5t-49.5 64.5q0 18 13.5 33t35.5 15q20 0 32.5 -11.5t12.5 -29.5q0 -14 -11 -28q26 -19 79 -19q37 0 61 15t24 42q0 23 -21.5 41t-52 31.5t-61.5 29t-52.5 41.5t-21.5 61q0 69 87 111q-30 30 -30 74q0 59 45 92t110 33q56 0 103 -23.5t47 -63.5 q0 -20 -12.5 -35t-36.5 -15q-19 0 -32 11.5t-13 28.5q0 13 11 30q-26 15 -67 15q-37 0 -60 -16.5t-23 -42.5q0 -24 21 -42t51 -30.5t60.5 -27t51.5 -40.5t21 -62q0 -72 -87 -112q33 -31 33 -77q0 -55 -43 -88t-111 -33zM248 141q56 25 56 66q0 19 -13.5 34.5t-27.5 23 t-44.5 21t-43.5 20.5q-60 -26 -60 -65q0 -18 13.5 -33.5t29 -23.5t46 -21.5t44.5 -21.5z" />
<glyph unicode="&#xa8;" horiz-adv-x="415" d="M117 509q-22 0 -37.5 15.5t-15.5 37.5t15.5 37.5t37.5 15.5t37.5 -15.5t15.5 -37.5t-15.5 -37.5t-37.5 -15.5zM299 509q-22 0 -37.5 15.5t-15.5 37.5t15.5 37.5t37.5 15.5t37.5 -15.5t15.5 -37.5t-15.5 -37.5t-37.5 -15.5z" />
<glyph unicode="&#xa9;" horiz-adv-x="723" d="M363 -53q-131 0 -224 93t-93 224t93 224t224 93t224 -93t93 -224t-93 -224t-224 -93zM363 -13q115 0 196 81t81 196t-81 196t-196 81t-196 -81t-81 -196t81 -196t196 -81zM370 83q-80 0 -130 49t-50 132t50.5 132.5t133.5 49.5q59 0 120 -26v-98h-54v64q-28 10 -62 10 q-58 0 -92 -34.5t-34 -93.5q0 -60 33 -97t92 -37q57 0 116 34v-54q-53 -31 -123 -31z" />
<glyph unicode="&#xaa;" horiz-adv-x="367" d="M40 202l7 43h276l-8 -43h-275zM142 295q-36 0 -59 19t-23 58q0 50 40.5 74t104.5 24h55l4 22q5 29 -6.5 41.5t-45.5 12.5q-42 0 -102 -20l9 51q54 19 106 19q57 0 85 -24.5t19 -78.5l-25 -140h41l-9 -51h-102l7 34q-52 -41 -99 -41zM163 341q39 0 82 41l8 47h-50 q-78 0 -78 -53q0 -35 38 -35z" />
<glyph unicode="&#xab;" horiz-adv-x="539" d="M152 75l-119 182l1 4l183 181h100l-196 -191l120 -176h-89zM376 75l-119 182l1 4l183 181h101l-197 -191l120 -176h-89z" />
<glyph unicode="&#xac;" horiz-adv-x="505" d="M358 132l25 144h-322l11 57h382l-36 -201h-60z" />
<glyph unicode="&#xad;" horiz-adv-x="387" d="M46 195l13 74h274l-13 -74h-274z" />
<glyph unicode="&#xae;" horiz-adv-x="419" d="M238 260q-70 0 -118.5 49t-48.5 118q0 70 48.5 118.5t118.5 48.5q69 0 118 -48.5t49 -118.5q0 -69 -49 -118t-118 -49zM238 288q58 0 99 40.5t41 98.5t-41 99.5t-99 41.5t-99 -41.5t-41 -99.5t41 -98.5t99 -40.5zM160 348v23h24v112h-24v24h86q30 0 47 -14t17 -35 q0 -35 -35 -45l25 -42h24v-23h-45l-34 59h-30v-36h24v-23h-79zM215 431h30q33 0 33 27q0 25 -33 25h-30v-52z" />
<glyph unicode="&#xaf;" horiz-adv-x="411" d="M65 522l12 65h270l-11 -65h-271z" />
<glyph unicode="&#xb0;" horiz-adv-x="371" d="M212 348q-58 0 -97 38t-39 96q0 67 49.5 114.5t116.5 47.5q58 0 97 -37t39 -95q0 -67 -49.5 -115.5t-116.5 -48.5zM213 402q44 0 76 32.5t32 75.5q0 35 -22 58t-57 23q-44 0 -76.5 -32.5t-32.5 -74.5q0 -34 21.5 -58t58.5 -24z" />
<glyph unicode="&#xb1;" horiz-adv-x="530" d="M208 137l25 142h-172l12 64h172l25 144h69l-24 -144h173l-12 -64h-173l-25 -142h-70zM16 24l12 65h415l-12 -65h-415z" />
<glyph unicode="&#xb2;" horiz-adv-x="388" d="M85 399l-12 43q12 8 46.5 29.5t58 36.5t55.5 39.5t51.5 44.5t34 45.5t14.5 49.5q0 55 -67 55q-34 0 -64 -14q3 -6 3 -17q0 -19 -12 -30.5t-32 -11.5q-19 0 -30 10.5t-11 27.5q0 35 45.5 61.5t108.5 26.5q59 0 95.5 -26.5t36.5 -78.5q0 -67 -60 -124t-157 -110h191 l-11 -57h-284z" />
<glyph unicode="&#xb3;" horiz-adv-x="364" d="M208 391q-54 0 -97.5 20t-43.5 54q0 18 12.5 31.5t34.5 13.5q18 0 28.5 -10t10.5 -25q0 -9 -5 -19q24 -12 59 -12q42 0 66.5 20.5t24.5 51.5q0 58 -88 58h-32l10 52h29q45 0 72.5 17.5t27.5 49.5q0 49 -63 49q-26 0 -56 -10q3 -12 3 -14q0 -18 -12.5 -29t-32.5 -11 q-19 0 -30 10t-11 27q0 35 44 57.5t102 22.5q61 0 95.5 -26.5t34.5 -70.5q0 -36 -24 -61t-67 -36q71 -20 71 -85q0 -55 -46 -90t-117 -35z" />
<glyph unicode="&#xb4;" horiz-adv-x="335" d="M84 504l-28 35l171 156l50 -63z" />
<glyph unicode="&#xb5;" horiz-adv-x="597" d="M26 -199l99 558h-74l12 69h159l-52 -289q-14 -81 49 -81q59 0 151 81l52 289h85l-58 -329q-9 -47 33 -47q21 0 52 11l-11 -62q-35 -11 -70 -11q-44 0 -66 20.5t-24 56.5q-92 -78 -172 -78q-35 0 -54 18l-26 -206h-85z" />
<glyph unicode="&#xb6;" horiz-adv-x="591" d="M112 -76l9 50h100l30 174h-44q-70 0 -118 45t-48 115q0 86 69.5 151t162.5 65h321l-9 -51h-85l-88 -499h85l-9 -50h-376zM281 -26h71l88 499h-71z" />
<glyph unicode="&#xb7;" horiz-adv-x="222" d="M110 193q-24 0 -41 17t-17 41t17 41t41 17q23 0 40.5 -17t17.5 -41t-17.5 -41t-40.5 -17z" />
<glyph unicode="&#xb8;" horiz-adv-x="298" d="M114 -202q-49 0 -86 15l15 49q35 -14 67 -14q53 0 53 32q0 37 -72 37l5 20l68 100l42 -12l-40 -73q72 -11 72 -71q0 -41 -34.5 -62t-89.5 -21z" />
<glyph unicode="&#xb9;" horiz-adv-x="312" d="M78 399l10 58h88l47 267q-43 -29 -73 -29q-21 0 -29 13.5t-1 34.5l122 44h64l-59 -330h72l-11 -58h-230z" />
<glyph unicode="&#xba;" horiz-adv-x="371" d="M39 202l7 43h273l-7 -43h-273zM199 295q-63 0 -98 33t-35 95q0 74 47.5 123.5t126.5 49.5q62 0 96.5 -33t34.5 -96q0 -74 -46 -123t-126 -49zM202 344q46 0 73 36t27 87q0 80 -67 80q-46 0 -73.5 -36.5t-27.5 -87.5q0 -79 68 -79z" />
<glyph unicode="&#xbb;" horiz-adv-x="541" d="M225 75l196 192l-120 175h89l120 -181l-1 -4l-183 -182h-101zM1 75l196 192l-120 175h89l119 -181l-1 -4l-183 -182h-100z" />
<glyph unicode="&#xbc;" horiz-adv-x="776" d="M50 248l9 53h81l44 250q-39 -29 -67 -29q-19 0 -27 13t-1 33l113 41h58l-55 -308h67l-10 -53h-212zM527 0l8 46h65l9 47h-167l-11 39q51 51 95.5 117.5t59.5 116.5q50 10 50 -25q0 -34 -42.5 -96.5t-86.5 -102.5h114l7 38q33 42 46 70h25l-19 -108h48l-8 -49h-47l-9 -47 h46l-8 -46h-175zM204 -15l-40 27l453 611l40 -26z" />
<glyph unicode="&#xbd;" horiz-adv-x="812" d="M474 0l-13 40q7 5 53 33t68 44t55.5 44t49 55t15.5 53q0 49 -62 49q-31 0 -59 -13q3 -6 3 -15q0 -18 -11 -29t-30 -11q-17 0 -27.5 10t-10.5 26q0 32 42 57t101 25q55 0 88.5 -24.5t33.5 -72.5q0 -111 -197 -218h173l-10 -53h-262zM48 248l9 53h80l44 250 q-37 -29 -66 -29q-19 0 -27 13t-1 33l112 41h58l-54 -308h67l-10 -53h-212zM199 -15l-41 27l454 611l40 -26z" />
<glyph unicode="&#xbe;" horiz-adv-x="799" d="M178 241q-50 0 -90.5 18.5t-40.5 50.5q0 17 12 29.5t31 12.5q16 0 26 -9t10 -23q0 -6 -5 -18q24 -10 55 -10q40 0 62.5 18t22.5 47q0 51 -82 51h-29l8 51h27q42 0 67.5 17t25.5 45q0 46 -60 46q-28 0 -50 -9q3 -6 3 -13q0 -16 -12 -27t-30 -11t-28.5 10.5t-10.5 26.5 q0 31 41.5 52t95.5 21q55 0 89 -24.5t34 -66.5q0 -33 -22 -57t-61 -33q64 -18 64 -78q0 -51 -43 -84t-110 -33zM550 0l8 46h65l9 47h-167l-11 39q52 52 96 118t58 116q51 10 51 -25q0 -34 -42.5 -96.5t-86.5 -102.5h114l7 38q33 42 46 70h25l-20 -108h49l-8 -49h-47l-9 -47 h46l-8 -46h-175zM227 -15l-41 27l454 611l40 -26z" />
<glyph unicode="&#xbf;" horiz-adv-x="370" d="M140 -192q-72 0 -115.5 34t-43.5 96q0 36 15.5 68t38.5 54.5t49.5 47t49 45.5t36 50t11.5 60h77q4 -44 -14.5 -82.5t-47 -66t-57.5 -53t-50 -56t-21 -62.5q0 -69 88 -69q47 0 122 23l-12 -67q-68 -22 -126 -22zM231 323q-24 0 -41 17t-17 41t17 41t41 17q23 0 40 -17 t17 -41t-17 -41t-40 -17z" />
<glyph unicode="&#xc0;" horiz-adv-x="681" d="M-45 0l13 71h78l269 467h-87l12 71h218l121 -538h79l-13 -71h-256l12 71h90l-26 117h-260l-66 -117h90l-13 -71h-261zM245 259h206l-56 265zM437 666l-164 130l57 61l139 -157z" />
<glyph unicode="&#xc1;" horiz-adv-x="681" d="M-45 0l13 71h78l269 467h-87l12 71h218l121 -538h79l-13 -71h-256l12 71h90l-26 117h-260l-66 -117h90l-13 -71h-261zM245 259h206l-56 265zM358 666l-28 34l171 157l50 -64z" />
<glyph unicode="&#xc2;" horiz-adv-x="681" d="M-45 0l13 71h78l269 467h-87l12 71h218l121 -538h79l-13 -71h-256l12 71h90l-26 117h-260l-66 -117h90l-13 -71h-261zM245 259h206l-56 265zM252 666l-18 26l162 134h55l107 -134l-23 -26l-125 77z" />
<glyph unicode="&#xc3;" horiz-adv-x="681" d="M-45 0l13 71h78l269 467h-87l12 71h218l121 -538h79l-13 -71h-256l12 71h90l-26 117h-260l-66 -117h90l-13 -71h-261zM245 259h206l-56 265zM260 670l-31 18q52 107 119 107q26 0 68.5 -25.5t65.5 -25.5q38 0 72 53l31 -19q-55 -107 -121 -107q-25 0 -68.5 26t-64.5 26 q-34 0 -71 -53z" />
<glyph unicode="&#xc4;" horiz-adv-x="681" d="M-45 0l13 71h78l269 467h-87l12 71h218l121 -538h79l-13 -71h-256l12 71h90l-26 117h-260l-66 -117h90l-13 -71h-261zM245 259h206l-56 265zM318 671q-22 0 -37.5 15.5t-15.5 37.5t15.5 37.5t37.5 15.5t37.5 -15.5t15.5 -37.5t-15.5 -37.5t-37.5 -15.5zM502 671 q-22 0 -37.5 15.5t-15.5 37.5t15.5 37.5t37.5 15.5t37.5 -15.5t15.5 -37.5t-15.5 -37.5t-37.5 -15.5z" />
<glyph unicode="&#xc5;" horiz-adv-x="681" d="M-45 0l13 71h78l269 467h-87l12 71h218l121 -538h79l-13 -71h-256l12 71h90l-26 117h-260l-66 -117h90l-13 -71h-261zM245 259h206l-56 265zM409 659q-51 0 -79 26t-28 69q0 48 35 84t96 36q50 0 77.5 -26t27.5 -68q0 -49 -34.5 -85t-94.5 -36zM412 709q27 0 44 20.5 t17 47.5q0 21 -11 34t-33 13q-27 0 -44 -20.5t-17 -47.5q0 -47 44 -47z" />
<glyph unicode="&#xc6;" horiz-adv-x="948" d="M-49 0l12 70h78l395 469h-84l11 70h597l-29 -171h-82l18 100h-230l-35 -196h247l-12 -71h-247l-35 -200h231l20 103h82l-32 -174h-489l12 71h90l21 122h-247l-103 -123h84l-12 -70h-261zM300 263h202l49 275h-23z" />
<glyph unicode="&#xc7;" horiz-adv-x="611" d="M271 -203q-50 0 -87 15l15 49q35 -14 68 -14q53 0 53 32q0 38 -72 38l5 19l36 55q-111 12 -177.5 83t-66.5 191q0 148 100.5 252t262.5 104q112 0 217 -48l-26 -157h-82l20 112q-65 21 -128 21q-122 0 -198 -81.5t-76 -200.5q0 -102 58 -153t148 -51q106 0 216 63 l-14 -86q-92 -48 -200 -52l-20 -37q73 -11 73 -71q0 -41 -35 -62t-90 -21z" />
<glyph unicode="&#xc8;" horiz-adv-x="578" d="M-6 0l12 71h89l83 467h-90l13 71h490l-30 -171h-82l18 100h-231l-34 -196h248l-12 -71h-249l-35 -200h233l18 103h82l-30 -174h-493zM409 666l-164 130l56 61l140 -157z" />
<glyph unicode="&#xc9;" horiz-adv-x="578" d="M-6 0l12 71h89l83 467h-90l13 71h490l-30 -171h-82l18 100h-231l-34 -196h248l-12 -71h-249l-35 -200h233l18 103h82l-30 -174h-493zM318 666l-27 34l171 157l49 -64z" />
<glyph unicode="&#xca;" horiz-adv-x="578" d="M-6 0l12 71h89l83 467h-90l13 71h490l-30 -171h-82l18 100h-231l-34 -196h248l-12 -71h-249l-35 -200h233l18 103h82l-30 -174h-493zM224 666l-18 26l162 134h55l107 -134l-23 -26l-125 77z" />
<glyph unicode="&#xcb;" horiz-adv-x="578" d="M-6 0l12 71h89l83 467h-90l13 71h490l-30 -171h-82l18 100h-231l-34 -196h248l-12 -71h-249l-35 -200h233l18 103h82l-30 -174h-493zM278 671q-23 0 -38.5 15.5t-15.5 37.5t16 37.5t38 15.5t37.5 -15.5t15.5 -37.5t-15.5 -37.5t-37.5 -15.5zM462 671q-22 0 -37.5 15.5 t-15.5 37.5t15.5 37.5t37.5 15.5t37.5 -15.5t15.5 -37.5t-15.5 -37.5t-37.5 -15.5z" />
<glyph unicode="&#xcc;" horiz-adv-x="344" d="M-6 0l12 71h89l83 467h-90l13 71h267l-13 -71h-89l-82 -467h89l-12 -71h-267zM296 666l-164 130l57 61l140 -157z" />
<glyph unicode="&#xcd;" horiz-adv-x="344" d="M-6 0l12 71h89l83 467h-90l13 71h267l-13 -71h-89l-82 -467h89l-12 -71h-267zM201 666l-27 34l171 157l49 -64z" />
<glyph unicode="&#xce;" horiz-adv-x="344" d="M-6 0l12 71h89l83 467h-90l13 71h267l-13 -71h-89l-82 -467h89l-12 -71h-267zM106 666l-18 26l162 134h55l107 -134l-23 -26l-126 77z" />
<glyph unicode="&#xcf;" horiz-adv-x="344" d="M-6 0l12 71h89l83 467h-90l13 71h267l-13 -71h-89l-82 -467h89l-12 -71h-267zM160 671q-22 0 -37.5 15.5t-15.5 37.5t15.5 37.5t37.5 15.5t37.5 -15.5t15.5 -37.5t-15.5 -37.5t-37.5 -15.5zM344 671q-22 0 -37.5 15.5t-15.5 37.5t15.5 37.5t37.5 15.5t37.5 -15.5 t15.5 -37.5t-15.5 -37.5t-37.5 -15.5z" />
<glyph unicode="&#xd0;" horiz-adv-x="685" d="M51 271l12 72h81l34 195h-89l12 71h274q133 0 207 -67t74 -195q0 -151 -100.5 -249t-274.5 -98h-287l13 71h89l35 200h-80zM184 71h102q129 0 204 76.5t75 197.5q0 193 -197 193h-101l-35 -195h169l-12 -72h-170z" />
<glyph unicode="&#xd1;" horiz-adv-x="744" d="M-6 0l12 71h89l83 467h-90l13 71h175l247 -473l71 402h-89l12 71h262l-12 -71h-89l-95 -538h-79l-252 481l-73 -410h90l-13 -71h-262zM308 670l-32 18q55 107 119 107q27 0 69 -25.5t66 -25.5q37 0 71 53l31 -19q-55 -107 -120 -107q-26 0 -69.5 26t-64.5 26 q-35 0 -70 -53z" />
<glyph unicode="&#xd2;" horiz-adv-x="708" d="M323 -12q-128 0 -202.5 74.5t-74.5 200.5q0 149 100 253.5t255 104.5q129 0 204 -74.5t75 -200.5q0 -150 -100 -254t-257 -104zM325 62q111 0 187.5 80t76.5 201q0 96 -51 150t-139 54q-111 0 -187 -81t-76 -201q0 -96 50.5 -149.5t138.5 -53.5zM457 669l-164 131l57 60 l140 -157z" />
<glyph unicode="&#xd3;" horiz-adv-x="708" d="M323 -12q-128 0 -202.5 74.5t-74.5 200.5q0 149 100 253.5t255 104.5q129 0 204 -74.5t75 -200.5q0 -150 -100 -254t-257 -104zM325 62q111 0 187.5 80t76.5 201q0 96 -51 150t-139 54q-111 0 -187 -81t-76 -201q0 -96 50.5 -149.5t138.5 -53.5zM382 669l-28 35l171 156 l50 -64z" />
<glyph unicode="&#xd4;" horiz-adv-x="708" d="M323 -12q-128 0 -202.5 74.5t-74.5 200.5q0 149 100 253.5t255 104.5q129 0 204 -74.5t75 -200.5q0 -150 -100 -254t-257 -104zM325 62q111 0 187.5 80t76.5 201q0 96 -51 150t-139 54q-111 0 -187 -81t-76 -201q0 -96 50.5 -149.5t138.5 -53.5zM281 669l-18 26l162 134 h55l107 -134l-23 -26l-125 77z" />
<glyph unicode="&#xd5;" horiz-adv-x="708" d="M323 -12q-128 0 -202.5 74.5t-74.5 200.5q0 149 100 253.5t255 104.5q129 0 204 -74.5t75 -200.5q0 -150 -100 -254t-257 -104zM325 62q111 0 187.5 80t76.5 201q0 96 -51 150t-139 54q-111 0 -187 -81t-76 -201q0 -96 50.5 -149.5t138.5 -53.5zM284 673l-32 18 q55 107 119 107q27 0 69 -25.5t66 -25.5q23 0 38.5 13.5t32.5 39.5l32 -19q-58 -107 -121 -107q-26 0 -69.5 26t-64.5 26q-35 0 -70 -53z" />
<glyph unicode="&#xd6;" horiz-adv-x="708" d="M323 -12q-128 0 -202.5 74.5t-74.5 200.5q0 149 100 253.5t255 104.5q129 0 204 -74.5t75 -200.5q0 -150 -100 -254t-257 -104zM325 62q111 0 187.5 80t76.5 201q0 96 -51 150t-139 54q-111 0 -187 -81t-76 -201q0 -96 50.5 -149.5t138.5 -53.5zM338 674 q-22 0 -37.5 15.5t-15.5 37.5t15.5 37.5t37.5 15.5t37.5 -15.5t15.5 -37.5q0 -23 -15.5 -38t-37.5 -15zM522 674q-22 0 -37.5 15.5t-15.5 37.5t15.5 37.5t37.5 15.5t38 -15.5t16 -37.5t-15.5 -37.5t-38.5 -15.5z" />
<glyph unicode="&#xd7;" horiz-adv-x="482" d="M54 39l-42 51l176 150l-122 148l56 48l122 -149l178 152l43 -51l-178 -151l125 -151l-56 -47l-125 151z" />
<glyph unicode="&#xd8;" horiz-adv-x="706" d="M321 -12q-113 0 -187 61l-68 -69l-29 27l69 69q-62 71 -62 186q0 148 100.5 253.5t255.5 105.5q114 0 188 -62l69 70l29 -26l-70 -70q63 -74 63 -187q0 -148 -101 -253t-257 -105zM324 62q110 0 187 81.5t77 200.5q0 77 -34 126l-361 -362q51 -46 131 -46zM398 547 q-111 0 -187 -82t-76 -201q0 -74 33 -126l360 362q-52 47 -130 47z" />
<glyph unicode="&#xd9;" horiz-adv-x="688" d="M310 -12q-113 0 -172 65.5t-39 178.5l54 306h-89l12 71h267l-12 -71h-90l-57 -322q-13 -72 21.5 -111t104.5 -39q69 0 117.5 38t60.5 111l58 323h-92l12 71h265l-12 -71h-90l-57 -325q-19 -108 -88.5 -166.5t-173.5 -58.5zM449 666l-164 130l57 61l140 -157z" />
<glyph unicode="&#xda;" horiz-adv-x="688" d="M310 -12q-113 0 -172 65.5t-39 178.5l54 306h-89l12 71h267l-12 -71h-90l-57 -322q-13 -72 21.5 -111t104.5 -39q69 0 117.5 38t60.5 111l58 323h-92l12 71h265l-12 -71h-90l-57 -325q-19 -108 -88.5 -166.5t-173.5 -58.5zM377 666l-28 34l171 157l50 -64z" />
<glyph unicode="&#xdb;" horiz-adv-x="688" d="M310 -12q-113 0 -172 65.5t-39 178.5l54 306h-89l12 71h267l-12 -71h-90l-57 -322q-13 -72 21.5 -111t104.5 -39q69 0 117.5 38t60.5 111l58 323h-92l12 71h265l-12 -71h-90l-57 -325q-19 -108 -88.5 -166.5t-173.5 -58.5zM270 666l-18 26l162 134h55l107 -134l-23 -26 l-126 77z" />
<glyph unicode="&#xdc;" horiz-adv-x="688" d="M310 -12q-113 0 -172 65.5t-39 178.5l54 306h-89l12 71h267l-12 -71h-90l-57 -322q-13 -72 21.5 -111t104.5 -39q69 0 117.5 38t60.5 111l58 323h-92l12 71h265l-12 -71h-90l-57 -325q-19 -108 -88.5 -166.5t-173.5 -58.5zM329 671q-22 0 -37.5 15.5t-15.5 37.5 t15.5 37.5t37.5 15.5t37.5 -15.5t15.5 -37.5t-15 -37.5t-38 -15.5zM513 671q-22 0 -37.5 15.5t-15.5 37.5t15.5 37.5t37.5 15.5t38 -15.5t16 -37.5t-15.5 -37.5t-38.5 -15.5z" />
<glyph unicode="&#xdd;" horiz-adv-x="629" d="M131 0l13 71h92l26 148l-143 319h-78l13 71h262l-13 -70h-94l105 -241l190 241h-93l12 70h269l-12 -71h-76l-253 -316l-27 -151h92l-13 -71h-272zM345 666l-28 34l171 157l50 -64z" />
<glyph unicode="&#xde;" horiz-adv-x="571" d="M-6 0l13 69h85l83 471h-85l11 69h277l-11 -67h-104l-10 -58h80q104 0 163.5 -41t59.5 -122q0 -89 -71 -139.5t-198 -50.5h-97l-11 -64h104l-12 -67h-277zM203 201h90q86 0 129.5 32t43.5 88q0 94 -135 94h-90z" />
<glyph unicode="&#xdf;" horiz-adv-x="546" d="M-40 -210q-34 0 -66 7l13 67q24 -6 47 -6q66 0 78 71l76 429h-84l12 70h84l16 95q15 89 71 142t149 53q76 0 121.5 -35.5t45.5 -102.5q0 -39 -17.5 -74t-38.5 -56t-38.5 -47.5t-17.5 -51.5q0 -27 20.5 -59t41.5 -71t21 -83q0 -69 -48 -107.5t-134 -38.5q-62 0 -109 16 l12 66q46 -16 94 -16q99 0 99 79q0 33 -21 68.5t-42 72.5t-21 75q0 35 17.5 66.5t39 51t39 48.5t17.5 60q0 72 -82 72q-62 0 -93 -40t-41 -94l-103 -585q-25 -142 -158 -142z" />
<glyph unicode="&#xe0;" d="M190 -11q-72 0 -118.5 51.5t-46.5 143.5q0 111 66 183t158 72q95 0 135 -81l13 70h85l-57 -326q-9 -46 33 -46q21 0 52 11l-12 -66q-35 -11 -68 -11q-84 0 -87 76q-62 -77 -153 -77zM217 55q64 0 107.5 56t43.5 133q0 59 -27 94t-77 35q-64 0 -107.5 -54.5t-43.5 -133.5 q0 -61 28 -95.5t76 -34.5zM334 505l-163 130l56 61l139 -157z" />
<glyph unicode="&#xe1;" d="M190 -11q-72 0 -118.5 51.5t-46.5 143.5q0 111 66 183t158 72q95 0 135 -81l13 70h85l-57 -326q-9 -46 33 -46q21 0 52 11l-12 -66q-35 -11 -68 -11q-84 0 -87 76q-62 -77 -153 -77zM217 55q64 0 107.5 56t43.5 133q0 59 -27 94t-77 35q-64 0 -107.5 -54.5t-43.5 -133.5 q0 -61 28 -95.5t76 -34.5zM259 504l-27 35l171 156l50 -63z" />
<glyph unicode="&#xe2;" d="M190 -11q-72 0 -118.5 51.5t-46.5 143.5q0 111 66 183t158 72q95 0 135 -81l13 70h85l-57 -326q-9 -46 33 -46q21 0 52 11l-12 -66q-35 -11 -68 -11q-84 0 -87 76q-62 -77 -153 -77zM217 55q64 0 107.5 56t43.5 133q0 59 -27 94t-77 35q-64 0 -107.5 -54.5t-43.5 -133.5 q0 -61 28 -95.5t76 -34.5zM153 501l-18 27l161 133h55l106 -134l-22 -26l-125 78z" />
<glyph unicode="&#xe3;" d="M190 -11q-72 0 -118.5 51.5t-46.5 143.5q0 111 66 183t158 72q95 0 135 -81l13 70h85l-57 -326q-9 -46 33 -46q21 0 52 11l-12 -66q-35 -11 -68 -11q-84 0 -87 76q-62 -77 -153 -77zM217 55q64 0 107.5 56t43.5 133q0 59 -27 94t-77 35q-64 0 -107.5 -54.5t-43.5 -133.5 q0 -61 28 -95.5t76 -34.5zM164 508l-32 18q55 107 119 107q27 0 68 -25.5t64 -25.5t38.5 13.5t32.5 39.5l31 -19q-55 -107 -120 -107q-26 0 -68 26t-63 26q-35 0 -70 -53z" />
<glyph unicode="&#xe4;" d="M190 -11q-72 0 -118.5 51.5t-46.5 143.5q0 111 66 183t158 72q95 0 135 -81l13 70h85l-57 -326q-9 -46 33 -46q21 0 52 11l-12 -66q-35 -11 -68 -11q-84 0 -87 76q-62 -77 -153 -77zM217 55q64 0 107.5 56t43.5 133q0 59 -27 94t-77 35q-64 0 -107.5 -54.5t-43.5 -133.5 q0 -61 28 -95.5t76 -34.5zM211 509q-22 0 -37.5 15.5t-15.5 37.5t15.5 37.5t37.5 15.5t37.5 -15.5t15.5 -37.5t-15.5 -37.5t-37.5 -15.5zM393 509q-22 0 -37.5 15.5t-15.5 37.5t15.5 37.5t37.5 15.5t37.5 -15.5t15.5 -37.5t-15.5 -37.5t-37.5 -15.5z" />
<glyph unicode="&#xe5;" d="M190 -11q-72 0 -118.5 51.5t-46.5 143.5q0 111 66 183t158 72q95 0 135 -81l13 70h85l-57 -326q-9 -46 33 -46q21 0 52 11l-12 -66q-35 -11 -68 -11q-84 0 -87 76q-62 -77 -153 -77zM217 55q64 0 107.5 56t43.5 133q0 59 -27 94t-77 35q-64 0 -107.5 -54.5t-43.5 -133.5 q0 -61 28 -95.5t76 -34.5zM302 500q-50 0 -78 26t-28 69q0 48 35 84t95 36q50 0 78 -26t28 -68q0 -49 -35 -85t-95 -36zM305 550q27 0 44 20.5t17 47.5q0 47 -44 47q-27 0 -44 -20.5t-17 -47.5q0 -47 44 -47z" />
<glyph unicode="&#xe6;" horiz-adv-x="691" d="M132 -11q-58 0 -94 30t-36 86q0 140 231 140h65l7 37q8 47 -11 68.5t-74 21.5q-66 0 -148 -26l12 67q80 26 153 26q115 0 132 -81q64 81 165 81q62 0 93.5 -30.5t31.5 -78.5q0 -140 -284 -147q0 -127 119 -127q61 0 137 36l-13 -71q-62 -32 -136 -32q-111 0 -162 73 q-97 -73 -188 -73zM155 54q64 0 142 57q-10 33 -8 75h-49q-46 0 -76.5 -5t-53 -22.5t-22.5 -48.5q0 -56 67 -56zM526 375q-51 0 -90.5 -36t-53.5 -94q200 4 200 85q0 45 -56 45z" />
<glyph unicode="&#xe7;" horiz-adv-x="409" d="M152 -202q-49 0 -86 15l15 49q35 -14 67 -14q53 0 53 32q0 37 -72 37l5 20l38 56q-70 11 -108.5 60.5t-38.5 129.5q0 107 65.5 181.5t180.5 74.5q70 0 130 -25l-13 -65q-54 24 -108 24q-79 0 -123 -54t-44 -131q0 -63 32 -98t95 -35q58 0 114 22l-12 -69 q-55 -18 -117 -19l-21 -37q72 -11 72 -71q0 -41 -34.5 -62t-89.5 -21z" />
<glyph unicode="&#xe8;" horiz-adv-x="427" d="M218 -11q-87 0 -140.5 48.5t-53.5 143.5q0 111 70 184.5t171 73.5q63 0 97 -30t34 -79q0 -42 -24.5 -73t-67 -49t-90.5 -27t-105 -12q7 -113 120 -113q60 0 138 36l-14 -71q-60 -32 -135 -32zM113 233q55 2 98.5 11.5t74.5 31t31 52.5q0 47 -56 47q-53 0 -93.5 -39.5 t-54.5 -102.5zM303 505l-163 130l56 61l139 -157z" />
<glyph unicode="&#xe9;" horiz-adv-x="427" d="M218 -11q-87 0 -140.5 48.5t-53.5 143.5q0 111 70 184.5t171 73.5q63 0 97 -30t34 -79q0 -42 -24.5 -73t-67 -49t-90.5 -27t-105 -12q7 -113 120 -113q60 0 138 36l-14 -71q-60 -32 -135 -32zM113 233q55 2 98.5 11.5t74.5 31t31 52.5q0 47 -56 47q-53 0 -93.5 -39.5 t-54.5 -102.5zM224 504l-27 35l170 156l50 -63z" />
<glyph unicode="&#xea;" horiz-adv-x="427" d="M218 -11q-87 0 -140.5 48.5t-53.5 143.5q0 111 70 184.5t171 73.5q63 0 97 -30t34 -79q0 -42 -24.5 -73t-67 -49t-90.5 -27t-105 -12q7 -113 120 -113q60 0 138 36l-14 -71q-60 -32 -135 -32zM113 233q55 2 98.5 11.5t74.5 31t31 52.5q0 47 -56 47q-53 0 -93.5 -39.5 t-54.5 -102.5zM123 501l-18 27l161 133h55l106 -134l-22 -26l-125 78z" />
<glyph unicode="&#xeb;" horiz-adv-x="427" d="M218 -11q-87 0 -140.5 48.5t-53.5 143.5q0 111 70 184.5t171 73.5q63 0 97 -30t34 -79q0 -42 -24.5 -73t-67 -49t-90.5 -27t-105 -12q7 -113 120 -113q60 0 138 36l-14 -71q-60 -32 -135 -32zM113 233q55 2 98.5 11.5t74.5 31t31 52.5q0 47 -56 47q-53 0 -93.5 -39.5 t-54.5 -102.5zM181 509q-23 0 -38 15.5t-15 37.5t15.5 37.5t37.5 15.5t37 -15.5t15 -37.5t-15 -37.5t-37 -15.5zM363 509q-23 0 -38 15.5t-15 37.5t15.5 37.5t37.5 15.5t37.5 -15.5t15.5 -37.5t-15.5 -37.5t-37.5 -15.5z" />
<glyph unicode="&#xec;" horiz-adv-x="262" d="M147 -10q-109 0 -89 117l44 252h-75l12 69h161l-58 -326q-7 -46 33 -46q21 0 52 11l-11 -66q-35 -11 -69 -11zM202 505l-164 130l57 61l139 -157z" />
<glyph unicode="&#xed;" horiz-adv-x="262" d="M147 -10q-109 0 -89 117l44 252h-75l12 69h161l-58 -326q-7 -46 33 -46q21 0 52 11l-11 -66q-35 -11 -69 -11zM104 504l-27 35l170 156l50 -63z" />
<glyph unicode="&#xee;" horiz-adv-x="262" d="M147 -10q-109 0 -89 117l44 252h-75l12 69h161l-58 -326q-7 -46 33 -46q21 0 52 11l-11 -66q-35 -11 -69 -11zM1 501l-18 27l161 133h55l106 -134l-22 -26l-125 78z" />
<glyph unicode="&#xef;" horiz-adv-x="262" d="M147 -10q-109 0 -89 117l44 252h-75l12 69h161l-58 -326q-7 -46 33 -46q21 0 52 11l-11 -66q-35 -11 -69 -11zM64 509q-22 0 -37.5 15.5t-15.5 37.5t15.5 37.5t37.5 15.5t37.5 -15.5t15.5 -37.5t-15.5 -37.5t-37.5 -15.5zM246 509q-22 0 -37 15.5t-15 37.5t15 37.5 t37 15.5t37.5 -15.5t15.5 -37.5t-15.5 -37.5t-37.5 -15.5z" />
<glyph unicode="&#xf0;" horiz-adv-x="509" d="M212 -11q-88 0 -138 50.5t-50 136.5q0 103 67 174t163 71q86 0 131 -60q-7 121 -85 218l-119 -79l-19 34l112 75q-37 37 -79 66l53 49q55 -35 93 -73l95 63l20 -34l-88 -58q105 -126 105 -306q0 -158 -73.5 -242.5t-187.5 -84.5zM218 55q67 0 111 52.5t44 128.5 q0 57 -26.5 88.5t-77.5 31.5q-69 0 -112.5 -52.5t-43.5 -128.5q0 -57 27.5 -88.5t77.5 -31.5z" />
<glyph unicode="&#xf1;" horiz-adv-x="548" d="M43 0l64 359h-74l12 69h157l-12 -66q92 77 169 77q58 0 88.5 -39t18.5 -106l-34 -192q-9 -46 33 -46q21 0 52 11l-11 -66q-35 -11 -70 -11q-57 0 -77 32.5t-11 84.5l32 182q16 81 -49 81q-60 0 -151 -82l-51 -288h-86zM168 508l-31 18q55 107 119 107q26 0 67 -25.5 t65 -25.5q37 0 71 53l31 -19q-55 -107 -120 -107q-26 0 -68 26t-64 26q-33 0 -70 -53z" />
<glyph unicode="&#xf2;" horiz-adv-x="499" d="M215 -11q-88 0 -139.5 50.5t-51.5 142.5q0 108 67 182.5t178 74.5q88 0 139.5 -50.5t51.5 -142.5q0 -108 -67 -182.5t-178 -74.5zM217 55q68 0 111 57t43 134q0 58 -26.5 92t-77.5 34q-68 0 -111 -56.5t-43 -133.5q0 -59 26.5 -93t77.5 -34zM333 505l-163 130l56 61 l139 -157z" />
<glyph unicode="&#xf3;" horiz-adv-x="499" d="M215 -11q-88 0 -139.5 50.5t-51.5 142.5q0 108 67 182.5t178 74.5q88 0 139.5 -50.5t51.5 -142.5q0 -108 -67 -182.5t-178 -74.5zM217 55q68 0 111 57t43 134q0 58 -26.5 92t-77.5 34q-68 0 -111 -56.5t-43 -133.5q0 -59 26.5 -93t77.5 -34zM258 504l-27 35l170 156 l50 -63z" />
<glyph unicode="&#xf4;" horiz-adv-x="499" d="M215 -11q-88 0 -139.5 50.5t-51.5 142.5q0 108 67 182.5t178 74.5q88 0 139.5 -50.5t51.5 -142.5q0 -108 -67 -182.5t-178 -74.5zM217 55q68 0 111 57t43 134q0 58 -26.5 92t-77.5 34q-68 0 -111 -56.5t-43 -133.5q0 -59 26.5 -93t77.5 -34zM147 501l-18 27l161 133h55 l106 -134l-22 -26l-125 78z" />
<glyph unicode="&#xf5;" horiz-adv-x="499" d="M215 -11q-88 0 -139.5 50.5t-51.5 142.5q0 108 67 182.5t178 74.5q88 0 139.5 -50.5t51.5 -142.5q0 -108 -67 -182.5t-178 -74.5zM217 55q68 0 111 57t43 134q0 58 -26.5 92t-77.5 34q-68 0 -111 -56.5t-43 -133.5q0 -59 26.5 -93t77.5 -34zM154 508l-31 18 q52 107 118 107q27 0 68 -25.5t64 -25.5q38 0 72 53l31 -19q-58 -107 -121 -107q-26 0 -68 26t-63 26q-35 0 -70 -53z" />
<glyph unicode="&#xf6;" horiz-adv-x="499" d="M215 -11q-88 0 -139.5 50.5t-51.5 142.5q0 108 67 182.5t178 74.5q88 0 139.5 -50.5t51.5 -142.5q0 -108 -67 -182.5t-178 -74.5zM217 55q68 0 111 57t43 134q0 58 -26.5 92t-77.5 34q-68 0 -111 -56.5t-43 -133.5q0 -59 26.5 -93t77.5 -34zM211 509q-22 0 -37.5 15.5 t-15.5 37.5t15.5 37.5t37.5 15.5t37.5 -15.5t15.5 -37.5t-15.5 -37.5t-37.5 -15.5zM393 509q-22 0 -37.5 15.5t-15.5 37.5t15.5 37.5t37.5 15.5t37.5 -15.5t15.5 -37.5t-15 -37.5t-38 -15.5z" />
<glyph unicode="&#xf7;" horiz-adv-x="507" d="M38 208l11 63h415l-11 -63h-415zM223 29q-23 0 -39.5 16t-16.5 39t16.5 39.5t39.5 16.5t39 -16.5t16 -39.5t-16 -39t-39 -16zM278 339q-23 0 -39.5 16t-16.5 39t16.5 39.5t39.5 16.5t39 -16.5t16 -39.5t-16 -39t-39 -16z" />
<glyph unicode="&#xf8;" horiz-adv-x="499" d="M215 -11q-83 0 -132 43l-58 -55l-24 23l59 56q-36 48 -36 126q0 107 67.5 182t178.5 75q84 0 137 -48l54 52l23 -23l-56 -54q33 -49 33 -120q0 -108 -67.5 -182.5t-178.5 -74.5zM218 55q68 0 111 57t43 134q0 32 -9 56l-223 -214q28 -33 78 -33zM267 372 q-68 0 -111.5 -56.5t-43.5 -133.5q0 -37 12 -64l224 216q-28 38 -81 38z" />
<glyph unicode="&#xf9;" d="M167 -11q-58 0 -88.5 39t-18.5 106l40 225h-74l12 69h159l-51 -289q-16 -81 48 -81q59 0 151 81l52 289h85l-58 -329q-9 -47 34 -47q20 0 51 11l-11 -62q-35 -11 -69 -11q-86 0 -91 77q-90 -78 -171 -78zM341 505l-164 130l57 61l139 -157z" />
<glyph unicode="&#xfa;" d="M167 -11q-58 0 -88.5 39t-18.5 106l40 225h-74l12 69h159l-51 -289q-16 -81 48 -81q59 0 151 81l52 289h85l-58 -329q-9 -47 34 -47q20 0 51 11l-11 -62q-35 -11 -69 -11q-86 0 -91 77q-90 -78 -171 -78zM264 504l-27 35l170 156l50 -63z" />
<glyph unicode="&#xfb;" d="M167 -11q-58 0 -88.5 39t-18.5 106l40 225h-74l12 69h159l-51 -289q-16 -81 48 -81q59 0 151 81l52 289h85l-58 -329q-9 -47 34 -47q20 0 51 11l-11 -62q-35 -11 -69 -11q-86 0 -91 77q-90 -78 -171 -78zM161 501l-18 27l161 133h55l107 -134l-23 -26l-125 78z" />
<glyph unicode="&#xfc;" d="M167 -11q-58 0 -88.5 39t-18.5 106l40 225h-74l12 69h159l-51 -289q-16 -81 48 -81q59 0 151 81l52 289h85l-58 -329q-9 -47 34 -47q20 0 51 11l-11 -62q-35 -11 -69 -11q-86 0 -91 77q-90 -78 -171 -78zM220 509q-22 0 -37.5 15.5t-15.5 37.5t15.5 37.5t37.5 15.5 t37.5 -15.5t15.5 -37.5t-15.5 -37.5t-37.5 -15.5zM402 509q-22 0 -37.5 15.5t-15.5 37.5t15.5 37.5t37.5 15.5t37.5 -15.5t15.5 -37.5t-15.5 -37.5t-37.5 -15.5z" />
<glyph unicode="&#xfd;" horiz-adv-x="481" d="M130 0l-46 361h-70l12 67h134l50 -421q69 84 118 180.5t49 146.5q0 33 -28 33q-27 0 -60 -23l-26 51q54 43 112 43q43 0 64 -24.5t21 -66.5q0 -58 -42 -152t-105.5 -184t-148 -155.5t-159.5 -65.5q-67 0 -119 52l37 49q38 -32 79 -32q86 0 202 141h-74zM232 504l-27 35 l171 156l50 -63z" />
<glyph unicode="&#xfe;" horiz-adv-x="518" d="M254 -11q-94 0 -136 80l-47 -268h-86l148 838h-70l13 68h155l-60 -334q63 66 142 66q72 0 118.5 -51.5t46.5 -143.5q0 -112 -65.5 -183.5t-158.5 -71.5zM239 55q65 0 108 54.5t43 133.5q0 61 -28 95.5t-76 34.5q-64 0 -107.5 -56t-43.5 -134q0 -59 27.5 -93.5t76.5 -34.5 z" />
<glyph unicode="&#xff;" horiz-adv-x="481" d="M130 0l-46 361h-70l12 67h134l50 -421q69 84 118 180.5t49 146.5q0 33 -28 33q-27 0 -60 -23l-26 51q54 43 112 43q43 0 64 -24.5t21 -66.5q0 -58 -42 -152t-105.5 -184t-148 -155.5t-159.5 -65.5q-67 0 -119 52l37 49q38 -32 79 -32q86 0 202 141h-74zM364 509 q-22 0 -37.5 15.5t-15.5 37.5t15.5 37.5t37.5 15.5t37 -15.5t15 -37.5t-15 -37.5t-37 -15.5zM181 509q-22 0 -37 15.5t-15 37.5t15 37.5t37 15.5t37.5 -15.5t15.5 -37.5t-15 -37.5t-38 -15.5z" />
<glyph unicode="&#x100;" horiz-adv-x="681" d="M-45 0l13 71h78l269 467h-87l12 71h218l121 -538h79l-13 -71h-256l12 71h90l-26 117h-260l-66 -117h90l-13 -71h-261zM245 259h206l-56 265zM262 675l12 65h273l-12 -65h-273z" />
<glyph unicode="&#x101;" d="M190 -11q-72 0 -118.5 51.5t-46.5 143.5q0 111 66 183t158 72q95 0 135 -81l13 70h85l-57 -326q-9 -46 33 -46q21 0 52 11l-12 -66q-35 -11 -68 -11q-84 0 -87 76q-62 -77 -153 -77zM217 55q64 0 107.5 56t43.5 133q0 59 -27 94t-77 35q-64 0 -107.5 -54.5t-43.5 -133.5 q0 -61 28 -95.5t76 -34.5zM159 522l11 65h270l-11 -65h-270z" />
<glyph unicode="&#x102;" horiz-adv-x="681" d="M-45 0l13 71h78l269 467h-87l12 71h218l121 -538h79l-13 -71h-256l12 71h90l-26 117h-260l-66 -117h90l-13 -71h-261zM245 259h206l-56 265zM400 663q-69 0 -102 41t-25 103h64q-6 -76 69 -76q76 0 97 76h64q-14 -67 -58 -105.5t-109 -38.5z" />
<glyph unicode="&#x103;" d="M190 -11q-72 0 -118.5 51.5t-46.5 143.5q0 111 66 183t158 72q95 0 135 -81l13 70h85l-57 -326q-9 -46 33 -46q21 0 52 11l-12 -66q-35 -11 -68 -11q-84 0 -87 76q-62 -77 -153 -77zM217 55q64 0 107.5 56t43.5 133q0 59 -27 94t-77 35q-64 0 -107.5 -54.5t-43.5 -133.5 q0 -61 28 -95.5t76 -34.5zM301 509q-69 0 -101.5 40.5t-24.5 102.5h63q-5 -76 69 -76t97 76h63q-15 -66 -58 -104.5t-108 -38.5z" />
<glyph unicode="&#x104;" horiz-adv-x="681" d="M522 -203q-89 0 -89 74q0 71 89 129h-133l12 71h90l-26 117h-260l-66 -117h90l-13 -71h-261l13 71h78l269 467h-87l12 71h218l121 -538h79l-13 -71h-52q-84 -55 -84 -112q0 -36 41 -36q34 0 64 16l-4 -54q-47 -17 -88 -17zM245 259h206l-56 265z" />
<glyph unicode="&#x105;" d="M375 -202q-39 0 -63 18t-24 55q0 69 93 128q-36 17 -38 67q-62 -77 -153 -77q-72 0 -118.5 51.5t-46.5 143.5q0 111 66 183t158 72q95 0 135 -81l13 70h85l-57 -326q-9 -46 33 -46q21 0 52 11l-12 -66q-33 -10 -60 -11q-74 -56 -74 -102q0 -35 40 -35q32 0 64 15l-4 -52 q-44 -18 -89 -18zM217 55q64 0 107.5 56t43.5 133q0 59 -27 94t-77 35q-64 0 -107.5 -54.5t-43.5 -133.5q0 -61 28 -95.5t76 -34.5z" />
<glyph unicode="&#x106;" horiz-adv-x="611" d="M332 -12q-128 0 -207.5 73t-79.5 204q0 148 100.5 252t262.5 104q112 0 217 -48l-26 -157h-82l20 112q-65 21 -128 21q-122 0 -198 -81.5t-76 -200.5q0 -102 58 -153t148 -51q106 0 216 63l-14 -86q-100 -52 -211 -52zM382 669l-27 35l171 156l49 -64z" />
<glyph unicode="&#x107;" horiz-adv-x="409" d="M221 -11q-92 0 -144 50.5t-52 143.5q0 107 65.5 181.5t180.5 74.5q70 0 130 -25l-13 -65q-54 24 -108 24q-79 0 -123 -54t-44 -131q0 -63 32 -98t95 -35q58 0 114 22l-12 -69q-61 -19 -121 -19zM233 504l-27 35l170 156l50 -63z" />
<glyph unicode="&#x108;" horiz-adv-x="611" d="M332 -12q-128 0 -207.5 73t-79.5 204q0 148 100.5 252t262.5 104q112 0 217 -48l-26 -157h-82l20 112q-65 21 -128 21q-122 0 -198 -81.5t-76 -200.5q0 -102 58 -153t148 -51q106 0 216 63l-14 -86q-100 -52 -211 -52zM283 669l-18 26l162 134h55l107 -134l-23 -26 l-125 77z" />
<glyph unicode="&#x109;" horiz-adv-x="409" d="M221 -11q-92 0 -144 50.5t-52 143.5q0 107 65.5 181.5t180.5 74.5q70 0 130 -25l-13 -65q-54 24 -108 24q-79 0 -123 -54t-44 -131q0 -63 32 -98t95 -35q58 0 114 22l-12 -69q-61 -19 -121 -19zM135 501l-17 27l161 133h55l106 -134l-23 -26l-125 78z" />
<glyph unicode="&#x10a;" horiz-adv-x="611" d="M332 -12q-128 0 -207.5 73t-79.5 204q0 148 100.5 252t262.5 104q112 0 217 -48l-26 -157h-82l20 112q-65 21 -128 21q-122 0 -198 -81.5t-76 -200.5q0 -102 58 -153t148 -51q106 0 216 63l-14 -86q-100 -52 -211 -52zM438 672q-24 0 -41 17t-17 41q0 23 17 40t41 17 t41 -16.5t17 -40.5t-17 -41t-41 -17z" />
<glyph unicode="&#x10b;" horiz-adv-x="409" d="M221 -11q-92 0 -144 50.5t-52 143.5q0 107 65.5 181.5t180.5 74.5q70 0 130 -25l-13 -65q-54 24 -108 24q-79 0 -123 -54t-44 -131q0 -63 32 -98t95 -35q58 0 114 22l-12 -69q-61 -19 -121 -19zM299 509q-23 0 -40 17t-17 40t16.5 40t40.5 17t41 -16.5t17 -40.5 q0 -23 -17 -40t-41 -17z" />
<glyph unicode="&#x10c;" horiz-adv-x="611" d="M332 -12q-128 0 -207.5 73t-79.5 204q0 148 100.5 252t262.5 104q112 0 217 -48l-26 -157h-82l20 112q-65 21 -128 21q-122 0 -198 -81.5t-76 -200.5q0 -102 58 -153t148 -51q106 0 216 63l-14 -86q-100 -52 -211 -52zM401 670l-109 134l23 26l128 -78l155 78l19 -27 l-161 -133h-55z" />
<glyph unicode="&#x10d;" horiz-adv-x="409" d="M221 -11q-92 0 -144 50.5t-52 143.5q0 107 65.5 181.5t180.5 74.5q70 0 130 -25l-13 -65q-54 24 -108 24q-79 0 -123 -54t-44 -131q0 -63 32 -98t95 -35q58 0 114 22l-12 -69q-61 -19 -121 -19zM248 507l-107 134l22 26l127 -78l155 78l19 -26l-161 -134h-55z" />
<glyph unicode="&#x10e;" horiz-adv-x="684" d="M-6 0l12 71h89l83 467h-90l13 71h274q132 0 206 -67t74 -195q0 -152 -100 -249.5t-274 -97.5h-287zM184 71h101q129 0 204 76.5t75 197.5q0 193 -197 193h-101zM354 668l-109 134l23 26l128 -78l156 78l18 -27l-160 -133h-56z" />
<glyph unicode="&#x10f;" d="M637 715q26 0 39 -15.5t13 -40.5q0 -77 -115 -159l-33 29q66 66 66 112q0 35 -27 48l1 7q29 19 56 19zM190 -11q-72 0 -118.5 51.5t-46.5 143.5q0 111 66 183t158 72t135 -80l50 280h-88l12 68h173l-106 -605q-9 -46 33 -46q21 0 52 11l-12 -66q-35 -11 -69 -11 q-83 0 -86 76q-62 -77 -153 -77zM217 55q64 0 107.5 56t43.5 133q0 59 -27 94t-77 35q-64 0 -107.5 -54.5t-43.5 -133.5q0 -61 28 -95.5t76 -34.5z" />
<glyph unicode="&#x110;" horiz-adv-x="685" d="M51 271l12 72h81l34 195h-89l12 71h274q133 0 207 -67t74 -195q0 -151 -100.5 -249t-274.5 -98h-287l13 71h89l35 200h-80zM184 71h102q129 0 204 76.5t75 197.5q0 193 -197 193h-101l-35 -195h169l-12 -72h-170z" />
<glyph unicode="&#x111;" d="M259 509l10 58h151l14 72h-88l12 68h173l-24 -140h61l-10 -58h-62l-71 -407q-9 -46 33 -46q21 0 52 11l-12 -66q-35 -11 -69 -11q-83 0 -86 76q-62 -77 -153 -77q-72 0 -118.5 51.5t-46.5 143.5q0 111 66 183t158 72t135 -80l26 150h-151zM217 55q64 0 107.5 56t43.5 133 q0 59 -27 94t-77 35q-64 0 -107.5 -54.5t-43.5 -133.5q0 -61 28 -95.5t76 -34.5z" />
<glyph unicode="&#x112;" horiz-adv-x="578" d="M-6 0l12 71h89l83 467h-90l13 71h490l-30 -171h-82l18 100h-231l-34 -196h248l-12 -71h-249l-35 -200h233l18 103h82l-30 -174h-493zM224 675l12 65h272l-12 -65h-272z" />
<glyph unicode="&#x113;" horiz-adv-x="427" d="M218 -11q-87 0 -140.5 48.5t-53.5 143.5q0 111 70 184.5t171 73.5q63 0 97 -30t34 -79q0 -42 -24.5 -73t-67 -49t-90.5 -27t-105 -12q7 -113 120 -113q60 0 138 36l-14 -71q-60 -32 -135 -32zM113 233q55 2 98.5 11.5t74.5 31t31 52.5q0 47 -56 47q-53 0 -93.5 -39.5 t-54.5 -102.5zM131 522l11 65h271l-12 -65h-270z" />
<glyph unicode="&#x114;" horiz-adv-x="578" d="M-6 0l12 71h89l83 467h-90l13 71h490l-30 -171h-82l18 100h-231l-34 -196h248l-12 -71h-249l-35 -200h233l18 103h82l-30 -174h-493zM361 663q-68 0 -101 41t-25 103h63q-4 -76 70 -76q76 0 97 76h64q-14 -67 -58.5 -105.5t-109.5 -38.5z" />
<glyph unicode="&#x115;" horiz-adv-x="427" d="M218 -11q-87 0 -140.5 48.5t-53.5 143.5q0 111 70 184.5t171 73.5q63 0 97 -30t34 -79q0 -42 -24.5 -73t-67 -49t-90.5 -27t-105 -12q7 -113 120 -113q60 0 138 36l-14 -71q-60 -32 -135 -32zM113 233q55 2 98.5 11.5t74.5 31t31 52.5q0 47 -56 47q-53 0 -93.5 -39.5 t-54.5 -102.5zM271 509q-69 0 -101.5 40.5t-24.5 102.5h63q-5 -76 69 -76t97 76h63q-15 -66 -58 -104.5t-108 -38.5z" />
<glyph unicode="&#x116;" horiz-adv-x="578" d="M-6 0l12 71h89l83 467h-90l13 71h490l-30 -171h-82l18 100h-231l-34 -196h248l-12 -71h-249l-35 -200h233l18 103h82l-30 -174h-493zM370 667q-23 0 -40 17t-17 41q0 23 16.5 40t40.5 17t41 -16.5t17 -40.5t-17 -41t-41 -17z" />
<glyph unicode="&#x117;" horiz-adv-x="427" d="M218 -11q-87 0 -140.5 48.5t-53.5 143.5q0 111 70 184.5t171 73.5q63 0 97 -30t34 -79q0 -42 -24.5 -73t-67 -49t-90.5 -27t-105 -12q7 -113 120 -113q60 0 138 36l-14 -71q-60 -32 -135 -32zM113 233q55 2 98.5 11.5t74.5 31t31 52.5q0 47 -56 47q-53 0 -93.5 -39.5 t-54.5 -102.5zM282 509q-23 0 -40 17t-17 40t17 40t40 17q24 0 41 -16.5t17 -40.5t-17 -40.5t-41 -16.5z" />
<glyph unicode="&#x118;" horiz-adv-x="578" d="M-6 0l12 71h89l83 467h-90l13 71h490l-30 -171h-82l18 100h-231l-34 -196h248l-12 -71h-249l-35 -200h233l18 103h82l-30 -174h-43q-34 -22 -59 -52t-25 -60q0 -36 40 -36q33 0 65 16l-4 -54q-47 -17 -89 -17q-89 0 -89 74q0 72 90 129h-379z" />
<glyph unicode="&#x119;" horiz-adv-x="427" d="M233 -202q-40 0 -64 18t-24 55q0 64 77 119q-89 -3 -143.5 46.5t-54.5 144.5q0 111 70 184.5t171 73.5q63 0 97 -30t34 -79q0 -42 -24.5 -73t-67 -49t-90.5 -27t-105 -12q6 -113 120 -113q60 0 138 36l-14 -71q-132 -70 -132 -133q0 -35 39 -35q31 0 65 15l-4 -52 q-44 -18 -88 -18zM261 375q-53 0 -93.5 -39.5t-54.5 -102.5q55 2 98.5 11.5t74.5 31t31 52.5q0 47 -56 47z" />
<glyph unicode="&#x11a;" horiz-adv-x="578" d="M-6 0l12 71h89l83 467h-90l13 71h490l-30 -171h-82l18 100h-231l-34 -196h248l-12 -71h-249l-35 -200h233l18 103h82l-30 -174h-493zM334 668l-109 134l23 26l128 -78l155 78l19 -27l-161 -133h-55z" />
<glyph unicode="&#x11b;" horiz-adv-x="427" d="M218 -11q-87 0 -140.5 48.5t-53.5 143.5q0 111 70 184.5t171 73.5q63 0 97 -30t34 -79q0 -42 -24.5 -73t-67 -49t-90.5 -27t-105 -12q7 -113 120 -113q60 0 138 36l-14 -71q-60 -32 -135 -32zM113 233q55 2 98.5 11.5t74.5 31t31 52.5q0 47 -56 47q-53 0 -93.5 -39.5 t-54.5 -102.5zM237 507l-108 134l23 26l126 -78l156 78l19 -26l-161 -134h-55z" />
<glyph unicode="&#x11c;" horiz-adv-x="692" d="M346 -12q-139 0 -219.5 73.5t-80.5 203.5q0 153 105 254.5t270 101.5q124 0 236 -51l-25 -147h-83l17 100q-76 24 -142 24q-126 0 -207.5 -79t-81.5 -199q0 -96 56 -151t164 -55q70 0 146 27l29 164h-142l12 70h281l-12 -70h-56l-38 -217q-107 -49 -229 -49zM283 669 l-18 26l161 134h55l108 -134l-23 -26l-126 77z" />
<glyph unicode="&#x11d;" horiz-adv-x="450" d="M133 -210q-110 0 -156.5 32.5t-46.5 78.5q0 81 139 142q-10 13 -10 31q0 36 39 68q-56 38 -56 113t55 129.5t140 54.5q36 0 67 -11h163l-13 -68l-75 3q18 -29 18 -66q0 -75 -55 -129.5t-140 -54.5q-30 0 -54 7q-14 -14 -14 -24q0 -7 5.5 -13.5t17.5 -13.5t23 -12 t31 -13.5t32 -13.5q108 -47 108 -117q0 -49 -49.5 -86t-168.5 -37zM238 377q-51 0 -83.5 -36.5t-32.5 -85.5q0 -37 20.5 -58.5t58.5 -21.5q51 0 83.5 36t32.5 86q0 36 -20.5 58t-58.5 22zM138 -145q67 0 98 16t31 37q0 30 -94 69q-46 20 -61 28q-99 -45 -99 -92 q0 -58 125 -58zM125 501l-18 27l161 133h55l106 -134l-22 -26l-126 78z" />
<glyph unicode="&#x11e;" horiz-adv-x="692" d="M346 -12q-139 0 -219.5 73.5t-80.5 203.5q0 153 105 254.5t270 101.5q124 0 236 -51l-25 -147h-83l17 100q-76 24 -142 24q-126 0 -207.5 -79t-81.5 -199q0 -96 56 -151t164 -55q70 0 146 27l29 164h-142l12 70h281l-12 -70h-56l-38 -217q-107 -49 -229 -49zM431 666 q-68 0 -101.5 41t-24.5 103h63q-5 -76 70 -76t97 76h63q-14 -66 -58 -105t-109 -39z" />
<glyph unicode="&#x11f;" horiz-adv-x="450" d="M133 -210q-110 0 -156.5 32.5t-46.5 78.5q0 81 139 142q-10 13 -10 31q0 36 39 68q-56 38 -56 113t55 129.5t140 54.5q36 0 67 -11h163l-13 -68l-75 3q18 -29 18 -66q0 -75 -55 -129.5t-140 -54.5q-30 0 -54 7q-14 -14 -14 -24q0 -7 5.5 -13.5t17.5 -13.5t23 -12 t31 -13.5t32 -13.5q108 -47 108 -117q0 -49 -49.5 -86t-168.5 -37zM238 377q-51 0 -83.5 -36.5t-32.5 -85.5q0 -37 20.5 -58.5t58.5 -21.5q51 0 83.5 36t32.5 86q0 36 -20.5 58t-58.5 22zM138 -145q67 0 98 16t31 37q0 30 -94 69q-46 20 -61 28q-99 -45 -99 -92 q0 -58 125 -58zM269 509q-68 0 -101 40.5t-24 102.5h63q-6 -76 69 -76q73 0 96 76h63q-14 -66 -57.5 -104.5t-108.5 -38.5z" />
<glyph unicode="&#x120;" horiz-adv-x="692" d="M346 -12q-139 0 -219.5 73.5t-80.5 203.5q0 153 105 254.5t270 101.5q124 0 236 -51l-25 -147h-83l17 100q-76 24 -142 24q-126 0 -207.5 -79t-81.5 -199q0 -96 56 -151t164 -55q70 0 146 27l29 164h-142l12 70h281l-12 -70h-56l-38 -217q-107 -49 -229 -49zM437 672 q-23 0 -40 17t-17 41q0 23 16.5 40t40.5 17t41 -16.5t17 -40.5t-16.5 -41t-41.5 -17z" />
<glyph unicode="&#x121;" horiz-adv-x="450" d="M133 -210q-110 0 -156.5 32.5t-46.5 78.5q0 81 139 142q-10 13 -10 31q0 36 39 68q-56 38 -56 113t55 129.5t140 54.5q36 0 67 -11h163l-13 -68l-75 3q18 -29 18 -66q0 -75 -55 -129.5t-140 -54.5q-30 0 -54 7q-14 -14 -14 -24q0 -7 5.5 -13.5t17.5 -13.5t23 -12 t31 -13.5t32 -13.5q108 -47 108 -117q0 -49 -49.5 -86t-168.5 -37zM238 377q-51 0 -83.5 -36.5t-32.5 -85.5q0 -37 20.5 -58.5t58.5 -21.5q51 0 83.5 36t32.5 86q0 36 -20.5 58t-58.5 22zM138 -145q67 0 98 16t31 37q0 30 -94 69q-46 20 -61 28q-99 -45 -99 -92 q0 -58 125 -58zM275 509q-23 0 -40 17t-17 40t16.5 40t40.5 17t41 -16.5t17 -40.5q0 -23 -17 -40t-41 -17z" />
<glyph unicode="&#x122;" horiz-adv-x="692" d="M302 -70q25 0 38.5 -15.5t13.5 -40.5q0 -77 -115 -159l-33 29q66 66 66 112q0 34 -27 48l1 7q28 19 56 19zM346 -12q-139 0 -219.5 73.5t-80.5 203.5q0 153 105 254.5t270 101.5q124 0 236 -51l-25 -147h-83l17 100q-76 24 -142 24q-126 0 -207.5 -79t-81.5 -199 q0 -96 56 -151t164 -55q70 0 146 27l29 164h-142l12 70h281l-12 -70h-56l-38 -217q-107 -49 -229 -49z" />
<glyph unicode="&#x123;" horiz-adv-x="450" d="M277 503q-26 0 -39 15.5t-13 40.5q0 78 115 159l32 -29q-65 -67 -65 -112q0 -35 27 -48l-1 -7q-30 -19 -56 -19zM133 -210q-110 0 -156.5 32.5t-46.5 78.5q0 81 139 142q-10 13 -10 31q0 36 39 68q-56 38 -56 113t55 129.5t140 54.5q36 0 67 -11h163l-13 -68l-75 3 q18 -29 18 -66q0 -75 -55 -129.5t-140 -54.5q-30 0 -54 7q-14 -14 -14 -24q0 -7 5.5 -13.5t17.5 -13.5t23 -12t31 -13.5t32 -13.5q108 -47 108 -117q0 -49 -49.5 -86t-168.5 -37zM238 377q-51 0 -83.5 -36.5t-32.5 -85.5q0 -37 20.5 -58.5t58.5 -21.5q51 0 83.5 36t32.5 86 q0 36 -20.5 58t-58.5 22zM138 -145q67 0 98 16t31 37q0 30 -94 69q-46 20 -61 28q-99 -45 -99 -92q0 -58 125 -58z" />
<glyph unicode="&#x124;" horiz-adv-x="755" d="M307 666l-18 26l162 134h55l107 -134l-23 -26l-125 77zM-6 0l12 71h89l83 467h-90l13 71h267l-12 -71h-90l-34 -195h323l34 195h-90l12 71h268l-12 -71h-90l-82 -467h89l-12 -71h-268l13 71h90l35 198h-323l-35 -198h90l-13 -71h-267z" />
<glyph unicode="&#x125;" horiz-adv-x="525" d="M20 0l113 639h-76l12 68h162l-61 -343q92 75 167 75q58 0 88 -39t18 -106l-33 -192q-9 -46 33 -46q21 0 52 11l-12 -66q-35 -11 -69 -11q-57 0 -77 32.5t-11 84.5l32 182q14 81 -49 81q-61 0 -152 -82l-51 -288h-86zM25 761l-18 26l161 133h55l106 -133l-22 -26l-125 77z " />
<glyph unicode="&#x126;" horiz-adv-x="755" d="M76 418l8 48h82l13 72h-90l13 71h267l-12 -71h-90l-12 -72h323l12 72h-90l12 71h268l-12 -71h-90l-12 -72h81l-8 -48h-82l-61 -347h89l-12 -71h-268l13 71h90l35 198h-323l-35 -198h90l-13 -71h-267l12 71h89l61 347h-81zM233 343h323l13 78h-323z" />
<glyph unicode="&#x127;" horiz-adv-x="525" d="M40 509l10 58h70l12 72h-76l13 68h161l-25 -140h141l-10 -58h-141l-25 -145q92 75 166 75q58 0 88.5 -39t18.5 -106l-34 -192q-9 -46 34 -46q20 0 51 11l-11 -66q-35 -11 -70 -11q-57 0 -77 32.5t-11 84.5l32 182q16 81 -48 81q-60 0 -153 -82l-51 -288h-85l89 509h-69z " />
<glyph unicode="&#x128;" horiz-adv-x="344" d="M-6 0l12 71h89l83 467h-90l13 71h267l-13 -71h-89l-82 -467h89l-12 -71h-267zM106 670l-32 18q55 107 119 107q27 0 69 -25.5t66 -25.5q23 0 38.5 13.5t32.5 39.5l32 -19q-58 -107 -121 -107q-26 0 -69.5 26t-64.5 26q-35 0 -70 -53z" />
<glyph unicode="&#x129;" horiz-adv-x="262" d="M147 -10q-109 0 -89 117l44 252h-75l12 69h161l-58 -326q-7 -46 33 -46q21 0 52 11l-11 -66q-35 -11 -69 -11zM10 508l-31 18q52 107 118 107q27 0 68 -25.5t64 -25.5q38 0 72 53l31 -19q-55 -107 -121 -107q-25 0 -67.5 26t-63.5 26q-33 0 -70 -53z" />
<glyph unicode="&#x12a;" horiz-adv-x="344" d="M-6 0l12 71h89l83 467h-90l13 71h267l-13 -71h-89l-82 -467h89l-12 -71h-267zM109 675l12 65h273l-12 -65h-273z" />
<glyph unicode="&#x12b;" horiz-adv-x="262" d="M147 -10q-109 0 -89 117l44 252h-75l12 69h161l-58 -326q-7 -46 33 -46q21 0 52 11l-11 -66q-35 -11 -69 -11zM12 522l11 65h271l-12 -65h-270z" />
<glyph unicode="&#x12c;" horiz-adv-x="344" d="M-6 0l12 71h89l83 467h-90l13 71h267l-13 -71h-89l-82 -467h89l-12 -71h-267zM244 663q-69 0 -102 41t-25 103h64q-6 -76 70 -76q74 0 97 76h63q-14 -67 -58 -105.5t-109 -38.5z" />
<glyph unicode="&#x12d;" horiz-adv-x="262" d="M148 -10q-58 0 -78.5 32.5t-11.5 84.5l45 252h-76l12 69h162l-58 -326q-9 -46 33 -46q21 0 52 11l-11 -66q-35 -11 -69 -11zM150 509q-69 0 -101.5 40.5t-24.5 102.5h64q-6 -76 69 -76q73 0 96 76h63q-15 -66 -58 -104.5t-108 -38.5z" />
<glyph unicode="&#x12e;" horiz-adv-x="344" d="M-6 0l12 71h89l83 467h-90l13 71h267l-13 -71h-89l-82 -467h89l-12 -71h-80q-84 -55 -84 -112q0 -36 41 -36q32 0 64 16l-4 -54q-47 -17 -89 -17q-89 0 -89 74q0 72 90 129h-116z" />
<glyph unicode="&#x12f;" horiz-adv-x="262" d="M101 -202q-87 0 -87 73q0 69 88 126q-60 22 -44 110l45 252h-76l13 69h161l-58 -326q-9 -46 33 -46q21 0 52 11l-11 -66q-34 -9 -53 -10q-74 -54 -74 -103q0 -35 39 -35q31 0 65 15l-4 -52q-44 -18 -89 -18zM175 516q-25 0 -42.5 17.5t-17.5 42.5t17.5 42.5t42.5 17.5 t42.5 -17.5t17.5 -42.5t-17.5 -42.5t-42.5 -17.5z" />
<glyph unicode="&#x130;" horiz-adv-x="344" d="M-6 0l12 71h89l83 467h-90l13 71h267l-13 -71h-89l-82 -467h89l-12 -71h-267zM254 667q-23 0 -40 17t-17 41q0 23 16.5 40t40.5 17t41 -16.5t17 -40.5t-17 -41t-41 -17z" />
<glyph unicode="&#x131;" horiz-adv-x="262" d="M147 -10q-109 0 -89 117l44 252h-75l12 69h161l-58 -326q-7 -46 33 -46q21 0 52 11l-11 -66q-35 -11 -69 -11z" />
<glyph unicode="&#x134;" horiz-adv-x="316" d="M-30 -173l-25 57q51 20 85 53t41 72l94 529h-83l12 71h254l-12 -71h-83l-95 -535q-24 -131 -188 -176zM92 666l-18 26l161 134h55l108 -134l-23 -26l-126 77z" />
<glyph unicode="&#x135;" horiz-adv-x="239" d="M-36 -210q-29 0 -63 10l12 66q22 -8 44 -8q62 0 74 71l76 430h-81l13 69h166l-88 -496q-25 -142 -153 -142zM3 501l-18 27l161 133h55l106 -134l-22 -26l-125 78z" />
<glyph unicode="&#x136;" horiz-adv-x="672" d="M336 -67q26 0 39 -15t13 -40q0 -78 -114 -159l-33 29q65 63 65 112q0 34 -27 48l2 7q27 18 55 18zM469 0l-206 302l1 6l259 231h-77l11 70h257l-13 -71h-70l-264 -239l157 -228h104l-13 -71h-146zM-6 0l12 71h89l83 467h-90l13 71h265l-12 -71h-88l-82 -467h96l-13 -71 h-273z" />
<glyph unicode="&#x137;" horiz-adv-x="491" d="M202 -67q26 0 39 -15t13 -40q0 -78 -115 -159l-32 29q65 65 65 112q0 33 -27 48l1 7q29 18 56 18zM20 0l113 639h-70l13 68h155l-60 -333q77 65 152 65q51 0 83.5 -28t32.5 -77q0 -58 -47 -97.5t-115 -55.5l49 -82q27 -43 57 -43q22 0 62 21l-13 -69q-33 -19 -67 -19 q-68 0 -111 75l-69 122l6 33q61 5 112.5 34t51.5 73q0 45 -53 45q-61 0 -143 -69l-53 -302h-86z" />
<glyph unicode="&#x138;" horiz-adv-x="512" d="M42 0l63 359h-69l12 69h155l-10 -54q76 65 151 65q51 0 83.5 -28t32.5 -77q0 -58 -46.5 -97.5t-114.5 -55.5l48 -82q27 -43 58 -43q24 0 61 21l-12 -69q-35 -19 -67 -19q-68 0 -111 75l-70 122l6 33q61 5 113 34t52 73q0 45 -54 45q-60 0 -142 -69l-54 -302h-85z" />
<glyph unicode="&#x139;" horiz-adv-x="546" d="M-6 0l12 71h89l83 467h-90l13 71h280l-13 -71h-102l-82 -467h232l20 109h82l-32 -180h-492zM204 666l-28 34l171 157l50 -64z" />
<glyph unicode="&#x13a;" horiz-adv-x="240" d="M124 -10q-57 0 -77.5 32.5t-12.5 84.5l94 532h-76l13 68h161l-107 -605q-7 -46 33 -46q21 0 52 11l-11 -66q-35 -11 -69 -11zM125 762l-28 35l171 156l50 -63z" />
<glyph unicode="&#x13b;" horiz-adv-x="546" d="M268 -67q26 0 39 -15t13 -40q0 -78 -115 -159l-32 29q65 65 65 112q0 33 -27 48l1 7q28 18 56 18zM-6 0l12 71h89l83 467h-90l13 71h280l-13 -71h-102l-82 -467h232l20 109h82l-32 -180h-492z" />
<glyph unicode="&#x13c;" horiz-adv-x="240" d="M81 -67q26 0 39 -15t13 -40q0 -78 -115 -159l-32 29q65 65 65 112q0 33 -27 48l1 7q28 18 56 18zM124 -10q-57 0 -77.5 32.5t-12.5 84.5l94 532h-76l13 68h161l-107 -605q-7 -46 33 -46q21 0 52 11l-11 -66q-35 -11 -69 -11z" />
<glyph unicode="&#x13d;" horiz-adv-x="550" d="M494 617q26 0 39 -15.5t13 -40.5q0 -77 -115 -159l-32 29q65 67 65 112q0 35 -27 48l1 7q28 19 56 19zM-6 0l12 71h89l83 467h-90l13 71h280l-13 -71h-102l-82 -467h232l20 109h82l-32 -180h-492z" />
<glyph unicode="&#x13e;" horiz-adv-x="240" d="M335 715q26 0 39 -15.5t13 -40.5q0 -77 -115 -159l-32 29q65 67 65 112q0 35 -27 48l1 7q30 19 56 19zM124 -10q-57 0 -77.5 32.5t-12.5 84.5l94 532h-76l13 68h161l-107 -605q-7 -46 33 -46q21 0 52 11l-11 -66q-35 -11 -69 -11z" />
<glyph unicode="&#x13f;" horiz-adv-x="546" d="M-6 0l12 71h89l83 467h-90l13 71h280l-13 -71h-102l-82 -467h232l20 109h82l-32 -180h-492zM426 275q-23 0 -40 17t-17 41q0 23 16.5 40t40.5 17t41 -16.5t17 -40.5t-17 -41t-41 -17z" />
<glyph unicode="&#x140;" horiz-adv-x="332" d="M124 -10q-57 0 -77.5 32.5t-12.5 84.5l94 532h-76l13 68h161l-107 -605q-7 -46 33 -46q21 0 52 11l-11 -66q-35 -11 -69 -11zM284 278q-23 0 -40 17t-17 40q0 24 16.5 41t40.5 17q23 0 40 -17t17 -41q0 -23 -16.5 -40t-40.5 -17z" />
<glyph unicode="&#x141;" horiz-adv-x="547" d="M47 216l-16 51l109 51l39 220h-90l13 71h280l-13 -71h-102l-32 -178l178 83l16 -50l-205 -95l-39 -227h232l20 109h82l-32 -180h-492l12 71h89l33 184z" />
<glyph unicode="&#x142;" horiz-adv-x="283" d="M10 246l-18 49l108 53l51 291h-76l13 68h161l-55 -313l102 51l18 -48l-131 -66l-41 -229q-9 -46 33 -46q21 0 52 11l-11 -66q-35 -11 -69 -11q-58 0 -78.5 32.5t-11.5 84.5l32 178z" />
<glyph unicode="&#x143;" horiz-adv-x="744" d="M-6 0l12 71h89l83 467h-90l13 71h175l247 -473l71 402h-89l12 71h262l-12 -71h-89l-95 -538h-79l-252 481l-73 -410h90l-13 -71h-262zM396 666l-27 34l171 157l50 -64z" />
<glyph unicode="&#x144;" horiz-adv-x="548" d="M43 0l64 359h-74l12 69h157l-12 -66q92 77 169 77q58 0 88.5 -39t18.5 -106l-34 -192q-9 -46 33 -46q21 0 52 11l-11 -66q-35 -11 -70 -11q-57 0 -77 32.5t-11 84.5l32 182q16 81 -49 81q-60 0 -151 -82l-51 -288h-86zM261 504l-27 35l170 156l50 -63z" />
<glyph unicode="&#x145;" horiz-adv-x="744" d="M341 -67q26 0 39 -15t13 -40q0 -78 -114 -159l-33 29q65 63 65 112q0 34 -27 48l2 7q27 18 55 18zM-6 0l12 71h89l83 467h-90l13 71h175l247 -473l71 402h-89l12 71h262l-12 -71h-89l-95 -538h-79l-252 481l-73 -410h90l-13 -71h-262z" />
<glyph unicode="&#x146;" horiz-adv-x="548" d="M246 -67q26 0 39 -15t13 -40q0 -78 -115 -159l-32 29q65 65 65 112q0 33 -27 48l1 7q28 18 56 18zM43 0l64 359h-74l12 69h157l-12 -66q92 77 169 77q58 0 88.5 -39t18.5 -106l-34 -192q-9 -46 33 -46q21 0 52 11l-11 -66q-35 -11 -70 -11q-57 0 -77 32.5t-11 84.5 l32 182q16 81 -49 81q-60 0 -151 -82l-51 -288h-86z" />
<glyph unicode="&#x147;" horiz-adv-x="744" d="M-6 0l12 71h89l83 467h-90l13 71h175l247 -473l71 402h-89l12 71h262l-12 -71h-89l-95 -538h-79l-252 481l-73 -410h90l-13 -71h-262zM407 668l-109 134l23 26l127 -78l156 78l19 -27l-161 -133h-55z" />
<glyph unicode="&#x148;" horiz-adv-x="548" d="M43 0l64 359h-74l12 69h157l-12 -66q92 77 169 77q58 0 88.5 -39t18.5 -106l-34 -192q-9 -46 33 -46q21 0 52 11l-11 -66q-35 -11 -70 -11q-57 0 -77 32.5t-11 84.5l32 182q16 81 -49 81q-60 0 -151 -82l-51 -288h-86zM270 507l-108 134l23 26l126 -78l156 78l19 -26 l-161 -134h-55z" />
<glyph unicode="&#x149;" horiz-adv-x="548" d="M167 694q25 0 38.5 -15.5t13.5 -40.5q0 -77 -115 -159l-33 29q66 66 66 112q0 34 -27 48l1 7q29 19 56 19zM43 0l64 359h-74l12 69h157l-12 -66q92 77 169 77q58 0 88.5 -39t18.5 -106l-34 -192q-9 -46 33 -46q21 0 52 11l-11 -66q-35 -11 -70 -11q-57 0 -77 32.5 t-11 84.5l32 182q16 81 -49 81q-60 0 -151 -82l-51 -288h-86z" />
<glyph unicode="&#x14a;" horiz-adv-x="744" d="M-6 0l12 71h89l83 467h-90l13 71h175l250 -455l68 384h-89l12 71h262l-12 -71h-89l-94 -535q-24 -131 -189 -176l-24 57q51 20 85 53t41 72l4 23l-249 449l-73 -410h90l-13 -71h-262z" />
<glyph unicode="&#x14b;" horiz-adv-x="515" d="M43 0l64 359h-74l12 69h157l-12 -66q92 77 169 77q58 0 88.5 -39t18.5 -106l-64 -362q-25 -142 -154 -142q-28 0 -62 10l12 66q21 -8 43 -8q62 0 75 71l64 360q16 81 -49 81q-60 0 -151 -82l-51 -288h-86z" />
<glyph unicode="&#x14c;" horiz-adv-x="708" d="M323 -12q-128 0 -202.5 74.5t-74.5 200.5q0 149 100 253.5t255 104.5q129 0 204 -74.5t75 -200.5q0 -150 -100 -254t-257 -104zM325 62q111 0 187.5 80t76.5 201q0 96 -51 150t-139 54q-111 0 -187 -81t-76 -201q0 -96 50.5 -149.5t138.5 -53.5zM286 678l12 65h272 l-12 -65h-272z" />
<glyph unicode="&#x14d;" horiz-adv-x="499" d="M215 -11q-88 0 -139.5 50.5t-51.5 142.5q0 108 67 182.5t178 74.5q88 0 139.5 -50.5t51.5 -142.5q0 -108 -67 -182.5t-178 -74.5zM217 55q68 0 111 57t43 134q0 58 -26.5 92t-77.5 34q-68 0 -111 -56.5t-43 -133.5q0 -59 26.5 -93t77.5 -34zM161 522l12 65h270l-11 -65 h-271z" />
<glyph unicode="&#x14e;" horiz-adv-x="708" d="M323 -12q-128 0 -202.5 74.5t-74.5 200.5q0 149 100 253.5t255 104.5q129 0 204 -74.5t75 -200.5q0 -150 -100 -254t-257 -104zM325 62q111 0 187.5 80t76.5 201q0 96 -51 150t-139 54q-111 0 -187 -81t-76 -201q0 -96 50.5 -149.5t138.5 -53.5zM422 666q-68 0 -101 41 t-25 103h63q-5 -76 70 -76t97 76h64q-14 -66 -58.5 -105t-109.5 -39z" />
<glyph unicode="&#x14f;" horiz-adv-x="499" d="M215 -11q-88 0 -139.5 50.5t-51.5 142.5q0 108 67 182.5t178 74.5q88 0 139.5 -50.5t51.5 -142.5q0 -108 -67 -182.5t-178 -74.5zM217 55q68 0 111 57t43 134q0 58 -26.5 92t-77.5 34q-68 0 -111 -56.5t-43 -133.5q0 -59 26.5 -93t77.5 -34zM297 509q-69 0 -101.5 40.5 t-24.5 102.5h63q-5 -76 69 -76t97 76h63q-15 -66 -58 -104.5t-108 -38.5z" />
<glyph unicode="&#x150;" horiz-adv-x="708" d="M323 -12q-128 0 -202.5 74.5t-74.5 200.5q0 149 100 253.5t255 104.5q129 0 204 -74.5t75 -200.5q0 -150 -100 -254t-257 -104zM325 62q111 0 187.5 80t76.5 201q0 96 -51 150t-139 54q-111 0 -187 -81t-76 -201q0 -96 50.5 -149.5t138.5 -53.5zM318 670l-26 27l146 170 l53 -58zM480 670l-27 27l146 170l54 -58z" />
<glyph unicode="&#x151;" horiz-adv-x="499" d="M215 -11q-88 0 -139.5 50.5t-51.5 142.5q0 108 67 182.5t178 74.5q88 0 139.5 -50.5t51.5 -142.5q0 -108 -67 -182.5t-178 -74.5zM217 55q68 0 111 57t43 134q0 58 -26.5 92t-77.5 34q-68 0 -111 -56.5t-43 -133.5q0 -59 26.5 -93t77.5 -34zM205 504l-26 27l146 170 l53 -58zM366 504l-26 27l147 170l53 -58z" />
<glyph unicode="&#x152;" horiz-adv-x="877" d="M324 0q-130 0 -203.5 69t-73.5 194q0 147 98.5 246.5t261.5 99.5h483l-30 -171h-81l17 100h-229l-34 -196h247l-13 -71h-246l-36 -200h231l19 103h82l-31 -174h-462zM322 71h75l82 467h-76q-115 0 -190.5 -76t-75.5 -197q0 -94 49 -144t136 -50z" />
<glyph unicode="&#x153;" horiz-adv-x="770" d="M214 -11q-85 0 -137.5 50.5t-52.5 142.5q0 107 67.5 182t176.5 75q120 0 161 -97q65 97 183 97q63 0 95 -29.5t32 -77.5q0 -44 -26.5 -76.5t-72 -50t-90 -25.5t-95.5 -11q6 -113 119 -113q61 0 137 36l-14 -71q-60 -32 -134 -32q-123 0 -162 97q-66 -97 -187 -97zM218 55 q68 0 111.5 57t43.5 134q0 58 -27 92t-78 34q-68 0 -111.5 -56.5t-43.5 -133.5q0 -59 27 -93t78 -34zM605 375q-54 0 -94 -39.5t-52 -102.5q52 2 95 11t75 31.5t32 54.5q0 45 -56 45z" />
<glyph unicode="&#x154;" horiz-adv-x="633" d="M322 666l-28 34l171 157l50 -64zM-6 0l12 71h89l83 467h-90l13 71h277q101 0 159 -45t58 -126q0 -73 -47 -123t-127 -68l72 -176h86l-12 -71h-137l-96 233h-122l-28 -162h89l-12 -71h-267zM225 302h105q88 0 131.5 38.5t43.5 96.5q0 101 -133 101h-106z" />
<glyph unicode="&#x155;" horiz-adv-x="412" d="M43 0l64 359h-74l13 69h156l-14 -77q78 88 154 88q33 0 53.5 -18.5t20.5 -56.5q0 -34 -14 -71l-77 5q8 24 8 41q0 26 -26 26q-49 0 -129 -86l-49 -279h-86zM217 504l-27 35l171 156l50 -63z" />
<glyph unicode="&#x156;" horiz-adv-x="633" d="M309 -67q26 0 39 -15t13 -40q0 -78 -115 -159l-32 29q65 65 65 112q0 33 -27 48l1 7q29 18 56 18zM-6 0l12 71h89l83 467h-90l13 71h277q101 0 159 -45t58 -126q0 -73 -47 -123t-127 -68l72 -176h86l-12 -71h-137l-96 233h-122l-28 -162h89l-12 -71h-267zM225 302h105 q88 0 131.5 38.5t43.5 96.5q0 101 -133 101h-106z" />
<glyph unicode="&#x157;" horiz-adv-x="412" d="M69 -67q26 0 39 -15t13 -40q0 -78 -115 -159l-32 29q65 63 65 112q0 33 -27 48l1 7q29 18 56 18zM43 0l64 359h-74l13 69h156l-14 -77q78 88 154 88q33 0 53.5 -18.5t20.5 -56.5q0 -34 -14 -71l-77 5q8 24 8 41q0 26 -26 26q-49 0 -129 -86l-49 -279h-86z" />
<glyph unicode="&#x158;" horiz-adv-x="633" d="M333 668l-109 134l22 26l128 -78l156 78l19 -27l-161 -133h-55zM-6 0l12 71h89l83 467h-90l13 71h277q101 0 159 -45t58 -126q0 -73 -47 -123t-127 -68l72 -176h86l-12 -71h-137l-96 233h-122l-28 -162h89l-12 -71h-267zM225 302h105q88 0 131.5 38.5t43.5 96.5 q0 101 -133 101h-106z" />
<glyph unicode="&#x159;" horiz-adv-x="412" d="M43 0l64 359h-74l13 69h156l-14 -77q78 88 154 88q33 0 53.5 -18.5t20.5 -56.5q0 -34 -14 -71l-77 5q8 24 8 41q0 26 -26 26q-49 0 -129 -86l-49 -279h-86zM217 507l-108 134l23 26l126 -78l156 78l19 -26l-161 -134h-55z" />
<glyph unicode="&#x15a;" horiz-adv-x="519" d="M226 -12q-114 0 -216 34l25 142h80l-16 -87q65 -18 125 -18q75 0 114 27.5t39 73.5q0 33 -21.5 57t-54.5 36.5t-70.5 28.5t-70.5 32.5t-54.5 49.5t-21.5 79q0 77 57.5 127.5t169.5 50.5q94 0 195 -33l-24 -139h-81l15 87q-51 14 -103 14q-72 0 -106.5 -28.5t-34.5 -69.5 q0 -26 16 -45.5t42 -31.5t57 -23.5t62 -26t57 -33.5t42 -51t16 -75q0 -85 -61 -131.5t-177 -46.5zM291 669l-28 35l171 156l50 -64z" />
<glyph unicode="&#x15b;" horiz-adv-x="372" d="M146 -11q-81 0 -145 29l11 64q68 -28 133 -28q46 0 69.5 16t23.5 42q0 27 -30.5 46.5t-66.5 32t-66.5 42.5t-30.5 76q0 56 42.5 93t122.5 37q62 0 130 -24l-11 -62q-64 22 -115 22q-46 0 -65.5 -16t-19.5 -38t20 -38t48.5 -27.5t57.5 -26t49 -41.5t20 -65 q0 -54 -41.5 -94t-135.5 -40zM190 504l-28 35l171 156l50 -63z" />
<glyph unicode="&#x15c;" horiz-adv-x="519" d="M226 -12q-114 0 -216 34l25 142h80l-16 -87q65 -18 125 -18q75 0 114 27.5t39 73.5q0 33 -21.5 57t-54.5 36.5t-70.5 28.5t-70.5 32.5t-54.5 49.5t-21.5 79q0 77 57.5 127.5t169.5 50.5q94 0 195 -33l-24 -139h-81l15 87q-51 14 -103 14q-72 0 -106.5 -28.5t-34.5 -69.5 q0 -26 16 -45.5t42 -31.5t57 -23.5t62 -26t57 -33.5t42 -51t16 -75q0 -85 -61 -131.5t-177 -46.5zM193 669l-18 26l162 134h55l107 -134l-23 -26l-126 77z" />
<glyph unicode="&#x15d;" horiz-adv-x="372" d="M146 -11q-81 0 -145 29l11 64q68 -28 133 -28q46 0 69.5 16t23.5 42q0 27 -30.5 46.5t-66.5 32t-66.5 42.5t-30.5 76q0 56 42.5 93t122.5 37q62 0 130 -24l-11 -62q-64 22 -115 22q-46 0 -65.5 -16t-19.5 -38t20 -38t48.5 -27.5t57.5 -26t49 -41.5t20 -65 q0 -54 -41.5 -94t-135.5 -40zM81 501l-18 27l161 133h55l106 -134l-22 -26l-125 78z" />
<glyph unicode="&#x15e;" horiz-adv-x="518" d="M171 -203q-50 0 -87 15l15 49q35 -14 68 -14q53 0 53 32q0 38 -72 38l5 19l35 53q-103 8 -178 33l25 142h80l-16 -87q65 -18 125 -18q75 0 114 27.5t39 73.5q0 33 -21.5 57t-54.5 36.5t-70.5 28.5t-70.5 32.5t-54.5 49.5t-21.5 79q0 77 57.5 127.5t169.5 50.5 q94 0 195 -33l-24 -139h-81l15 87q-51 14 -103 14q-72 0 -106.5 -28.5t-34.5 -69.5q0 -26 16 -45.5t42 -31.5t57 -23.5t62 -26t57 -33.5t42 -51t16 -75q0 -82 -56.5 -128t-164.5 -49l-20 -38q73 -11 73 -71q0 -41 -35 -62t-90 -21z" />
<glyph unicode="&#x15f;" horiz-adv-x="372" d="M97 -202q-49 0 -86 15l15 49q35 -14 67 -14q53 0 53 32q0 37 -72 37l5 20l37 54q-63 4 -115 27l11 64q68 -28 133 -28q46 0 69.5 16t23.5 42q0 27 -30.5 46.5t-66.5 32t-66.5 42.5t-30.5 76q0 56 42.5 93t122.5 37q62 0 130 -24l-11 -62q-64 22 -115 22q-46 0 -65.5 -16 t-19.5 -38t20 -38t48.5 -27.5t57.5 -26t49 -41.5t20 -65q0 -50 -36 -89t-117 -44l-21 -38q72 -11 72 -71q0 -41 -34.5 -62t-89.5 -21z" />
<glyph unicode="&#x160;" horiz-adv-x="519" d="M226 -12q-114 0 -216 34l25 142h80l-16 -87q65 -18 125 -18q75 0 114 27.5t39 73.5q0 33 -21.5 57t-54.5 36.5t-70.5 28.5t-70.5 32.5t-54.5 49.5t-21.5 79q0 77 57.5 127.5t169.5 50.5q94 0 195 -33l-24 -139h-81l15 87q-51 14 -103 14q-72 0 -106.5 -28.5t-34.5 -69.5 q0 -26 16 -45.5t42 -31.5t57 -23.5t62 -26t57 -33.5t42 -51t16 -75q0 -85 -61 -131.5t-177 -46.5zM301 670l-109 134l23 26l128 -78l155 78l19 -27l-161 -133h-55z" />
<glyph unicode="&#x161;" horiz-adv-x="372" d="M146 -11q-81 0 -145 29l11 64q68 -28 133 -28q46 0 69.5 16t23.5 42q0 27 -30.5 46.5t-66.5 32t-66.5 42.5t-30.5 76q0 56 42.5 93t122.5 37q62 0 130 -24l-11 -62q-64 22 -115 22q-46 0 -65.5 -16t-19.5 -38t20 -38t48.5 -27.5t57.5 -26t49 -41.5t20 -65 q0 -54 -41.5 -94t-135.5 -40zM190 507l-107 134l22 26l126 -78l156 78l19 -26l-161 -134h-55z" />
<glyph unicode="&#x162;" horiz-adv-x="580" d="M228 -67q26 0 39 -15t13 -40q0 -77 -115 -159l-33 29q66 64 66 112q0 33 -27 48l1 7q27 18 56 18zM104 0l13 71h96l82 467h-146l-17 -101h-80l30 172h540l-30 -172h-80l17 101h-145l-83 -467h97l-13 -71h-281z" />
<glyph unicode="&#x163;" horiz-adv-x="323" d="M133 -67q26 0 39 -15t13 -40q0 -78 -115 -159l-32 29q65 65 65 112q0 33 -27 48l1 7q28 18 56 18zM166 -11q-59 0 -89.5 33.5t-18.5 96.5l42 241h-73l12 68h73l19 110h86l-20 -110h125l-13 -68h-123l-43 -246q-10 -58 51 -58q27 0 87 21l-12 -65q-48 -23 -103 -23z" />
<glyph unicode="&#x164;" horiz-adv-x="580" d="M104 0l13 71h96l82 467h-146l-17 -101h-80l30 172h540l-30 -172h-80l17 101h-145l-83 -467h97l-13 -71h-281zM329 668l-109 134l23 26l127 -78l156 78l19 -27l-161 -133h-55z" />
<glyph unicode="&#x165;" horiz-adv-x="323" d="M357 697q25 0 38.5 -15.5t13.5 -39.5q0 -77 -115 -159l-33 29q66 64 66 112q0 33 -27 48l1 7q27 18 56 18zM166 -11q-59 0 -89.5 33.5t-18.5 96.5l42 241h-73l12 68h73l19 110h86l-20 -110h125l-13 -68h-123l-43 -246q-10 -58 51 -58q27 0 87 21l-12 -65 q-48 -23 -103 -23z" />
<glyph unicode="&#x166;" horiz-adv-x="583" d="M116 264l11 61h131l38 213h-146l-18 -101h-80l31 172h540l-30 -172h-81l18 101h-146l-38 -213h132l-11 -61h-131l-34 -193h96l-12 -71h-281l12 71h97l34 193h-132z" />
<glyph unicode="&#x167;" horiz-adv-x="325" d="M12 201l11 60h62l18 99h-73l12 68h73l19 110h86l-20 -110h125l-13 -68h-123l-18 -99h116l-11 -60h-115l-15 -87q-10 -58 51 -58q27 0 87 21l-12 -65q-48 -23 -103 -23q-59 0 -89.5 33.5t-18.5 96.5l14 82h-63z" />
<glyph unicode="&#x168;" horiz-adv-x="688" d="M310 -12q-113 0 -172 65.5t-39 178.5l54 306h-89l12 71h267l-12 -71h-90l-57 -322q-13 -72 21.5 -111t104.5 -39q69 0 117.5 38t60.5 111l58 323h-92l12 71h265l-12 -71h-90l-57 -325q-19 -108 -88.5 -166.5t-173.5 -58.5zM277 670l-32 18q55 107 119 107 q27 0 69.5 -25.5t65.5 -25.5q37 0 71 53l31 -19q-55 -107 -120 -107q-26 0 -69.5 26t-64.5 26q-35 0 -70 -53z" />
<glyph unicode="&#x169;" d="M167 -11q-58 0 -88.5 39t-18.5 106l40 225h-74l12 69h159l-51 -289q-16 -81 48 -81q59 0 151 81l52 289h85l-58 -329q-9 -47 34 -47q20 0 51 11l-11 -62q-35 -11 -69 -11q-86 0 -91 77q-90 -78 -171 -78zM168 508l-31 18q52 107 118 107q27 0 68 -25.5t64 -25.5 q38 0 72 53l31 -19q-55 -107 -121 -107q-25 0 -67.5 26t-63.5 26q-35 0 -70 -53z" />
<glyph unicode="&#x16a;" horiz-adv-x="688" d="M310 -12q-113 0 -172 65.5t-39 178.5l54 306h-89l12 71h267l-12 -71h-90l-57 -322q-13 -72 21.5 -111t104.5 -39q69 0 117.5 38t60.5 111l58 323h-92l12 71h265l-12 -71h-90l-57 -325q-19 -108 -88.5 -166.5t-173.5 -58.5zM275 675l12 65h272l-12 -65h-272z" />
<glyph unicode="&#x16b;" d="M167 -11q-58 0 -88.5 39t-18.5 106l40 225h-74l12 69h159l-51 -289q-16 -81 48 -81q59 0 151 81l52 289h85l-58 -329q-9 -47 34 -47q20 0 51 11l-11 -62q-35 -11 -69 -11q-86 0 -91 77q-90 -78 -171 -78zM159 522l12 65h270l-11 -65h-271z" />
<glyph unicode="&#x16c;" horiz-adv-x="688" d="M310 -12q-113 0 -172 65.5t-39 178.5l54 306h-89l12 71h267l-12 -71h-90l-57 -322q-13 -72 21.5 -111t104.5 -39q69 0 117.5 38t60.5 111l58 323h-92l12 71h265l-12 -71h-90l-57 -325q-19 -108 -88.5 -166.5t-173.5 -58.5zM412 663q-68 0 -101 41t-25 103h64 q-6 -76 69 -76q76 0 97 76h64q-14 -67 -58 -105.5t-110 -38.5z" />
<glyph unicode="&#x16d;" d="M167 -11q-58 0 -88.5 39t-18.5 106l40 225h-74l12 69h159l-51 -289q-16 -81 48 -81q59 0 151 81l52 289h85l-58 -329q-9 -47 34 -47q20 0 51 11l-11 -62q-35 -11 -69 -11q-86 0 -91 77q-90 -78 -171 -78zM301 509q-68 0 -101 40.5t-24 102.5h63q-6 -76 69 -76q73 0 96 76 h63q-14 -66 -57.5 -104.5t-108.5 -38.5z" />
<glyph unicode="&#x16e;" horiz-adv-x="688" d="M310 -12q-113 0 -172 65.5t-39 178.5l54 306h-89l12 71h267l-12 -71h-90l-57 -322q-13 -72 21.5 -111t104.5 -39q69 0 117.5 38t60.5 111l58 323h-92l12 71h265l-12 -71h-90l-57 -325q-19 -108 -88.5 -166.5t-173.5 -58.5zM417 659q-51 0 -79 26t-28 69q0 48 35 84t95 36 q50 0 78 -26t28 -68q0 -49 -34.5 -85t-94.5 -36zM420 709q27 0 44 20.5t17 47.5q0 21 -11 34t-33 13q-27 0 -44 -20.5t-17 -47.5q0 -47 44 -47z" />
<glyph unicode="&#x16f;" d="M167 -11q-58 0 -88.5 39t-18.5 106l40 225h-74l12 69h159l-51 -289q-16 -81 48 -81q59 0 151 81l52 289h85l-58 -329q-9 -47 34 -47q20 0 51 11l-11 -62q-35 -11 -69 -11q-86 0 -91 77q-90 -78 -171 -78zM306 500q-50 0 -78 26t-28 69q0 48 35 84t95 36q50 0 78 -26 t28 -68q0 -49 -35 -85t-95 -36zM309 550q27 0 44 20.5t17 47.5q0 47 -44 47q-27 0 -44 -20.5t-17 -47.5q0 -47 44 -47z" />
<glyph unicode="&#x170;" horiz-adv-x="688" d="M310 -12q-113 0 -172 65.5t-39 178.5l54 306h-89l12 71h267l-12 -71h-90l-57 -322q-13 -72 21.5 -111t104.5 -39q69 0 117.5 38t60.5 111l58 323h-92l12 71h265l-12 -71h-90l-57 -325q-19 -108 -88.5 -166.5t-173.5 -58.5zM311 666l-26 28l146 170l54 -58zM473 666 l-27 28l147 170l53 -58z" />
<glyph unicode="&#x171;" d="M167 -11q-58 0 -88.5 39t-18.5 106l40 225h-74l12 69h159l-51 -289q-16 -81 48 -81q59 0 151 81l52 289h85l-58 -329q-9 -47 34 -47q20 0 51 11l-11 -62q-35 -11 -69 -11q-86 0 -91 77q-90 -78 -171 -78zM198 504l-26 27l147 170l53 -58zM360 504l-26 27l146 170l53 -58z " />
<glyph unicode="&#x172;" horiz-adv-x="689" d="M331 -203q-40 0 -64 18.5t-24 55.5q0 67 78 117q-115 -3 -179 61t-43 183l54 306h-89l12 71h267l-12 -71h-90l-57 -322q-13 -73 22 -111.5t104 -38.5t117.5 38t60.5 111l58 323h-92l12 71h265l-12 -71h-90l-57 -325q-8 -46 -23.5 -80.5t-37.5 -57.5t-36.5 -34.5 t-37.5 -24.5q-26 -15 -42 -26t-36 -27.5t-30 -35t-10 -38.5q0 -37 40 -37q31 0 65 15l-4 -52q-44 -18 -89 -18z" />
<glyph unicode="&#x173;" d="M373 -202q-86 0 -86 73t92 128q-39 19 -41 68q-90 -78 -171 -78q-58 0 -88.5 39t-18.5 106l40 225h-74l12 69h159l-51 -289q-16 -81 48 -81q59 0 151 81l52 289h85l-58 -329q-9 -47 34 -47q20 0 51 11l-11 -62q-33 -10 -63 -11q-73 -55 -73 -102q0 -35 40 -35q32 0 64 15 l-4 -52q-44 -18 -89 -18z" />
<glyph unicode="&#x174;" horiz-adv-x="930" d="M197 0l-78 538h-75l12 71h252l-13 -71h-94l60 -431l204 383l-8 48h-81l12 71h260l-12 -71h-95l69 -429l207 429h-94l13 71h255l-13 -71h-76l-263 -538h-86l-67 373l-202 -373h-87zM388 666l-19 26l162 134h55l107 -134l-22 -26l-126 77z" />
<glyph unicode="&#x175;" horiz-adv-x="696" d="M156 0l-77 361h-68l12 67h123l65 -340q97 129 129 226l-9 47h-70l12 67h125l67 -344q61 72 99.5 146t38.5 114q0 13 -5.5 18.5t-19.5 5.5q-27 0 -63 -23l-23 51q55 42 109 42q40 0 59.5 -23t19.5 -59q0 -61 -55.5 -159t-142.5 -197h-70l-46 210q-56 -108 -138 -210h-72z M230 501l-18 27l161 133h55l106 -134l-22 -26l-125 78z" />
<glyph unicode="&#x176;" horiz-adv-x="629" d="M131 0l13 71h92l26 148l-143 319h-78l13 71h262l-13 -70h-94l105 -241l190 241h-93l12 70h269l-12 -71h-76l-253 -316l-27 -151h92l-13 -71h-272zM236 666l-18 26l161 134h56l107 -134l-23 -26l-126 77z" />
<glyph unicode="&#x177;" horiz-adv-x="481" d="M130 0l-46 361h-70l12 67h134l50 -421q69 84 118 180.5t49 146.5q0 33 -28 33q-27 0 -60 -23l-26 51q54 43 112 43q43 0 64 -24.5t21 -66.5q0 -58 -42 -152t-105.5 -184t-148 -155.5t-159.5 -65.5q-67 0 -119 52l37 49q38 -32 79 -32q86 0 202 141h-74zM124 501l-18 27 l161 133h55l107 -134l-23 -26l-125 78z" />
<glyph unicode="&#x178;" horiz-adv-x="629" d="M131 0l13 71h92l26 148l-143 319h-78l13 71h262l-13 -70h-94l105 -241l190 241h-93l12 70h269l-12 -71h-76l-253 -316l-27 -151h92l-13 -71h-272zM295 671q-23 0 -38 15.5t-15 37.5t15.5 37.5t37.5 15.5t37.5 -15.5t15.5 -37.5t-15.5 -37.5t-37.5 -15.5zM479 671 q-22 0 -37.5 15.5t-15.5 37.5t15.5 37.5t37.5 15.5t37.5 -15.5t15.5 -37.5t-15.5 -37.5t-37.5 -15.5z" />
<glyph unicode="&#x179;" horiz-adv-x="575" d="M18 0l-21 43l445 492h-267l-18 -105h-82l31 179h455l25 -39l-449 -496h286l19 111h82l-32 -185h-474zM310 666l-27 34l171 157l50 -64z" />
<glyph unicode="&#x17a;" horiz-adv-x="439" d="M16 -4l-22 39l295 331h-159l-13 -80h-72l24 142h325l20 -37l-287 -321q22 2 65 -4.5t59 -6.5q40 0 58 20.5t34 64.5l62 -17q-8 -28 -15 -45t-22.5 -41.5t-41.5 -37t-61 -12.5q-24 0 -76.5 10.5t-83.5 10.5q-36 0 -89 -16zM211 504l-28 35l171 156l50 -63z" />
<glyph unicode="&#x17b;" horiz-adv-x="575" d="M18 0l-21 43l445 492h-267l-18 -105h-82l31 179h455l25 -39l-449 -496h286l19 111h82l-32 -185h-474zM348 667q-23 0 -40.5 17t-17.5 41q0 23 17 40t41 17t41 -16.5t17 -40.5t-17 -41t-41 -17z" />
<glyph unicode="&#x17c;" horiz-adv-x="439" d="M16 -4l-22 39l295 331h-159l-13 -80h-72l24 142h325l20 -37l-287 -321q22 2 65 -4.5t59 -6.5q40 0 58 20.5t34 64.5l62 -17q-8 -28 -15 -45t-22.5 -41.5t-41.5 -37t-61 -12.5q-24 0 -76.5 10.5t-83.5 10.5q-36 0 -89 -16zM257 509q-23 0 -40 17t-17 40t17 40t40 17 q24 0 41 -16.5t17 -40.5t-16.5 -40.5t-41.5 -16.5z" />
<glyph unicode="&#x17d;" horiz-adv-x="575" d="M18 0l-21 43l445 492h-267l-18 -105h-82l31 179h455l25 -39l-449 -496h286l19 111h82l-32 -185h-474zM315 668l-109 134l23 26l127 -78l156 78l19 -27l-161 -133h-55z" />
<glyph unicode="&#x17e;" horiz-adv-x="439" d="M16 -4l-22 39l295 331h-159l-13 -80h-72l24 142h325l20 -37l-287 -321q22 2 65 -4.5t59 -6.5q40 0 58 20.5t34 64.5l62 -17q-8 -28 -15 -45t-22.5 -41.5t-41.5 -37t-61 -12.5q-24 0 -76.5 10.5t-83.5 10.5q-36 0 -89 -16zM219 507l-107 134l22 26l126 -78l156 78l19 -26 l-161 -134h-55z" />
<glyph unicode="&#x17f;" horiz-adv-x="240" d="M-40 -210q-34 0 -66 7l13 67q24 -6 47 -6q66 0 78 71l76 429h-84l12 70h84l25 140q25 150 175 150q32 0 76 -8l-11 -65q-37 5 -52 5q-44 0 -69.5 -19.5t-33.5 -64.5l-112 -634q-25 -142 -158 -142z" />
<glyph unicode="&#x1fc;" horiz-adv-x="948" d="M-49 0l12 70h78l395 469h-84l11 70h597l-29 -171h-82l18 100h-230l-35 -196h247l-12 -71h-247l-35 -200h231l20 103h82l-32 -174h-489l12 71h90l21 122h-247l-103 -123h84l-12 -70h-261zM300 263h202l49 275h-23zM620 666l-27 34l171 157l49 -64z" />
<glyph unicode="&#x1fd;" horiz-adv-x="691" d="M132 -11q-58 0 -94 30t-36 86q0 140 231 140h65l7 37q8 47 -11 68.5t-74 21.5q-66 0 -148 -26l12 67q80 26 153 26q115 0 132 -81q64 81 165 81q62 0 93.5 -30.5t31.5 -78.5q0 -140 -284 -147q0 -127 119 -127q61 0 137 36l-13 -71q-62 -32 -136 -32q-111 0 -162 73 q-97 -73 -188 -73zM155 54q64 0 142 57q-10 33 -8 75h-49q-46 0 -76.5 -5t-53 -22.5t-22.5 -48.5q0 -56 67 -56zM526 375q-51 0 -90.5 -36t-53.5 -94q200 4 200 85q0 45 -56 45zM368 504l-27 35l170 156l50 -63z" />
<glyph unicode="&#x1fe;" horiz-adv-x="706" d="M380 669l-28 35l171 156l50 -64zM321 -12q-113 0 -187 61l-68 -69l-29 27l69 69q-62 71 -62 186q0 148 100.5 253.5t255.5 105.5q114 0 188 -62l69 70l29 -26l-70 -70q63 -74 63 -187q0 -148 -101 -253t-257 -105zM324 62q110 0 187 81.5t77 200.5q0 77 -34 126 l-361 -362q51 -46 131 -46zM398 547q-111 0 -187 -82t-76 -201q0 -74 33 -126l360 362q-52 47 -130 47z" />
<glyph unicode="&#x1ff;" horiz-adv-x="499" d="M261 504l-27 35l170 156l50 -63zM215 -11q-83 0 -132 43l-58 -55l-24 23l59 56q-36 48 -36 126q0 107 67.5 182t178.5 75q84 0 137 -48l54 52l23 -23l-56 -54q33 -49 33 -120q0 -108 -67.5 -182.5t-178.5 -74.5zM218 55q68 0 111 57t43 134q0 32 -9 56l-223 -214 q28 -33 78 -33zM267 372q-68 0 -111.5 -56.5t-43.5 -133.5q0 -37 12 -64l224 216q-28 38 -81 38z" />
<glyph unicode="&#x218;" horiz-adv-x="519" d="M212 -70q25 0 38.5 -15.5t13.5 -40.5q0 -77 -115 -159l-33 29q66 66 66 112q0 34 -27 48l1 7q28 19 56 19zM226 -12q-114 0 -216 34l25 142h80l-16 -87q65 -18 125 -18q75 0 114 27.5t39 73.5q0 33 -21.5 57t-54.5 36.5t-70.5 28.5t-70.5 32.5t-54.5 49.5t-21.5 79 q0 77 57.5 127.5t169.5 50.5q94 0 195 -33l-24 -139h-81l15 87q-51 14 -103 14q-72 0 -106.5 -28.5t-34.5 -69.5q0 -26 16 -45.5t42 -31.5t57 -23.5t62 -26t57 -33.5t42 -51t16 -75q0 -85 -61 -131.5t-177 -46.5z" />
<glyph unicode="&#x219;" horiz-adv-x="372" d="M139 -70q26 0 39 -15.5t13 -40.5q0 -77 -115 -159l-32 29q65 67 65 112q0 34 -27 48l1 7q28 19 56 19zM146 -11q-81 0 -145 29l11 64q68 -28 133 -28q46 0 69.5 16t23.5 42q0 27 -30.5 46.5t-66.5 32t-66.5 42.5t-30.5 76q0 56 42.5 93t122.5 37q62 0 130 -24l-11 -62 q-64 22 -115 22q-46 0 -65.5 -16t-19.5 -38t20 -38t48.5 -27.5t57.5 -26t49 -41.5t20 -65q0 -54 -41.5 -94t-135.5 -40z" />
<glyph unicode="&#x21a;" horiz-adv-x="580" d="M228 -67q26 0 39 -15t13 -40q0 -77 -115 -159l-33 29q66 64 66 112q0 33 -27 48l1 7q27 18 56 18zM104 0l13 71h96l82 467h-146l-17 -101h-80l30 172h540l-30 -172h-80l17 101h-145l-83 -467h97l-13 -71h-281z" />
<glyph unicode="&#x21b;" horiz-adv-x="323" d="M133 -67q26 0 39 -15t13 -40q0 -78 -115 -159l-32 29q65 65 65 112q0 33 -27 48l1 7q28 18 56 18zM166 -11q-59 0 -89.5 33.5t-18.5 96.5l42 241h-73l12 68h73l19 110h86l-20 -110h125l-13 -68h-123l-43 -246q-10 -58 51 -58q27 0 87 21l-12 -65q-48 -23 -103 -23z" />
<glyph unicode="&#x237;" horiz-adv-x="239" d="M-36 -210q-29 0 -63 10l12 66q22 -8 44 -8q62 0 74 71l76 430h-81l13 69h166l-88 -496q-25 -142 -153 -142z" />
<glyph unicode="&#x2c6;" horiz-adv-x="434" d="M74 501l-18 27l161 133h55l106 -134l-22 -26l-125 78z" />
<glyph unicode="&#x2c7;" horiz-adv-x="439" d="M174 507l-107 134l22 26l127 -78l155 78l19 -26l-161 -134h-55z" />
<glyph unicode="&#x2d8;" horiz-adv-x="377" d="M184 509q-69 0 -101.5 40.5t-24.5 102.5h63q-5 -76 69 -76t97 76h63q-15 -66 -58 -104.5t-108 -38.5z" />
<glyph unicode="&#x2d9;" horiz-adv-x="240" d="M121 509q-23 0 -40 17t-17 40t16.5 40t40.5 17q23 0 40 -16.5t17 -40.5q0 -23 -16.5 -40t-40.5 -17z" />
<glyph unicode="&#x2da;" horiz-adv-x="357" d="M171 500q-51 0 -79 26t-28 69q0 48 35 84t95 36q50 0 78 -26t28 -68q0 -49 -34.5 -85t-94.5 -36zM174 550q27 0 43.5 20.5t16.5 47.5q0 47 -43 47q-27 0 -44 -20.5t-17 -47.5q0 -47 44 -47z" />
<glyph unicode="&#x2db;" horiz-adv-x="286" d="M131 -202q-39 0 -63 18t-24 55q0 55 48 95t110 65l24 -20q-41 -24 -73.5 -56.5t-32.5 -66.5q0 -35 39 -35q31 0 65 15l-4 -52q-44 -18 -89 -18z" />
<glyph unicode="&#x2dc;" horiz-adv-x="464" d="M87 508l-32 18q55 107 119 107q27 0 68 -25.5t64 -25.5q38 0 72 53l31 -19q-58 -107 -121 -107q-26 0 -68 26t-63 26q-35 0 -70 -53z" />
<glyph unicode="&#x2dd;" horiz-adv-x="488" d="M92 504l-26 27l147 170l53 -58zM254 504l-26 27l146 170l53 -58z" />
<glyph unicode="&#x2013;" horiz-adv-x="621" d="M46 195l13 74h508l-13 -74h-508z" />
<glyph unicode="&#x2014;" horiz-adv-x="831" d="M46 195l13 74h718l-13 -74h-718z" />
<glyph unicode="&#x2018;" horiz-adv-x="209" d="M132 411q-25 0 -40.5 16.5t-15.5 41.5q0 39 37.5 87t89.5 85l31 -32q-66 -58 -81 -94q36 -12 36 -48q0 -23 -16.5 -39.5t-40.5 -16.5z" />
<glyph unicode="&#x2019;" horiz-adv-x="206" d="M172 641q24 0 40 -17t16 -42q0 -38 -38 -86t-89 -85l-31 32q65 55 81 93q-36 12 -36 49q0 22 16.5 39t40.5 17z" />
<glyph unicode="&#x201a;" horiz-adv-x="222" d="M77 104q24 0 40 -17t16 -42q0 -38 -38 -86t-89 -85l-31 32q66 58 81 94q-16 4 -26 18t-10 30q0 22 16.5 39t40.5 17z" />
<glyph unicode="&#x201c;" horiz-adv-x="385" d="M308 411q-25 0 -40.5 16.5t-15.5 41.5q0 39 37.5 87t88.5 85l32 -32q-66 -58 -81 -94q36 -12 36 -48q0 -23 -16.5 -39.5t-40.5 -16.5zM132 411q-25 0 -40.5 16.5t-15.5 41.5q0 39 37.5 87t89.5 85l31 -32q-66 -58 -81 -94q36 -12 36 -48q0 -23 -16.5 -39.5t-40.5 -16.5z " />
<glyph unicode="&#x201d;" horiz-adv-x="381" d="M172 641q24 0 40 -17t16 -42q0 -38 -38 -86t-89 -85l-31 32q65 55 81 93q-36 12 -36 49q0 22 16.5 39t40.5 17zM348 641q24 0 40 -17t16 -42q0 -38 -38 -86t-89 -85l-31 32q66 58 81 93q-36 12 -36 49q0 22 16.5 39t40.5 17z" />
<glyph unicode="&#x201e;" horiz-adv-x="398" d="M77 104q24 0 40 -17t16 -42q0 -38 -38 -86t-89 -85l-31 32q66 58 81 94q-16 4 -26 18t-10 30q0 22 16.5 39t40.5 17zM253 104q24 0 39.5 -17t15.5 -42q0 -38 -37.5 -86t-88.5 -85l-31 32q64 56 81 94q-16 4 -26 18t-10 30q0 22 16.5 39t40.5 17z" />
<glyph unicode="&#x2020;" horiz-adv-x="459" d="M174 -79q-11 0 -11 26q0 18 14 100.5t14 146.5q0 71 -5 94q15 18 19 23.5t13 18t11.5 21t2.5 17.5q0 43 -44 43q-16 0 -46 -10t-46 -10q-20 0 -30 9.5t-10 23.5q0 17 14 28t37 11q17 0 44.5 -10t42.5 -10q27 0 44.5 18.5t17.5 49.5q0 10 -3.5 30.5t-3.5 30.5 q0 28 12.5 43.5t31.5 15.5q32 0 32 -37q0 -21 -19.5 -54.5t-19.5 -53.5q0 -19 11 -31t33 -12q15 0 46.5 10t47.5 10q19 0 29 -9t10 -23q0 -17 -14 -28.5t-38 -11.5q-17 0 -44 10t-43 10q-28 0 -44.5 -17t-16.5 -42q0 -14 19 -64q-40 -72 -64 -214q-1 -8 -3.5 -23.5t-4 -24.5 t-3.5 -23t-4 -22.5t-4.5 -19t-5 -17t-5.5 -12.5t-6.5 -8.5t-7.5 -2.5z" />
<glyph unicode="&#x2021;" horiz-adv-x="489" d="M188 -80q-13 0 -22 9.5t-9 27.5q0 22 19 55.5t19 53.5q0 43 -43 43q-15 0 -46.5 -10.5t-47.5 -10.5q-19 0 -29 9.5t-10 22.5q0 17 14 28.5t37 11.5q17 0 44.5 -10t43.5 -10q28 0 44.5 18t16.5 44q0 21 -17 74q47 64 47 93q0 42 -44 42q-15 0 -46.5 -10t-46.5 -10 q-19 0 -29.5 9.5t-10.5 23.5q0 17 14 28t37 11q18 0 45 -10t43 -10q27 0 44.5 18.5t17.5 49.5q0 10 -4 30.5t-4 29.5q0 28 13 44t32 16q32 0 32 -37q0 -21 -19.5 -54.5t-19.5 -53.5q0 -43 44 -43q15 0 46 10t47 10q19 0 29.5 -9t10.5 -23q0 -17 -13.5 -28.5t-37.5 -11.5 q-18 0 -45 10t-43 10q-28 0 -44.5 -17.5t-16.5 -43.5q0 -24 16 -74q-47 -68 -47 -94q0 -42 44 -42q15 0 46.5 10t47.5 10q39 0 39 -33q0 -17 -13.5 -28t-37.5 -11q-18 0 -45 10.5t-42 10.5q-28 0 -45 -18.5t-17 -50.5q0 -10 3.5 -30t3.5 -30q0 -28 -13.5 -44t-31.5 -16z" />
<glyph unicode="&#x2022;" horiz-adv-x="357" d="M183 184q-46 0 -78.5 32.5t-32.5 78.5t32.5 78t78.5 32t78.5 -32t32.5 -78t-32.5 -78.5t-78.5 -32.5z" />
<glyph unicode="&#x2026;" horiz-adv-x="786" d="M71 -9q-23 0 -39.5 16.5t-16.5 39.5t16.5 40t39.5 17t39.5 -17t16.5 -40t-16.5 -39.5t-39.5 -16.5zM358 -9q-23 0 -39.5 16.5t-16.5 39.5t16.5 40t39.5 17t39.5 -17t16.5 -40t-16.5 -39.5t-39.5 -16.5zM645 -9q-23 0 -39.5 16.5t-16.5 39.5t16.5 40t39.5 17t40 -17 t17 -40t-17 -39.5t-40 -16.5z" />
<glyph unicode="&#x2030;" horiz-adv-x="897" d="M168 233q-50 0 -77 28t-27 79q0 60 36 102t100 42q51 0 77.5 -27.5t26.5 -78.5q0 -60 -36 -102.5t-100 -42.5zM172 281q31 0 50.5 26t19.5 68q0 62 -47 62q-30 0 -49.5 -26.5t-19.5 -67.5q0 -62 46 -62zM439 0q-51 0 -77.5 28t-26.5 78q0 61 36 103t100 42q50 0 77 -28 t27 -78q0 -60 -36 -102.5t-100 -42.5zM443 47q31 0 50.5 26t19.5 68q0 62 -47 62q-30 0 -49.5 -26t-19.5 -68q0 -62 46 -62zM97 0l-34 33l480 450l33 -34zM709 0q-50 0 -77 28t-27 78q0 61 36 103t100 42q51 0 77.5 -27.5t26.5 -78.5q0 -60 -36 -102.5t-100 -42.5zM713 47 q31 0 50.5 26t19.5 68q0 62 -46 62q-31 0 -50.5 -26t-19.5 -68q0 -62 46 -62z" />
<glyph unicode="&#x2039;" horiz-adv-x="315" d="M152 75l-119 182l1 4l183 181h100l-196 -191l120 -176h-89z" />
<glyph unicode="&#x203a;" horiz-adv-x="316" d="M1 75l196 192l-120 175h89l119 -181l-1 -4l-183 -182h-100z" />
<glyph unicode="&#x2044;" horiz-adv-x="382" d="M-6 -15l-41 27l454 611l40 -26z" />
<glyph unicode="&#x20ac;" horiz-adv-x="589" d="M324 -8q-92 0 -152 51.5t-68 142.5h-83l17 32h64q0 31 8 65h-72l17 32h64q29 83 101.5 134t177.5 51q94 0 166 -35l-22 -123h-72l14 79q-42 12 -85 12q-66 0 -117 -31t-77 -87h198l-17 -32h-193q-7 -35 -7 -65h166l-17 -32h-147q18 -124 149 -124q80 0 170 48l-13 -74 q-86 -44 -170 -44z" />
<glyph unicode="&#x2116;" horiz-adv-x="1048" d="M837 161q-64 0 -105.5 37t-41.5 105q0 77 51.5 132.5t131.5 55.5q65 0 106.5 -38t41.5 -106q0 -77 -51 -131.5t-133 -54.5zM839 224q46 0 76 35.5t30 85.5q0 39 -19 60.5t-54 21.5q-45 0 -75 -35t-30 -87q0 -37 18.5 -59t53.5 -22zM645 30l12 64h317l-12 -64h-317zM-5 0 l13 68h88l83 473h-88l11 68h167l211 -468l70 400h-88l11 68h252l-12 -68h-88l-96 -541h-68l-217 480l-73 -412h88l-12 -68h-252z" />
<glyph unicode="&#x2122;" horiz-adv-x="713" d="M338 361l6 30h33l39 187h-34l5 31h86l44 -178l106 178h86l-5 -32h-34l-26 -186h33l-6 -30h-106l6 30h35l22 161l-103 -171h-29l-46 174l-34 -164h36l-6 -30h-108zM134 361l6 30h37l32 184h-55l-8 -44h-35l13 78h224l-13 -78h-35l8 44h-56l-32 -184h36l-6 -30h-116z" />
<glyph unicode="&#x2212;" horiz-adv-x="536" d="M51 204l12 66h415l-12 -66h-415z" />
<glyph unicode="&#x2248;" horiz-adv-x="593" d="M107 271l-47 24q26 44 44 69t51.5 48.5t71.5 23.5q37 0 71.5 -21.5t64.5 -43t56 -21.5q53 0 107 89l46 -25q-76 -140 -161 -140q-40 0 -98.5 44.5t-93.5 44.5q-25 0 -47.5 -16t-33 -30.5t-31.5 -45.5zM72 69l-47 24q19 33 32.5 52t34.5 43t46 35.5t54 11.5 q37 0 71.5 -21.5t64.5 -43.5t56 -22q52 0 106 89l47 -25q-76 -140 -161 -140q-41 0 -99 44.5t-94 44.5q-25 0 -47.5 -16.5t-32.5 -30t-31 -45.5z" />
<glyph unicode="&#x2260;" horiz-adv-x="574" d="M105 -78l-40 21l94 146h-109l12 69h142l101 157h-216l13 69h248l109 169l41 -21l-96 -148h113l-13 -69h-145l-101 -157h219l-12 -69h-252z" />
<glyph unicode="&#x2264;" horiz-adv-x="498" d="M14 32l11 57h386l-10 -57h-387zM417 120l-361 150l8 44l413 149l-12 -68l-302 -106l266 -103z" />
<glyph unicode="&#x2265;" horiz-adv-x="494" d="M17 32l10 57h387l-10 -57h-387zM33 120l12 68l302 107l-266 102l12 66l361 -149l-8 -44z" />
<glyph unicode="&#xe000;" horiz-adv-x="440" d="M0 440h440v-440h-440v440z" />
<glyph unicode="&#xe04a;" horiz-adv-x="741" d="M267 0q-108 0 -170 55t-62 156q0 119 83.5 197.5t218.5 78.5h396l-25 -141h-77l13 76h-176l-25 -144h190l-12 -65h-190l-26 -147h179l13 78h78l-25 -144h-383zM271 68h54l63 352h-55q-89 0 -150 -57t-61 -149q0 -72 39.5 -109t109.5 -37z" />
<glyph unicode="&#xefed;" horiz-adv-x="239" d="M121 667q-24 0 -41 17t-17 41q0 23 17 40t41 17t41 -16.5t17 -40.5q0 -23 -17 -40.5t-41 -17.5z" />
<glyph unicode="&#xefee;" horiz-adv-x="386" d="M184 663q-69 0 -102 41t-25 103h64q-6 -76 69 -76q76 0 97 76h64q-14 -67 -58 -105.5t-109 -38.5z" />
<glyph unicode="&#xeff1;" horiz-adv-x="297" d="M202 35l24 -21q-41 -22 -74 -56.5t-33 -69.5q0 -36 41 -36q34 0 64 16l-4 -54q-47 -17 -88 -17q-89 0 -89 74q0 56 48.5 97.5t110.5 66.5z" />
<glyph unicode="&#xeff2;" horiz-adv-x="304" d="M119 -203q-50 0 -87 15l15 49q35 -14 68 -14q53 0 53 32q0 38 -72 38l5 19l68 101l42 -12l-40 -74q73 -11 73 -71q0 -41 -35 -62t-90 -21z" />
<glyph unicode="&#xeff3;" horiz-adv-x="352" d="M171 659q-51 0 -79 26t-28 69q0 48 35 84t95 36q50 0 78 -26t28 -68q0 -49 -34.5 -85t-94.5 -36zM174 709q27 0 43.5 20.5t16.5 47.5q0 47 -43 47q-27 0 -44 -20.5t-17 -47.5q0 -47 44 -47z" />
<glyph unicode="&#xeff5;" horiz-adv-x="466" d="M85 670l-31 18q52 107 119 107q26 0 68.5 -25.5t65.5 -25.5q38 0 72 53l31 -19q-55 -107 -121 -107q-25 0 -68.5 26t-64.5 26q-34 0 -71 -53z" />
<glyph unicode="&#xeff7;" horiz-adv-x="434" d="M74 666l-19 26l162 134h55l107 -134l-22 -26l-126 77z" />
<glyph unicode="&#xf633;" horiz-adv-x="750" d="M326 118q-55 0 -88.5 37t-33.5 99q0 87 61.5 154t148.5 67q89 0 107 -71h2q11 28 27 55h51q-74 -177 -74 -245q0 -54 39 -54q46 0 84 55.5t38 141.5q0 110 -67 177.5t-176 67.5q-138 0 -247 -101t-109 -241q0 -112 72.5 -186.5t185.5 -74.5q94 0 177 51l18 -35 q-98 -58 -195 -58q-132 0 -216.5 87t-84.5 216q0 104 57.5 193.5t149 140t191.5 50.5q126 0 206.5 -79t80.5 -210q0 -105 -51.5 -171t-122.5 -66q-44 0 -64 24t-20 50h-4q-60 -74 -143 -74zM343 171q58 0 101.5 53t43.5 119q0 80 -69 80q-59 0 -103.5 -52t-44.5 -118 q0 -82 72 -82z" />
<glyph unicode="&#xf66d;" horiz-adv-x="584" d="M-36 0l11 65h65l209 357h-67l11 65h194l98 -422h66l-12 -65h-221l12 65h75l-20 88h-209l-50 -88h75l-11 -65h-226zM212 218h160l-45 200zM332 544q-66 0 -97 39t-23 98h60q-5 -74 66 -74t93 74h61q-14 -64 -55.5 -100.5t-104.5 -36.5z" />
<glyph unicode="&#xf66e;" horiz-adv-x="584" d="M-36 0l11 65h65l209 357h-67l11 65h194l98 -422h66l-12 -65h-221l12 65h75l-20 88h-209l-50 -88h75l-11 -65h-226zM212 218h160l-45 200zM197 557l11 62h261l-11 -62h-261z" />
<glyph unicode="&#xf66f;" horiz-adv-x="584" d="M422 -198q-38 0 -61.5 17.5t-23.5 53.5q0 73 97 127h-116l12 65h75l-20 88h-209l-50 -88h75l-11 -65h-226l11 65h65l209 357h-67l11 65h194l98 -422h66l-12 -65h-39q-90 -56 -90 -111q0 -34 39 -34q27 0 62 14l-4 -50q-45 -17 -85 -17zM212 218h160l-45 200z" />
<glyph unicode="&#xf670;" horiz-adv-x="810" d="M-37 0l11 65h64l314 358h-64l11 64h502l-25 -141h-76l14 76h-180l-25 -144h193l-11 -65h-193l-27 -147h182l16 78h76l-27 -144h-410l12 65h73l15 88h-200l-75 -88h73l-12 -65h-231zM260 215h159l37 207h-19zM505 540l-26 33l165 148l48 -60z" />
<glyph unicode="&#xf671;" horiz-adv-x="527" d="M272 -10q-106 0 -172 56.5t-66 164.5q0 125 87 205.5t222 80.5q93 0 182 -36l-22 -132h-80l15 87q-41 13 -95 13q-98 0 -160.5 -59.5t-62.5 -154.5q0 -75 43 -115.5t119 -40.5q79 0 182 47l-13 -73q-86 -43 -179 -43zM303 545l-26 33l165 148l48 -61z" />
<glyph unicode="&#xf672;" horiz-adv-x="527" d="M272 -10q-106 0 -172 56.5t-66 164.5q0 125 87 205.5t222 80.5q93 0 182 -36l-22 -132h-80l15 87q-41 13 -95 13q-98 0 -160.5 -59.5t-62.5 -154.5q0 -75 43 -115.5t119 -40.5q79 0 182 47l-13 -73q-86 -43 -179 -43zM322 550l-103 128l22 24l120 -75l150 76l18 -25 l-154 -128h-53z" />
<glyph unicode="&#xf673;" horiz-adv-x="527" d="M272 -10q-106 0 -172 56.5t-66 164.5q0 125 87 205.5t222 80.5q93 0 182 -36l-22 -132h-80l15 87q-41 13 -95 13q-98 0 -160.5 -59.5t-62.5 -154.5q0 -75 43 -115.5t119 -40.5q79 0 182 47l-13 -73q-86 -43 -179 -43zM213 545l-17 26l155 127h53l101 -128l-21 -25 l-120 75z" />
<glyph unicode="&#xf674;" horiz-adv-x="527" d="M272 -10q-106 0 -172 56.5t-66 164.5q0 125 87 205.5t222 80.5q93 0 182 -36l-22 -132h-80l15 87q-41 13 -95 13q-98 0 -160.5 -59.5t-62.5 -154.5q0 -75 43 -115.5t119 -40.5q79 0 182 47l-13 -73q-86 -43 -179 -43zM363 553q-23 0 -38.5 15.5t-15.5 38.5q0 22 16 38 t38 16t38 -16t16 -38q0 -23 -15.5 -38.5t-38.5 -15.5z" />
<glyph unicode="&#xf675;" horiz-adv-x="583" d="M-6 0l12 65h72l63 357h-72l11 65h223q112 0 176 -55.5t64 -159.5q0 -118 -82 -195t-231 -77h-236zM162 66h72q105 0 164 57.5t59 148.5q0 73 -40.5 111.5t-119.5 38.5h-72zM291 545l-103 128l22 24l121 -75l149 76l18 -25l-154 -128h-53z" />
<glyph unicode="&#xf676;" horiz-adv-x="584" d="M42 215l11 61h63l26 146h-73l12 65h222q113 0 177 -55.5t64 -159.5q0 -118 -82 -195t-231 -77h-236l11 65h73l26 150h-63zM163 66h72q105 0 163.5 57.5t58.5 148.5q0 73 -40 111.5t-119 38.5h-72l-26 -146h132l-11 -61h-132z" />
<glyph unicode="&#xf677;" horiz-adv-x="505" d="M-6 0l12 65h72l63 357h-72l11 65h417l-25 -141h-77l13 76h-183l-25 -144h197l-11 -65h-198l-26 -147h186l13 78h78l-25 -144h-420zM303 544q-66 0 -97 39t-23 98h60q-6 -74 66 -74q70 0 93 74h61q-14 -64 -55.5 -100.5t-104.5 -36.5z" />
<glyph unicode="&#xf678;" horiz-adv-x="505" d="M-6 0l12 65h72l63 357h-72l11 65h417l-25 -141h-77l13 76h-183l-25 -144h197l-11 -65h-198l-26 -147h186l13 78h78l-25 -144h-420zM276 545l-103 128l22 24l121 -75l150 76l17 -25l-154 -128h-53z" />
<glyph unicode="&#xf679;" horiz-adv-x="505" d="M-6 0l12 65h72l63 357h-72l11 65h417l-25 -141h-77l13 76h-183l-25 -144h197l-11 -65h-198l-26 -147h186l13 78h78l-25 -144h-420zM315 548q-23 0 -38.5 16t-15.5 38t15.5 38t38.5 16q22 0 38 -16t16 -38t-16 -38t-38 -16z" />
<glyph unicode="&#xf67a;" horiz-adv-x="505" d="M-6 0l12 65h72l63 357h-72l11 65h417l-25 -141h-77l13 76h-183l-25 -144h197l-11 -65h-198l-26 -147h186l13 78h78l-25 -144h-420zM175 557l10 62h262l-11 -62h-261z" />
<glyph unicode="&#xf67b;" horiz-adv-x="638" d="M-6 0l11 65h74l63 357h-74l12 65h147l211 -354l50 289h-78l11 65h229l-12 -65h-73l-73 -414q-6 -36 -23.5 -63t-45 -44t-46.5 -25t-50 -18l-21 57q92 36 103 96l3 22l-203 339l-53 -307h78l-11 -65h-229z" />
<glyph unicode="&#xf67c;" horiz-adv-x="505" d="M-6 0l12 65h72l63 357h-72l11 65h417l-25 -141h-77l13 76h-183l-25 -144h197l-11 -65h-198l-26 -147h186l13 78h78l-25 -144h-37q-90 -56 -90 -111q0 -34 40 -34q27 0 62 14l-4 -50q-45 -17 -85 -17q-38 0 -62 17.5t-24 53.5q0 73 97 127h-317z" />
<glyph unicode="&#xf67d;" horiz-adv-x="589" d="M279 -10q-114 0 -179.5 57t-65.5 164q0 125 87 205.5t233 80.5q105 0 192 -36l-22 -123h-78l14 76q-56 15 -106 15q-102 0 -167.5 -58t-65.5 -155q0 -72 40.5 -115t125.5 -43q55 0 126 23l20 117h-112l11 64h231l-12 -64h-41l-29 -164q-112 -44 -202 -44zM366 549 q-66 0 -97 38.5t-23 98.5h60q-5 -74 66 -74t93 74h61q-14 -64 -55.5 -100.5t-104.5 -36.5z" />
<glyph unicode="&#xf67e;" horiz-adv-x="589" d="M279 -10q-114 0 -179.5 57t-65.5 164q0 125 87 205.5t233 80.5q105 0 192 -36l-22 -123h-78l14 76q-56 15 -106 15q-102 0 -167.5 -58t-65.5 -155q0 -72 40.5 -115t125.5 -43q55 0 126 23l20 117h-112l11 64h231l-12 -64h-41l-29 -164q-112 -44 -202 -44zM223 545l-17 26 l155 127h52l102 -128l-21 -25l-120 75z" />
<glyph unicode="&#xf67f;" horiz-adv-x="589" d="M261 -63q24 0 36 -14t12 -37q0 -71 -105 -145l-30 27q61 57 61 103q0 29 -26 43l1 6q26 17 51 17zM279 -10q-114 0 -179.5 57t-65.5 164q0 125 87 205.5t233 80.5q105 0 192 -36l-22 -123h-78l14 76q-56 15 -106 15q-102 0 -167.5 -58t-65.5 -155q0 -72 40.5 -115 t125.5 -43q55 0 126 23l20 117h-112l11 64h231l-12 -64h-41l-29 -164q-112 -44 -202 -44z" />
<glyph unicode="&#xf680;" horiz-adv-x="589" d="M279 -10q-114 0 -179.5 57t-65.5 164q0 125 87 205.5t233 80.5q105 0 192 -36l-22 -123h-78l14 76q-56 15 -106 15q-102 0 -167.5 -58t-65.5 -155q0 -72 40.5 -115t125.5 -43q55 0 126 23l20 117h-112l11 64h231l-12 -64h-41l-29 -164q-112 -44 -202 -44zM373 553 q-23 0 -38.5 15.5t-15.5 38.5q0 22 16 38t38 16t38 -16t16 -38t-16 -38t-38 -16z" />
<glyph unicode="&#xf681;" horiz-adv-x="649" d="M65 335l6 36h62l9 51h-73l12 65h229l-12 -65h-73l-9 -51h258l9 51h-72l11 65h229l-12 -65h-72l-9 -51h68l-6 -36h-69l-47 -270h72l-11 -65h-229l12 65h72l26 147h-257l-27 -147h73l-11 -65h-229l11 65h73l47 270h-61zM200 279h258l10 57h-258z" />
<glyph unicode="&#xf682;" horiz-adv-x="649" d="M238 540l-17 26l155 127h53l101 -128l-21 -25l-120 75zM-6 0l12 65h72l63 357h-72l11 65h229l-11 -65h-73l-25 -143h258l25 143h-73l12 65h229l-12 -65h-72l-63 -357h72l-11 -65h-229l11 65h73l26 147h-258l-26 -147h73l-12 -65h-229z" />
<glyph unicode="&#xf683;" horiz-adv-x="308" d="M-6 0l12 65h72l63 357h-72l11 65h229l-11 -65h-73l-63 -357h73l-12 -65h-229zM207 544q-66 0 -97 39t-23 98h60q-6 -74 66 -74q71 0 93 74h61q-14 -64 -55.5 -100.5t-104.5 -36.5z" />
<glyph unicode="&#xf685;" horiz-adv-x="308" d="M-6 0l12 65h72l63 357h-72l11 65h229l-11 -65h-73l-63 -357h73l-12 -65h-229zM75 557l11 62h261l-11 -62h-261z" />
<glyph unicode="&#xf686;" horiz-adv-x="308" d="M-6 0l12 65h72l63 357h-72l11 65h229l-11 -65h-73l-63 -357h73l-12 -65h-53q-90 -56 -90 -111q0 -34 39 -34q27 0 62 14l-4 -50q-45 -17 -85 -17q-38 0 -61.5 17.5t-23.5 53.5q0 73 97 127h-110z" />
<glyph unicode="&#xf687;" horiz-adv-x="308" d="M-6 0l12 65h72l63 357h-72l11 65h229l-11 -65h-73l-63 -357h73l-12 -65h-229zM73 545l-30 17q53 102 115 102q26 0 65 -24.5t61 -24.5q37 0 70 51l30 -18q-55 -102 -117 -102q-25 0 -65.5 25t-60.5 25q-32 0 -68 -51z" />
<glyph unicode="&#xf688;" horiz-adv-x="289" d="M-21 -142l-21 57q91 36 102 96l73 411h-73l11 65h230l-12 -65h-72l-73 -414q-6 -36 -23.5 -63t-45.5 -44t-46.5 -25t-49.5 -18zM59 540l-17 26l155 127h53l101 -128l-21 -25l-120 75z" />
<glyph unicode="&#xf689;" horiz-adv-x="586" d="M280 -58q24 0 36 -14t12 -37q0 -72 -104 -145l-30 27q60 56 60 103q0 29 -26 43l1 6q28 17 51 17zM389 0l-168 241v2l211 180h-69l11 64h227l-12 -65h-55l-215 -184l125 -173h86l-11 -65h-130zM-6 0l12 65h72l63 357h-72l11 65h229l-11 -65h-73l-63 -357h73l-12 -65h-229 z" />
<glyph unicode="&#xf68a;" horiz-adv-x="474" d="M-6 0l12 65h72l63 357h-72l11 65h238l-12 -65h-81l-63 -356h183l14 83h77l-26 -149h-416zM173 540l-26 33l165 148l47 -60z" />
<glyph unicode="&#xf68b;" horiz-adv-x="482" d="M425 494q48 0 48 -52q0 -71 -104 -144l-30 27q60 56 60 102q0 30 -26 44l1 5q27 18 51 18zM-6 0l12 65h72l63 357h-72l11 65h238l-12 -65h-81l-63 -356h183l14 83h77l-26 -149h-416z" />
<glyph unicode="&#xf68c;" horiz-adv-x="474" d="M223 -58q24 0 36.5 -14t12.5 -37q0 -71 -105 -145l-30 27q61 57 61 103q0 29 -27 43l2 6q26 17 50 17zM-6 0l12 65h72l63 357h-72l11 65h238l-12 -65h-81l-63 -356h183l14 83h77l-26 -149h-416z" />
<glyph unicode="&#xf68d;" horiz-adv-x="475" d="M-6 0l12 65h72l63 357h-72l11 65h238l-12 -65h-81l-63 -356h183l14 83h77l-26 -149h-416zM367 221q-23 0 -38.5 15.5t-15.5 38.5q0 22 16 38t38 16t38 -16t16 -38q0 -23 -15.5 -38.5t-38.5 -15.5z" />
<glyph unicode="&#xf68e;" horiz-adv-x="638" d="M-6 0l11 65h74l63 357h-74l12 65h147l208 -371l53 306h-78l11 65h229l-12 -65h-73l-74 -422h-71l-211 372l-53 -307h78l-11 -65h-229zM326 540l-26 33l165 148l47 -60z" />
<glyph unicode="&#xf68f;" horiz-adv-x="638" d="M-6 0l11 65h74l63 357h-74l12 65h147l208 -371l53 306h-78l11 65h229l-12 -65h-73l-74 -422h-71l-211 372l-53 -307h78l-11 -65h-229zM335 545l-103 128l22 24l120 -75l150 76l18 -25l-154 -128h-53z" />
<glyph unicode="&#xf690;" horiz-adv-x="638" d="M288 -58q24 0 36 -14t12 -37q0 -71 -105 -145l-30 27q61 57 61 103q0 29 -26 43l1 6q26 17 51 17zM-6 0l11 65h74l63 357h-74l12 65h147l208 -371l53 306h-78l11 65h229l-12 -65h-73l-74 -422h-71l-211 372l-53 -307h78l-11 -65h-229z" />
<glyph unicode="&#xf691;" horiz-adv-x="605" d="M267 -10q-109 0 -171 59.5t-62 160.5q0 121 84.5 204t215.5 83q109 0 171 -60t62 -161q0 -120 -84.5 -203t-215.5 -83zM270 58q87 0 149 61.5t62 153.5q0 72 -40.5 114t-109.5 42q-87 0 -149 -62t-62 -153q0 -72 40.5 -114t109.5 -42zM361 549q-66 0 -97 38.5t-23 98.5 h60q-6 -74 66 -74q70 0 93 74h61q-14 -64 -55.5 -100.5t-104.5 -36.5z" />
<glyph unicode="&#xf692;" horiz-adv-x="605" d="M267 -10q-109 0 -171 59.5t-62 160.5q0 121 84.5 204t215.5 83q109 0 171 -60t62 -161q0 -120 -84.5 -203t-215.5 -83zM270 58q87 0 149 61.5t62 153.5q0 72 -40.5 114t-109.5 42q-87 0 -149 -62t-62 -153q0 -72 40.5 -114t109.5 -42zM257 548l-25 26l141 162l50 -55z M413 548l-25 26l141 162l50 -55z" />
<glyph unicode="&#xf693;" horiz-adv-x="605" d="M267 -10q-109 0 -171 59.5t-62 160.5q0 121 84.5 204t215.5 83q109 0 171 -60t62 -161q0 -120 -84.5 -203t-215.5 -83zM270 58q87 0 149 61.5t62 153.5q0 72 -40.5 114t-109.5 42q-87 0 -149 -62t-62 -153q0 -72 40.5 -114t109.5 -42zM227 561l11 62h261l-10 -62h-262z " />
<glyph unicode="&#xf694;" horiz-adv-x="604" d="M323 545l-26 33l164 148l48 -61zM266 -10q-98 0 -159 49l-56 -54l-26 26l57 52q-49 56 -49 147q0 121 84.5 204t215.5 83q96 0 159 -49l57 53l25 -25l-57 -54q49 -57 49 -146q0 -120 -84.5 -203t-215.5 -83zM269 58q87 0 149 61.5t62 153.5q0 52 -24 92l-290 -271 q39 -36 103 -36zM330 429q-87 0 -149 -62t-62 -153q0 -56 24 -93l290 272q-39 36 -103 36z" />
<glyph unicode="&#xf695;" horiz-adv-x="548" d="M-6 0l12 65h72l63 357h-72l11 65h238q84 0 133.5 -36.5t49.5 -103.5q0 -58 -37.5 -97t-99.5 -55l53 -131h71l-11 -64h-122l-71 181h-102l-20 -116h73l-12 -65h-229zM194 246h87q68 0 101.5 29t33.5 70q0 35 -25.5 56t-78.5 21h-87zM266 540l-26 33l165 148l48 -60z" />
<glyph unicode="&#xf696;" horiz-adv-x="548" d="M-6 0l12 65h72l63 357h-72l11 65h238q84 0 133.5 -36.5t49.5 -103.5q0 -58 -37.5 -97t-99.5 -55l53 -131h71l-11 -64h-122l-71 181h-102l-20 -116h73l-12 -65h-229zM194 246h87q68 0 101.5 29t33.5 70q0 35 -25.5 56t-78.5 21h-87zM278 545l-103 128l22 24l120 -75 l150 76l18 -25l-155 -128h-52z" />
<glyph unicode="&#xf697;" horiz-adv-x="548" d="M257 -58q24 0 36 -14t12 -37q0 -71 -105 -145l-30 27q61 56 61 103q0 29 -26 43l1 6q26 17 51 17zM-6 0l12 65h72l63 357h-72l11 65h238q84 0 133.5 -36.5t49.5 -103.5q0 -58 -37.5 -97t-99.5 -55l53 -131h71l-11 -64h-122l-71 181h-102l-20 -116h73l-12 -65h-229z M194 246h87q68 0 101.5 29t33.5 70q0 35 -25.5 56t-78.5 21h-87z" />
<glyph unicode="&#xf698;" horiz-adv-x="448" d="M186 -10q-90 0 -180 28l22 123h76l-12 -74q41 -12 99 -12q48 0 80.5 18.5t32.5 55.5q0 29 -24.5 49t-59 32.5t-69.5 27t-59.5 44t-24.5 73.5q0 64 48.5 103t140.5 39q84 0 169 -27l-21 -120h-77l13 72q-44 11 -84 11q-51 0 -79.5 -20t-28.5 -51q0 -27 24.5 -45 t59.5 -30.5t70 -28t59.5 -46.5t24.5 -77q0 -69 -52.5 -107t-147.5 -38zM241 545l-26 33l164 148l48 -60z" />
<glyph unicode="&#xf699;" horiz-adv-x="448" d="M137 -198q-48 0 -83 15l15 45q33 -13 65 -13q50 0 50 31q0 38 -69 36l5 19l38 56q-73 4 -152 27l22 123h76l-12 -74q41 -12 99 -12q48 0 80.5 18.5t32.5 55.5q0 29 -24.5 49t-59 32.5t-69.5 27t-59.5 44t-24.5 73.5q0 64 48.5 103t140.5 39q84 0 169 -27l-21 -120h-77 l13 72q-44 11 -84 11q-51 0 -79.5 -20t-28.5 -51q0 -27 24.5 -45t59.5 -30.5t70 -28t59.5 -46.5t24.5 -77q0 -64 -46 -101.5t-131 -42.5l-22 -42q69 -11 69 -67q0 -39 -33.5 -59.5t-85.5 -20.5z" />
<glyph unicode="&#xf69a;" horiz-adv-x="448" d="M186 -10q-90 0 -180 28l22 123h76l-12 -74q41 -12 99 -12q48 0 80.5 18.5t32.5 55.5q0 29 -24.5 49t-59 32.5t-69.5 27t-59.5 44t-24.5 73.5q0 64 48.5 103t140.5 39q84 0 169 -27l-21 -120h-77l13 72q-44 11 -84 11q-51 0 -79.5 -20t-28.5 -51q0 -27 24.5 -45 t59.5 -30.5t70 -28t59.5 -46.5t24.5 -77q0 -69 -52.5 -107t-147.5 -38zM149 545l-18 26l155 127h53l101 -128l-21 -25l-119 75z" />
<glyph unicode="&#xf69b;" horiz-adv-x="448" d="M178 -63q24 0 36 -14t12 -37q0 -71 -105 -145l-30 27q61 56 61 103q0 29 -26 43l1 6q26 17 51 17zM186 -10q-90 0 -180 28l22 123h76l-12 -74q41 -12 99 -12q48 0 80.5 18.5t32.5 55.5q0 29 -24.5 49t-59 32.5t-69.5 27t-59.5 44t-24.5 73.5q0 64 48.5 103t140.5 39 q84 0 169 -27l-21 -120h-77l13 72q-44 11 -84 11q-51 0 -79.5 -20t-28.5 -51q0 -27 24.5 -45t59.5 -30.5t70 -28t59.5 -46.5t24.5 -77q0 -69 -52.5 -107t-147.5 -38z" />
<glyph unicode="&#xf69c;" horiz-adv-x="507" d="M93 206l9 50h110l29 166h-111l-14 -82h-75l25 147h457l-26 -147h-76l14 82h-110l-29 -166h111l-9 -50h-111l-25 -141h81l-12 -65h-245l12 65h80l25 141h-110z" />
<glyph unicode="&#xf69d;" horiz-adv-x="504" d="M85 0l11 65h81l63 357h-111l-14 -82h-76l26 147h457l-26 -147h-76l14 82h-110l-63 -357h80l-11 -65h-245zM268 545l-103 128l22 24l121 -75l150 76l17 -25l-154 -128h-53z" />
<glyph unicode="&#xf69e;" horiz-adv-x="504" d="M194 -58q24 0 36.5 -14t12.5 -37q0 -71 -105 -145l-30 27q61 57 61 103q0 29 -27 43l2 6q26 17 50 17zM85 0l11 65h81l63 357h-111l-14 -82h-76l26 147h457l-26 -147h-76l14 82h-110l-63 -357h80l-11 -65h-245z" />
<glyph unicode="&#xf69f;" horiz-adv-x="591" d="M261 -10q-95 0 -146.5 51.5t-35.5 141.5l42 239h-71l11 65h229l-11 -65h-74l-44 -248q-10 -55 16 -85t83 -30q55 0 93 28t48 79l45 256h-75l11 65h227l-12 -65h-72l-44 -252q-15 -85 -72.5 -132.5t-147.5 -47.5zM346 544q-66 0 -97.5 39t-23.5 98h61q-6 -74 66 -74 q70 0 93 74h60q-14 -64 -55.5 -100.5t-103.5 -36.5z" />
<glyph unicode="&#xf6a0;" horiz-adv-x="591" d="M261 -10q-95 0 -146.5 51.5t-35.5 141.5l42 239h-71l11 65h229l-11 -65h-74l-44 -248q-10 -55 16 -85t83 -30q55 0 93 28t48 79l45 256h-75l11 65h227l-12 -65h-72l-44 -252q-15 -85 -72.5 -132.5t-147.5 -47.5zM242 544l-24 26l141 161l50 -55zM399 544l-25 26l141 161 l50 -55z" />
<glyph unicode="&#xf6a1;" horiz-adv-x="591" d="M261 -10q-95 0 -146.5 51.5t-35.5 141.5l42 239h-71l11 65h229l-11 -65h-74l-44 -248q-10 -55 16 -85t83 -30q55 0 93 28t48 79l45 256h-75l11 65h227l-12 -65h-72l-44 -252q-15 -85 -72.5 -132.5t-147.5 -47.5zM214 557l11 62h261l-11 -62h-261z" />
<glyph unicode="&#xf6a2;" horiz-adv-x="592" d="M268 -198q-38 0 -61.5 17.5t-23.5 53.5q0 66 80 117q-96 -1 -148.5 50.5t-35.5 142.5l42 239h-71l11 65h229l-11 -65h-74l-44 -248q-10 -55 16 -85t83 -30q55 0 93 28t48 79l45 256h-75l11 65h227l-12 -65h-72l-44 -252q-7 -37 -21 -66t-33 -47.5t-34.5 -29t-35.5 -20.5 q-42 -22 -71.5 -53t-29.5 -64q0 -35 38 -35q28 0 63 14l-4 -50q-45 -17 -85 -17z" />
<glyph unicode="&#xf6a3;" horiz-adv-x="591" d="M261 -10q-95 0 -146.5 51.5t-35.5 141.5l42 239h-71l11 65h229l-11 -65h-74l-44 -248q-10 -55 16 -85t83 -30q55 0 93 28t48 79l45 256h-75l11 65h227l-12 -65h-72l-44 -252q-15 -85 -72.5 -132.5t-147.5 -47.5zM350 539q-48 0 -75 24.5t-27 65.5q0 46 33.5 79.5 t91.5 33.5q48 0 74.5 -24.5t26.5 -64.5q0 -47 -33 -80.5t-91 -33.5zM353 585q27 0 43 20t16 46q0 19 -11 31.5t-32 12.5q-26 0 -42 -19.5t-16 -45.5q0 -45 42 -45z" />
<glyph unicode="&#xf6a4;" horiz-adv-x="591" d="M261 -10q-95 0 -146.5 51.5t-35.5 141.5l42 239h-71l11 65h229l-11 -65h-74l-44 -248q-10 -55 16 -85t83 -30q55 0 93 28t48 79l45 256h-75l11 65h227l-12 -65h-72l-44 -252q-15 -85 -72.5 -132.5t-147.5 -47.5zM215 545l-30 17q53 102 114 102q25 0 65 -24.5t62 -24.5 t37.5 13t32.5 38l29 -18q-55 -102 -116 -102q-25 0 -65.5 25t-60.5 25q-34 0 -68 -51z" />
<glyph unicode="&#xf6a6;" horiz-adv-x="799" d="M166 0l-69 422h-67l11 65h223l-11 -62h-78l48 -327l159 295l-5 32h-68l11 62h222l-11 -62h-77l55 -326l165 325h-76l10 63h226l-11 -65h-68l-220 -422h-79l-54 285l-156 -285h-80zM302 540l-18 26l155 127h53l102 -128l-22 -25l-119 75z" />
<glyph unicode="&#xf6a9;" horiz-adv-x="544" d="M104 0l11 65h79l20 110l-117 247h-66l11 65h225l-12 -63h-73l83 -176l145 176h-73l12 63h230l-12 -65h-65l-206 -248l-19 -109h79l-11 -65h-241zM180 540l-17 26l155 127h53l101 -128l-21 -25l-120 75z" />
<glyph unicode="&#xf6ab;" horiz-adv-x="498" d="M6 0l-16 34l363 387h-198l-16 -88h-78l28 154h385l20 -31l-367 -390h219l16 90h78l-28 -156h-406zM257 540l-26 33l165 148l47 -60z" />
<glyph unicode="&#xf6ac;" horiz-adv-x="498" d="M6 0l-16 34l363 387h-198l-16 -88h-78l28 154h385l20 -31l-367 -390h219l16 90h78l-28 -156h-406zM303 548q-23 0 -38.5 16t-15.5 38t15.5 38t38.5 16t38.5 -16t15.5 -38t-15.5 -38t-38.5 -16z" />
<glyph unicode="&#xf6ad;" horiz-adv-x="308" d="M-6 0l12 65h72l63 357h-72l11 65h229l-11 -65h-73l-63 -357h73l-12 -65h-229zM213 548q-23 0 -38.5 16t-15.5 38t15.5 38t38.5 16q22 0 38 -16t16 -38t-16 -38t-38 -16z" />
<glyph unicode="&#xf6ae;" horiz-adv-x="272" d="M109 -149q-36 74 -55.5 166.5t-19.5 177.5q0 302 233 561h90q-240 -272 -240 -565q0 -85 20 -177t59 -163h-87z" />
<glyph unicode="&#xf6af;" horiz-adv-x="272" d="M-68 -149q240 274 240 565q0 86 -20 178t-59 162h87q74 -151 74 -343q0 -304 -232 -562h-90z" />
<glyph unicode="&#xf6b0;" horiz-adv-x="296" d="M7 -149l160 905h200l-10 -59h-122l-139 -787h122l-11 -59h-200z" />
<glyph unicode="&#xf6b1;" horiz-adv-x="296" d="M-54 -149l11 59h122l138 787h-122l11 59h200l-160 -905h-200z" />
<glyph unicode="&#xf6b2;" horiz-adv-x="300" d="M142 -162q-50 0 -75 26.5t-25 65.5q0 36 35.5 122.5t35.5 127.5q0 83 -103 91l12 66q30 2 53.5 10t38.5 17.5t25.5 28.5t15.5 32t8 39t3 39v42v16q0 46 4.5 78t17.5 64.5t41 49t71 16.5q33 0 64 -11l-8 -52q-26 8 -46 8q-17 0 -29 -4.5t-19 -16.5t-11 -19.5t-5.5 -29.5 t-1.5 -28.5v-32.5q0 -120 -9 -160q-22 -101 -121 -122q-3 0 -6 -1q43 -9 62 -42.5t19 -75.5q0 -52 -35 -138t-35 -113q0 -36 42 -36q19 0 52 7l-10 -54q-35 -10 -61 -10z" />
<glyph unicode="&#xf6b3;" horiz-adv-x="301" d="M18 -161q-32 0 -65 11l9 52q26 -8 45 -8q17 0 29 4.5t19 16.5t11 19.5t5.5 29.5t1.5 28.5v32.5q0 120 10 162q23 100 122 120q2 1 4 1q-43 9 -62 42.5t-19 75.5q0 52 35 138t35 113q0 36 -41 36q-22 0 -52 -7l9 54q35 10 61 10q51 0 76 -26.5t25 -65.5 q0 -36 -35.5 -122.5t-35.5 -127.5q0 -83 102 -91l-11 -66q-42 -2 -70.5 -16.5t-43 -31t-22 -49t-8 -51.5t-0.5 -59v-17q0 -46 -4.5 -78t-17.5 -64.5t-41 -49t-71 -16.5z" />
<glyph unicode="&#xf6b4;" horiz-adv-x="251" d="M34 0l92 442h65l-63 -442h-94zM177 503q-24 0 -41 17t-17 40q0 24 17 41t41 17t41 -17t17 -41q0 -23 -17 -40t-41 -17z" />
<glyph unicode="&#xf6b5;" horiz-adv-x="380" d="M179 -12q-72 0 -115.5 33.5t-43.5 96.5q0 42 21.5 79t52 64t60.5 53t49.5 58.5t16.5 69.5h77q4 -44 -14.5 -82t-47 -66t-57.5 -53.5t-50 -55.5t-21 -62q0 -69 88 -69q53 0 122 23l-12 -68q-71 -21 -126 -21zM270 503q-24 0 -41 17t-17 40q0 24 17 41t41 17q23 0 40 -17 t17 -41q0 -23 -17 -40t-40 -17z" />
<glyph unicode="&#xf6b6;" horiz-adv-x="562" d="M169 121l-119 181l1 4l183 182h100l-196 -192l120 -175h-89zM393 121l-119 181l1 4l183 182h101l-197 -192l120 -175h-89z" />
<glyph unicode="&#xf6b7;" horiz-adv-x="561" d="M244 121l197 191l-120 176h89l119 -182l-1 -4l-183 -181h-101zM20 121l196 191l-120 176h90l119 -182l-1 -4l-183 -181h-101z" />
<glyph unicode="&#xf6b8;" horiz-adv-x="337" d="M169 121l-119 181l1 4l183 182h100l-196 -192l120 -175h-89z" />
<glyph unicode="&#xf6b9;" horiz-adv-x="337" d="M20 121l196 191l-120 176h90l119 -182l-1 -4l-183 -181h-101z" />
<glyph unicode="&#xf6ba;" horiz-adv-x="388" d="M59 268l13 73h273l-13 -73h-273z" />
<glyph unicode="&#xf6bb;" horiz-adv-x="622" d="M59 268l13 73h507l-13 -73h-507z" />
<glyph unicode="&#xf6bc;" horiz-adv-x="832" d="M59 268l13 73h717l-13 -73h-717z" />
<glyph unicode="&#xf6bd;" horiz-adv-x="217" d="M115 247q-23 0 -39.5 16.5t-16.5 39.5t16.5 40t39.5 17t40 -17t17 -40t-17 -39.5t-40 -16.5z" />
<glyph unicode="&#xf6c9;" horiz-adv-x="346" d="M84 666l-28 34l171 157l50 -64z" />
<glyph unicode="&#xf6ca;" horiz-adv-x="436" d="M174 668l-109 134l23 26l128 -78l155 78l19 -27l-161 -133h-55z" />
<glyph unicode="&#xf6cb;" horiz-adv-x="436" d="M116 671q-22 0 -37.5 15.5t-15.5 37.5t15.5 37.5t37.5 15.5t37.5 -15.5t15.5 -37.5t-15.5 -37.5t-37.5 -15.5zM300 671q-22 0 -37.5 15.5t-15.5 37.5t15.5 37.5t37.5 15.5t37.5 -15.5t15.5 -37.5t-15.5 -37.5t-37.5 -15.5z" />
<glyph unicode="&#xf6ce;" horiz-adv-x="346" d="M229 666l-164 130l57 61l139 -157z" />
<glyph unicode="&#xf6cf;" horiz-adv-x="515" d="M92 666l-26 28l146 170l54 -58zM254 666l-27 28l146 170l54 -58z" />
<glyph unicode="&#xf6d0;" horiz-adv-x="419" d="M64 675l12 65h273l-12 -65h-273z" />
<glyph unicode="&#xf6f4;" horiz-adv-x="359" d="M177 544q-66 0 -97 39t-23 98h61q-6 -74 66 -74q70 0 93 74h60q-14 -64 -55.5 -100.5t-104.5 -36.5z" />
<glyph unicode="&#xf6f5;" horiz-adv-x="419" d="M169 545l-103 128l22 24l120 -75l150 76l18 -25l-154 -128h-53z" />
<glyph unicode="&#xf6f6;" horiz-adv-x="414" d="M73 540l-17 26l155 127h52l102 -128l-21 -25l-120 75z" />
<glyph unicode="&#xf6f7;" horiz-adv-x="229" d="M117 548q-23 0 -38.5 16t-15.5 38t15.5 38t38.5 16t38.5 -16t15.5 -38t-15.5 -38t-38.5 -16z" />
<glyph unicode="&#xf6f8;" horiz-adv-x="465" d="M89 544l-25 26l142 161l50 -55zM245 544l-24 26l140 161l51 -55z" />
<glyph unicode="&#xf6f9;" horiz-adv-x="475" d="M49 173l-14 43l76 34l31 172h-73l12 65h238l-12 -65h-81l-25 -136l156 68l14 -43l-179 -78l-29 -167h182l15 83h77l-26 -149h-416l11 65h73l23 131z" />
<glyph unicode="&#xf6fb;" horiz-adv-x="272" d="M127 -198q-38 0 -61.5 17.5t-23.5 53.5q0 52 46.5 91t106.5 63l23 -19q-40 -22 -71.5 -54t-31.5 -65q0 -34 39 -34q27 0 62 14l-4 -50q-45 -17 -85 -17z" />
<glyph unicode="&#xf6fc;" horiz-adv-x="340" d="M165 539q-48 0 -75 24.5t-27 65.5q0 46 33.5 79.5t90.5 33.5q48 0 75 -24.5t27 -64.5q0 -47 -33 -80.5t-91 -33.5zM168 585q26 0 42.5 20t16.5 46q0 19 -11 31.5t-32 12.5q-26 0 -42 -19.5t-16 -45.5q0 -45 42 -45z" />
<glyph unicode="&#xf6fd;" horiz-adv-x="448" d="M186 -10q-90 0 -180 28l22 123h76l-12 -74q41 -12 99 -12q48 0 80.5 18.5t32.5 55.5q0 29 -24.5 49t-59 32.5t-69.5 27t-59.5 44t-24.5 73.5q0 64 48.5 103t140.5 39q84 0 169 -27l-21 -120h-77l13 72q-44 11 -84 11q-51 0 -79.5 -20t-28.5 -51q0 -27 24.5 -45 t59.5 -30.5t70 -28t59.5 -46.5t24.5 -77q0 -69 -52.5 -107t-147.5 -38zM254 550l-104 127l23 25l120 -75l150 75l18 -25l-155 -127h-52z" />
<glyph unicode="&#xf6fe;" horiz-adv-x="442" d="M84 545l-30 17q56 102 115 102q26 0 65 -24.5t61 -24.5q37 0 70 51l30 -18q-55 -102 -116 -102q-25 0 -65.5 25t-61.5 25q-32 0 -68 -51z" />
<glyph unicode="&#xf6ff;" horiz-adv-x="498" d="M6 0l-16 34l363 387h-198l-16 -88h-78l28 154h385l20 -31l-367 -390h219l16 90h78l-28 -156h-406zM268 545l-103 128l22 24l120 -75l150 76l18 -25l-154 -128h-53z" />
<glyph unicode="&#xf721;" horiz-adv-x="243" d="M69 136l48 351h89l-75 -351h-62zM83 -7q-20 0 -35 14.5t-15 35.5q0 20 15 35t35 15q21 0 36 -15t15 -35q0 -21 -15 -35.5t-36 -14.5z" />
<glyph unicode="&#xf726;" horiz-adv-x="552" d="M169 -10q-69 0 -108 35t-39 94q0 56 32.5 92t89.5 67q-36 51 -36 96q0 55 39 89t99 34q57 0 85.5 -29t28.5 -72t-28.5 -72.5t-82.5 -57.5l92 -117q42 55 63 132h111l-10 -61h-51q-28 -71 -73 -124q19 -24 32.5 -33t32.5 -9q23 0 40 6l-11 -60q-21 -8 -51 -8 q-56 0 -100 53q-72 -55 -155 -55zM181 56q53 0 104 41l-104 133q-41 -24 -62 -47t-21 -56t22 -52t61 -19zM243 440q-26 0 -42.5 -18t-16.5 -44q0 -29 29 -65q39 20 58 38.5t19 42.5q0 19 -11.5 32.5t-35.5 13.5z" />
<glyph unicode="&#xf73f;" horiz-adv-x="338" d="M82 136q0 40 23.5 76t51 58.5t50.5 52.5t23 60q0 52 -70 52q-40 0 -98 -15l10 62q58 15 101 15q64 0 101.5 -27t37.5 -81q0 -34 -16 -62.5t-38.5 -49.5t-45 -41.5t-38.5 -46t-17 -53.5h-75zM107 -7q-20 0 -35 14.5t-15 35.5q0 20 15 35t35 15q21 0 36 -15t15 -35 q0 -21 -15 -35.5t-36 -14.5z" />
<glyph unicode="&#xf760;" horiz-adv-x="315" d="M221 540l-158 124l54 58l135 -149z" />
<glyph unicode="&#xf761;" horiz-adv-x="584" d="M-36 0l11 65h65l209 357h-67l11 65h194l98 -422h66l-12 -65h-221l12 65h75l-20 88h-209l-50 -88h75l-11 -65h-226zM212 218h160l-45 200z" />
<glyph unicode="&#xf762;" horiz-adv-x="525" d="M-6 0l11 64h73l62 359h-72l12 64h238q77 0 122.5 -31t45.5 -88q0 -45 -30 -77t-85 -42q43 -10 68 -37.5t25 -69.5q0 -62 -54 -102t-151 -40h-265zM160 64h99q56 0 89.5 23.5t33.5 60.5q0 32 -26 50t-75 18h-95zM198 278h82q58 0 91 22.5t33 58.5q0 31 -24 47.5t-68 16.5 h-89z" />
<glyph unicode="&#xf763;" horiz-adv-x="527" d="M272 -10q-106 0 -172 56.5t-66 164.5q0 125 87 205.5t222 80.5q93 0 182 -36l-22 -132h-80l15 87q-41 13 -95 13q-98 0 -160.5 -59.5t-62.5 -154.5q0 -75 43 -115.5t119 -40.5q79 0 182 47l-13 -73q-86 -43 -179 -43z" />
<glyph unicode="&#xf764;" horiz-adv-x="583" d="M-6 0l12 65h72l63 357h-72l11 65h223q112 0 176 -55.5t64 -159.5q0 -118 -82 -195t-231 -77h-236zM162 66h72q105 0 164 57.5t59 148.5q0 73 -40.5 111.5t-119.5 38.5h-72z" />
<glyph unicode="&#xf765;" horiz-adv-x="505" d="M-6 0l12 65h72l63 357h-72l11 65h417l-25 -141h-77l13 76h-183l-25 -144h197l-11 -65h-198l-26 -147h186l13 78h78l-25 -144h-420z" />
<glyph unicode="&#xf766;" horiz-adv-x="476" d="M-6 0l12 65h72l63 357h-72l11 65h411l-27 -150h-77l15 84h-177l-28 -156h184l-12 -68h-184l-23 -132h84l-11 -65h-241z" />
<glyph unicode="&#xf767;" horiz-adv-x="589" d="M279 -10q-114 0 -179.5 57t-65.5 164q0 125 87 205.5t233 80.5q105 0 192 -36l-22 -123h-78l14 76q-56 15 -106 15q-102 0 -167.5 -58t-65.5 -155q0 -72 40.5 -115t125.5 -43q55 0 126 23l20 117h-112l11 64h231l-12 -64h-41l-29 -164q-112 -44 -202 -44z" />
<glyph unicode="&#xf768;" horiz-adv-x="649" d="M-6 0l12 65h72l63 357h-72l11 65h229l-11 -65h-73l-25 -143h258l25 143h-73l12 65h229l-12 -65h-72l-63 -357h72l-11 -65h-229l11 65h73l26 147h-258l-26 -147h73l-12 -65h-229z" />
<glyph unicode="&#xf769;" horiz-adv-x="308" d="M-6 0l12 65h72l63 357h-72l11 65h229l-11 -65h-73l-63 -357h73l-12 -65h-229z" />
<glyph unicode="&#xf76a;" horiz-adv-x="289" d="M-21 -142l-21 57q91 36 102 96l73 411h-73l11 65h230l-12 -65h-72l-73 -414q-6 -36 -23.5 -63t-45.5 -44t-46.5 -25t-49.5 -18z" />
<glyph unicode="&#xf76b;" horiz-adv-x="586" d="M389 0l-168 241v2l211 180h-69l11 64h227l-12 -65h-55l-215 -184l125 -173h86l-11 -65h-130zM-6 0l12 65h72l63 357h-72l11 65h229l-11 -65h-73l-63 -357h73l-12 -65h-229z" />
<glyph unicode="&#xf76c;" horiz-adv-x="474" d="M-6 0l12 65h72l63 357h-72l11 65h238l-12 -65h-81l-63 -356h183l14 83h77l-26 -149h-416z" />
<glyph unicode="&#xf76d;" horiz-adv-x="761" d="M-8 0l12 65h68l76 359h-69l12 63h187l82 -351l196 351h198l-12 -63h-68l-52 -359h68l-12 -65h-214l12 65h72l49 347l-221 -381h-63l-92 381l-73 -347h73l-11 -65h-218z" />
<glyph unicode="&#xf76e;" horiz-adv-x="638" d="M-6 0l11 65h74l63 357h-74l12 65h147l208 -371l53 306h-78l11 65h229l-12 -65h-73l-74 -422h-71l-211 372l-53 -307h78l-11 -65h-229z" />
<glyph unicode="&#xf76f;" horiz-adv-x="605" d="M267 -10q-109 0 -171 59.5t-62 160.5q0 121 84.5 204t215.5 83q109 0 171 -60t62 -161q0 -120 -84.5 -203t-215.5 -83zM270 58q87 0 149 61.5t62 153.5q0 72 -40.5 114t-109.5 42q-87 0 -149 -62t-62 -153q0 -72 40.5 -114t109.5 -42z" />
<glyph unicode="&#xf770;" horiz-adv-x="503" d="M-6 0l12 65h72l63 357h-72l11 65h226q86 0 135 -38t49 -104q0 -74 -59 -122t-165 -48h-85l-19 -110h90l-11 -65h-247zM193 239h77q68 0 102 31t34 73q0 35 -25 57t-78 22h-78z" />
<glyph unicode="&#xf771;" horiz-adv-x="605" d="M379 -117l-140 108q-96 7 -150.5 66t-54.5 153q0 121 84.5 204t215.5 83q109 0 171 -60t62 -161q0 -100 -61 -176.5t-160 -99.5l89 -56zM270 58q87 0 149 61.5t62 153.5q0 72 -40.5 114t-109.5 42q-87 0 -149 -62t-62 -153q0 -72 40.5 -114t109.5 -42z" />
<glyph unicode="&#xf772;" horiz-adv-x="548" d="M-6 0l12 65h72l63 357h-72l11 65h238q84 0 133.5 -36.5t49.5 -103.5q0 -58 -37.5 -97t-99.5 -55l53 -131h71l-11 -64h-122l-71 181h-102l-20 -116h73l-12 -65h-229zM194 246h87q68 0 101.5 29t33.5 70q0 35 -25.5 56t-78.5 21h-87z" />
<glyph unicode="&#xf773;" horiz-adv-x="448" d="M186 -10q-90 0 -180 28l22 123h76l-12 -74q41 -12 99 -12q48 0 80.5 18.5t32.5 55.5q0 29 -24.5 49t-59 32.5t-69.5 27t-59.5 44t-24.5 73.5q0 64 48.5 103t140.5 39q84 0 169 -27l-21 -120h-77l13 72q-44 11 -84 11q-51 0 -79.5 -20t-28.5 -51q0 -27 24.5 -45 t59.5 -30.5t70 -28t59.5 -46.5t24.5 -77q0 -69 -52.5 -107t-147.5 -38z" />
<glyph unicode="&#xf774;" horiz-adv-x="504" d="M85 0l11 65h81l63 357h-111l-14 -82h-76l26 147h457l-26 -147h-76l14 82h-110l-63 -357h80l-11 -65h-245z" />
<glyph unicode="&#xf775;" horiz-adv-x="591" d="M261 -10q-95 0 -146.5 51.5t-35.5 141.5l42 239h-71l11 65h229l-11 -65h-74l-44 -248q-10 -55 16 -85t83 -30q55 0 93 28t48 79l45 256h-75l11 65h227l-12 -65h-72l-44 -252q-15 -85 -72.5 -132.5t-147.5 -47.5z" />
<glyph unicode="&#xf776;" horiz-adv-x="567" d="M195 0l-101 422h-66l12 65h231l-11 -64h-83l72 -327l189 327h-83l12 64h236l-12 -65h-66l-251 -422h-79z" />
<glyph unicode="&#xf777;" horiz-adv-x="799" d="M166 0l-69 422h-67l11 65h223l-11 -62h-78l48 -327l159 295l-5 32h-68l11 62h222l-11 -62h-77l55 -326l165 325h-76l10 63h226l-11 -65h-68l-220 -422h-79l-54 285l-156 -285h-80z" />
<glyph unicode="&#xf778;" horiz-adv-x="560" d="M-26 0l12 65h60l187 183l-110 174h-61l11 65h216l-11 -62h-69l78 -126l126 126h-69l11 62h224l-12 -65h-61l-181 -179l114 -179h60l-12 -64h-217l11 63h69l-79 128l-129 -128h68l-11 -63h-225z" />
<glyph unicode="&#xf779;" horiz-adv-x="544" d="M104 0l11 65h79l20 110l-117 247h-66l11 65h225l-12 -63h-73l83 -176l145 176h-73l12 63h230l-12 -65h-65l-206 -248l-19 -109h79l-11 -65h-241z" />
<glyph unicode="&#xf77a;" horiz-adv-x="498" d="M6 0l-16 34l363 387h-198l-16 -88h-78l28 154h385l20 -31l-367 -390h219l16 90h78l-28 -156h-406z" />
<glyph unicode="&#xf7a1;" horiz-adv-x="243" d="M32 0l76 351h62l-49 -351h-89zM156 394q-21 0 -36 15t-15 35q0 21 15 35.5t36 14.5q20 0 35 -14.5t15 -35.5q0 -20 -15 -35t-35 -15z" />
<glyph unicode="&#xf7a8;" horiz-adv-x="395" d="M112 546q-21 0 -35.5 14.5t-14.5 35.5t14.5 36t35.5 15t35.5 -15t14.5 -36t-14.5 -35.5t-35.5 -14.5zM285 546q-21 0 -35.5 14.5t-14.5 35.5t14.5 36t35.5 15t35.5 -15t14.5 -36t-14.5 -35.5t-35.5 -14.5z" />
<glyph unicode="&#xf7af;" horiz-adv-x="392" d="M63 557l11 62h261l-10 -62h-262z" />
<glyph unicode="&#xf7b4;" horiz-adv-x="320" d="M81 540l-26 33l165 148l47 -60z" />
<glyph unicode="&#xf7b8;" horiz-adv-x="285" d="M110 -198q-47 0 -82 15l14 45q33 -13 65 -13q51 0 51 31q0 38 -70 36l5 19l66 95l40 -11l-38 -70q69 -11 69 -67q0 -39 -34 -59.5t-86 -20.5z" />
<glyph unicode="&#xf7bf;" horiz-adv-x="339" d="M161 -10q-64 0 -101.5 27t-37.5 81q0 34 16 62.5t38.5 49.5t45 41.5t38.5 46t17 53.5h75q0 -33 -15.5 -62.5t-37 -51t-43 -41.5t-36.5 -43.5t-15 -48.5q0 -52 69 -52q41 0 99 15l-11 -62q-58 -15 -101 -15zM227 394q-21 0 -36 15t-15 35q0 21 15 35.5t36 14.5t35.5 -14.5 t14.5 -35.5q0 -20 -14.5 -35t-35.5 -15z" />
<glyph unicode="&#xf7e0;" horiz-adv-x="584" d="M-36 0l11 65h65l209 357h-67l11 65h194l98 -422h66l-12 -65h-221l12 65h75l-20 88h-209l-50 -88h75l-11 -65h-226zM212 218h160l-45 200zM359 540l-157 124l53 58l135 -149z" />
<glyph unicode="&#xf7e1;" horiz-adv-x="584" d="M-36 0l11 65h65l209 357h-67l11 65h194l98 -422h66l-12 -65h-221l12 65h75l-20 88h-209l-50 -88h75l-11 -65h-226zM212 218h160l-45 200zM278 540l-26 33l165 148l48 -60z" />
<glyph unicode="&#xf7e2;" horiz-adv-x="584" d="M-36 0l11 65h65l209 357h-67l11 65h194l98 -422h66l-12 -65h-221l12 65h75l-20 88h-209l-50 -88h75l-11 -65h-226zM212 218h160l-45 200zM194 540l-18 26l155 127h53l102 -128l-22 -25l-119 75z" />
<glyph unicode="&#xf7e3;" horiz-adv-x="584" d="M-36 0l11 65h65l209 357h-67l11 65h194l98 -422h66l-12 -65h-221l12 65h75l-20 88h-209l-50 -88h75l-11 -65h-226zM212 218h160l-45 200zM195 545l-30 17q56 102 115 102q26 0 65 -24.5t61 -24.5q37 0 70 51l30 -18q-55 -102 -116 -102q-25 0 -65.5 25t-61.5 25 q-32 0 -68 -51z" />
<glyph unicode="&#xf7e4;" horiz-adv-x="584" d="M-36 0l11 65h65l209 357h-67l11 65h194l98 -422h66l-12 -65h-221l12 65h75l-20 88h-209l-50 -88h75l-11 -65h-226zM212 218h160l-45 200zM250 546q-21 0 -35.5 14.5t-14.5 35.5t14.5 36t35.5 15t36 -15t15 -36t-15 -35.5t-36 -14.5zM423 546q-21 0 -35.5 14.5t-14.5 35.5 t14.5 36t35.5 15t35.5 -15t14.5 -36t-14.5 -35.5t-35.5 -14.5z" />
<glyph unicode="&#xf7e5;" horiz-adv-x="584" d="M-36 0l11 65h65l209 357h-67l11 65h194l98 -422h66l-12 -65h-221l12 65h75l-20 88h-209l-50 -88h75l-11 -65h-226zM212 218h160l-45 200zM335 539q-48 0 -75 24.5t-27 65.5q0 46 33.5 79.5t91.5 33.5q48 0 74.5 -24.5t26.5 -64.5q0 -47 -33 -80.5t-91 -33.5zM338 585 q26 0 42.5 20t16.5 46q0 19 -11 31.5t-32 12.5q-26 0 -42 -19.5t-16 -45.5q0 -45 42 -45z" />
<glyph unicode="&#xf7e6;" horiz-adv-x="810" d="M-37 0l11 65h64l314 358h-64l11 64h502l-25 -141h-76l14 76h-180l-25 -144h193l-11 -65h-193l-27 -147h182l16 78h76l-27 -144h-410l12 65h73l15 88h-200l-75 -88h73l-12 -65h-231zM260 215h159l37 207h-19z" />
<glyph unicode="&#xf7e7;" horiz-adv-x="527" d="M211 -198q-46 0 -83 15l15 45q33 -13 65 -13q51 0 51 31q0 38 -70 36l5 19l39 57q-91 9 -145 65t-54 154q0 125 87 205.5t222 80.5q93 0 182 -36l-22 -132h-80l15 87q-41 13 -95 13q-98 0 -160.5 -59.5t-62.5 -154.5q0 -75 43 -115.5t119 -40.5q79 0 182 47l-13 -73 q-81 -40 -167 -43l-22 -41q69 -11 69 -67q0 -39 -34 -59.5t-86 -20.5z" />
<glyph unicode="&#xf7e8;" horiz-adv-x="505" d="M-6 0l12 65h72l63 357h-72l11 65h417l-25 -141h-77l13 76h-183l-25 -144h197l-11 -65h-198l-26 -147h186l13 78h78l-25 -144h-420zM339 540l-157 124l53 58l135 -149z" />
<glyph unicode="&#xf7e9;" horiz-adv-x="505" d="M-6 0l12 65h72l63 357h-72l11 65h417l-25 -141h-77l13 76h-183l-25 -144h197l-11 -65h-198l-26 -147h186l13 78h78l-25 -144h-420zM261 540l-26 33l165 148l48 -60z" />
<glyph unicode="&#xf7ea;" horiz-adv-x="505" d="M-6 0l12 65h72l63 357h-72l11 65h417l-25 -141h-77l13 76h-183l-25 -144h197l-11 -65h-198l-26 -147h186l13 78h78l-25 -144h-420zM169 540l-17 26l155 127h53l101 -128l-21 -25l-120 75z" />
<glyph unicode="&#xf7eb;" horiz-adv-x="505" d="M-6 0l12 65h72l63 357h-72l11 65h417l-25 -141h-77l13 76h-183l-25 -144h197l-11 -65h-198l-26 -147h186l13 78h78l-25 -144h-420zM222 546q-21 0 -35.5 14.5t-14.5 35.5t14.5 36t35.5 15t35.5 -15t14.5 -36t-14.5 -35.5t-35.5 -14.5zM395 546q-21 0 -35.5 14.5 t-14.5 35.5t14.5 36t35.5 15t35.5 -15t14.5 -36t-14.5 -35.5t-35.5 -14.5z" />
<glyph unicode="&#xf7ec;" horiz-adv-x="308" d="M-6 0l12 65h72l63 357h-72l11 65h229l-11 -65h-73l-63 -357h73l-12 -65h-229zM250 540l-157 124l53 58l135 -149z" />
<glyph unicode="&#xf7ed;" horiz-adv-x="308" d="M-6 0l12 65h72l63 357h-72l11 65h229l-11 -65h-73l-63 -357h73l-12 -65h-229zM163 540l-26 33l165 148l47 -60z" />
<glyph unicode="&#xf7ee;" horiz-adv-x="308" d="M-6 0l12 65h72l63 357h-72l11 65h229l-11 -65h-73l-63 -357h73l-12 -65h-229zM67 540l-18 26l155 127h53l102 -128l-22 -25l-119 75z" />
<glyph unicode="&#xf7ef;" horiz-adv-x="308" d="M-6 0l12 65h72l63 357h-72l11 65h229l-11 -65h-73l-63 -357h73l-12 -65h-229zM124 546q-21 0 -35.5 14.5t-14.5 35.5t14.5 36t35.5 15t35.5 -15t14.5 -36t-14.5 -35.5t-35.5 -14.5zM297 546q-21 0 -35.5 14.5t-14.5 35.5t14.5 36t35.5 15t35.5 -15t14.5 -36t-14.5 -35.5 t-35.5 -14.5z" />
<glyph unicode="&#xf7f0;" horiz-adv-x="584" d="M42 215l11 61h63l26 146h-73l12 65h222q113 0 177 -55.5t64 -159.5q0 -118 -82 -195t-231 -77h-236l11 65h73l26 150h-63zM163 66h72q105 0 163.5 57.5t58.5 148.5q0 73 -40 111.5t-119 38.5h-72l-26 -146h132l-11 -61h-132z" />
<glyph unicode="&#xf7f1;" horiz-adv-x="638" d="M-6 0l11 65h74l63 357h-74l12 65h147l208 -371l53 306h-78l11 65h229l-12 -65h-73l-74 -422h-71l-211 372l-53 -307h78l-11 -65h-229zM237 545l-30 17q56 102 115 102q26 0 65 -24.5t61 -24.5q37 0 70 51l30 -18q-55 -102 -116 -102q-25 0 -65.5 25t-61.5 25 q-32 0 -68 -51z" />
<glyph unicode="&#xf7f2;" horiz-adv-x="605" d="M267 -10q-109 0 -171 59.5t-62 160.5q0 121 84.5 204t215.5 83q109 0 171 -60t62 -161q0 -120 -84.5 -203t-215.5 -83zM270 58q87 0 149 61.5t62 153.5q0 72 -40.5 114t-109.5 42q-87 0 -149 -62t-62 -153q0 -72 40.5 -114t109.5 -42zM388 545l-157 124l53 57l135 -149z " />
<glyph unicode="&#xf7f3;" horiz-adv-x="605" d="M267 -10q-109 0 -171 59.5t-62 160.5q0 121 84.5 204t215.5 83q109 0 171 -60t62 -161q0 -120 -84.5 -203t-215.5 -83zM270 58q87 0 149 61.5t62 153.5q0 72 -40.5 114t-109.5 42q-87 0 -149 -62t-62 -153q0 -72 40.5 -114t109.5 -42zM322 545l-26 33l165 148l47 -61z " />
<glyph unicode="&#xf7f4;" horiz-adv-x="605" d="M267 -10q-109 0 -171 59.5t-62 160.5q0 121 84.5 204t215.5 83q109 0 171 -60t62 -161q0 -120 -84.5 -203t-215.5 -83zM270 58q87 0 149 61.5t62 153.5q0 72 -40.5 114t-109.5 42q-87 0 -149 -62t-62 -153q0 -72 40.5 -114t109.5 -42zM222 545l-17 26l155 127h52 l102 -128l-21 -25l-120 75z" />
<glyph unicode="&#xf7f5;" horiz-adv-x="605" d="M267 -10q-109 0 -171 59.5t-62 160.5q0 121 84.5 204t215.5 83q109 0 171 -60t62 -161q0 -120 -84.5 -203t-215.5 -83zM270 58q87 0 149 61.5t62 153.5q0 72 -40.5 114t-109.5 42q-87 0 -149 -62t-62 -153q0 -72 40.5 -114t109.5 -42zM224 549l-30 18q53 102 114 102 q26 0 65.5 -25t61.5 -25q37 0 70 52l29 -18q-20 -38 -50 -70t-66 -32q-25 0 -65.5 25t-60.5 25q-34 0 -68 -52z" />
<glyph unicode="&#xf7f6;" horiz-adv-x="605" d="M267 -10q-109 0 -171 59.5t-62 160.5q0 121 84.5 204t215.5 83q109 0 171 -60t62 -161q0 -120 -84.5 -203t-215.5 -83zM270 58q87 0 149 61.5t62 153.5q0 72 -40.5 114t-109.5 42q-87 0 -149 -62t-62 -153q0 -72 40.5 -114t109.5 -42zM277 551q-21 0 -35.5 14.5 t-14.5 35.5t14.5 35.5t35.5 14.5t35.5 -14.5t14.5 -35.5t-14.5 -35.5t-35.5 -14.5zM450 551q-21 0 -35.5 14.5t-14.5 35.5t14.5 35.5t35.5 14.5t35.5 -14.5t14.5 -35.5t-14.5 -35.5t-35.5 -14.5z" />
<glyph unicode="&#xf7f8;" horiz-adv-x="604" d="M266 -10q-98 0 -159 49l-56 -54l-26 26l57 52q-49 56 -49 147q0 121 84.5 204t215.5 83q96 0 159 -49l57 53l25 -25l-57 -54q49 -57 49 -146q0 -120 -84.5 -203t-215.5 -83zM269 58q87 0 149 61.5t62 153.5q0 52 -24 92l-290 -271q39 -36 103 -36zM330 429 q-87 0 -149 -62t-62 -153q0 -56 24 -93l290 272q-39 36 -103 36z" />
<glyph unicode="&#xf7f9;" horiz-adv-x="591" d="M261 -10q-95 0 -146.5 51.5t-35.5 141.5l42 239h-71l11 65h229l-11 -65h-74l-44 -248q-10 -55 16 -85t83 -30q55 0 93 28t48 79l45 256h-75l11 65h227l-12 -65h-72l-44 -252q-15 -85 -72.5 -132.5t-147.5 -47.5zM376 540l-157 124l53 58l135 -149z" />
<glyph unicode="&#xf7fa;" horiz-adv-x="591" d="M261 -10q-95 0 -146.5 51.5t-35.5 141.5l42 239h-71l11 65h229l-11 -65h-74l-44 -248q-10 -55 16 -85t83 -30q55 0 93 28t48 79l45 256h-75l11 65h227l-12 -65h-72l-44 -252q-15 -85 -72.5 -132.5t-147.5 -47.5zM310 540l-26 33l165 148l47 -60z" />
<glyph unicode="&#xf7fb;" horiz-adv-x="591" d="M261 -10q-95 0 -146.5 51.5t-35.5 141.5l42 239h-71l11 65h229l-11 -65h-74l-44 -248q-10 -55 16 -85t83 -30q55 0 93 28t48 79l45 256h-75l11 65h227l-12 -65h-72l-44 -252q-15 -85 -72.5 -132.5t-147.5 -47.5zM210 540l-17 26l155 127h53l101 -128l-21 -25l-120 75z " />
<glyph unicode="&#xf7fc;" horiz-adv-x="591" d="M261 -10q-95 0 -146.5 51.5t-35.5 141.5l42 239h-71l11 65h229l-11 -65h-74l-44 -248q-10 -55 16 -85t83 -30q55 0 93 28t48 79l45 256h-75l11 65h227l-12 -65h-72l-44 -252q-15 -85 -72.5 -132.5t-147.5 -47.5zM266 546q-21 0 -35.5 14.5t-14.5 35.5t14.5 36t35.5 15 t35.5 -15t14.5 -36t-14.5 -35.5t-35.5 -14.5zM439 546q-21 0 -36 14.5t-15 35.5t15 36t36 15t35.5 -15t14.5 -36t-14.5 -35.5t-35.5 -14.5z" />
<glyph unicode="&#xf7fd;" horiz-adv-x="544" d="M104 0l11 65h79l20 110l-117 247h-66l11 65h225l-12 -63h-73l83 -176l145 176h-73l12 63h230l-12 -65h-65l-206 -248l-19 -109h79l-11 -65h-241zM281 540l-26 33l165 148l47 -60z" />
<glyph unicode="&#xf7fe;" horiz-adv-x="494" d="M-4 0l12 65h68l63 357h-68l11 65h237l-11 -65h-85l-7 -36h76q83 0 128.5 -33t45.5 -99q0 -65 -51 -107t-159 -42h-89l-7 -40h85l-12 -65h-237zM178 169h84q60 0 89.5 22.5t29.5 61.5q0 68 -92 68h-84z" />
<glyph unicode="&#xf7ff;" horiz-adv-x="544" d="M104 0l11 65h79l20 110l-117 247h-66l11 65h225l-12 -63h-73l83 -176l145 176h-73l12 63h230l-12 -65h-65l-206 -248l-19 -109h79l-11 -65h-241zM237 546q-21 0 -35.5 14.5t-14.5 35.5t14.5 36t35.5 15t35.5 -15t14.5 -36t-14.5 -35.5t-35.5 -14.5zM410 546 q-21 0 -35.5 14.5t-14.5 35.5t14.5 36t35.5 15t35.5 -15t14.5 -36t-14.5 -35.5t-35.5 -14.5z" />
<glyph unicode="&#xfb06;" horiz-adv-x="717" d="M146 -11q-81 0 -145 29l11 64q68 -28 133 -28q46 0 69.5 16t23.5 42q0 27 -30.5 46.5t-66.5 32t-66.5 42.5t-30.5 76q0 59 46 94.5t124 34.5q5 83 58.5 119.5t134.5 36.5h215l-30 -166h124l-12 -68h-123l-43 -246q-11 -58 51 -58q27 0 87 21l-12 -65q-48 -23 -103 -23 q-59 0 -89.5 33.5t-19.5 96.5l42 241h-73l13 68h72l19 106h-123q-25 0 -43 -3.5t-36.5 -13.5t-29 -31.5t-12.5 -54.5q16 -4 58 -16l-11 -62q-64 22 -115 22q-46 0 -65.5 -16t-19.5 -38t20 -38t48.5 -27.5t57.5 -26t49 -41.5t20 -65q0 -54 -41.5 -94t-135.5 -40z" />
<glyph horiz-adv-x="551" d="M237 -12q-94 0 -139.5 58.5t-47.5 176.5q-1 55 7 107.5t28 106t51 94t81 65.5t113 25q188 0 188 -242q0 -55 -8.5 -107.5t-29.5 -105t-52 -91.5t-80.5 -63t-110.5 -24zM247 55q49 0 86 31.5t57 81.5t29.5 104t9.5 108q0 174 -108 174q-50 0 -88 -32.5t-57.5 -85 t-28.5 -105t-9 -104.5q0 -172 109 -172z" />
<glyph horiz-adv-x="362" d="M7 0l11 66h108l81 470q-50 -37 -92 -37q-26 0 -35.5 16.5t0.5 42.5l150 51h75l-94 -543h92l-11 -66h-285z" />
<glyph horiz-adv-x="514" d="M53 -11q-25 0 -39 14.5t-14 40.5q0 21 10.5 40.5t37 42.5t47.5 38t64 45q52 36 76 53t60.5 47t52.5 50.5t29 48.5t13 56q0 44 -26 66.5t-73 22.5q-54 0 -98 -23q5 -9 5 -22q0 -23 -14.5 -38.5t-41.5 -15.5q-26 0 -39.5 14.5t-13.5 36.5q0 49 63.5 82t143.5 33 q88 0 135 -42.5t47 -112.5q0 -53 -28 -102.5t-74.5 -88t-92.5 -69.5t-96.5 -62.5t-72.5 -50.5q35 5 97 -11t83 -16q72 0 91 100h77q-14 -83 -49.5 -129.5t-108.5 -46.5q-48 0 -110 26t-87 23q-1 -20 -14 -35t-40 -15z" />
<glyph horiz-adv-x="500" d="M205 -12q-77 0 -136.5 27.5t-59.5 75.5q0 24 16 40.5t42 16.5q23 0 37.5 -12.5t14.5 -33.5q0 -16 -8 -29q42 -20 87 -20q70 0 112 35.5t42 91.5q0 52 -37.5 77t-99.5 25h-41l13 64h39q73 0 116.5 33t43.5 89q0 43 -27 65t-75 22q-51 0 -89 -18q4 -9 4 -21 q0 -23 -15.5 -38.5t-41.5 -15.5q-24 0 -37.5 14.5t-13.5 36.5q0 48 62.5 78t140.5 30q83 0 131.5 -37.5t48.5 -106.5q0 -63 -38 -103t-100 -59q104 -39 104 -139q0 -81 -63.5 -134.5t-171.5 -53.5z" />
<glyph horiz-adv-x="499" d="M164 0l11 62h96l17 102h-268l-17 58q90 87 159 196t89 199q29 10 48 -0.5t19 -39.5q0 -59 -68.5 -169t-144.5 -180h197l14 78q28 37 65 109h35l-33 -187h83l-11 -64h-81l-18 -102h79l-11 -62h-260z" />
<glyph horiz-adv-x="509" d="M221 -12q-80 0 -140.5 34t-60.5 83q0 25 16 41.5t42 16.5q24 0 37 -14.5t13 -35.5q0 -16 -8 -30q40 -27 94 -27q69 0 114.5 39.5t45.5 110.5q0 57 -30.5 86t-80.5 29q-85 0 -146 -68l-54 28q57 132 91 328h334q19 -83 -73 -83q-27 0 -104 6t-98 7q-22 -115 -53 -191 q60 40 125 40q74 0 125.5 -46t51.5 -132q0 -97 -66.5 -159.5t-174.5 -62.5z" />
<glyph horiz-adv-x="522" d="M236 -12q-90 0 -141.5 52.5t-51.5 163.5q0 66 18.5 136.5t53 134.5t93.5 105t131 41q66 0 113 -31t47 -73q0 -23 -14 -40.5t-42 -17.5q-25 0 -40 14t-15 34q0 19 13 32q-32 17 -63 17q-73 0 -123 -67.5t-74 -171.5q62 73 163 73q78 0 123 -45t45 -127q0 -98 -64.5 -164 t-171.5 -66zM237 54q65 0 106 45.5t41 114.5q0 53 -26 83.5t-77 30.5q-64 0 -109 -44.5t-45 -113.5q0 -51 28 -83.5t82 -32.5z" />
<glyph horiz-adv-x="472" d="M198 -13q-47 0 -47 50q0 83 80 229.5t172 257.5q-37 -11 -97 5t-83 16q-44 0 -66 -25t-30 -74h-73l29 163h66l-10 -56q32 62 94 62q31 0 86.5 -22.5t89.5 -16.5q12 44 55 44q23 0 35.5 -13t12.5 -33q0 -19 -25 -55q-122 -159 -181.5 -276t-72.5 -250q-18 -6 -35 -6z" />
<glyph horiz-adv-x="529" d="M226 -12q-99 0 -150 44t-51 116q0 69 44.5 114t108.5 63q-78 36 -78 121q0 72 58.5 123.5t160.5 51.5q88 0 134 -39.5t46 -102.5q0 -56 -34.5 -98t-93.5 -61q102 -36 102 -138q0 -83 -67 -138.5t-180 -55.5zM230 53q71 0 113.5 39t42.5 96q0 46 -30.5 73t-87.5 27 q-70 0 -113 -38t-43 -97q0 -46 30 -73t88 -27zM316 557q-59 0 -96 -32.5t-37 -80.5q0 -40 26 -65t73 -25q57 0 95 35t38 84q0 39 -26 61.5t-73 22.5z" />
<glyph horiz-adv-x="527" d="M218 -12q-67 0 -122.5 28.5t-55.5 74.5q0 26 16.5 41.5t40.5 15.5q23 0 37.5 -14.5t14.5 -35.5q0 -13 -8 -26q30 -18 76 -18q144 0 185 245q-59 -79 -160 -79q-78 0 -126 47.5t-48 129.5q0 95 64 159.5t170 64.5q95 0 145.5 -56t50.5 -169q0 -46 -7.5 -96t-27.5 -107 t-50 -101.5t-81 -74t-114 -29.5zM302 554q-64 0 -105 -44.5t-41 -110.5q0 -53 27.5 -84.5t79.5 -31.5q63 0 107 45t44 111q0 50 -29 82.5t-83 32.5z" />
<glyph horiz-adv-x="479" d="M128 -11q-55 0 -91.5 30t-36.5 87q0 74 60 108.5t153 34.5h92l7 33q8 47 -10.5 68.5t-74.5 21.5q-68 0 -148 -26l11 67q82 26 154 26q85 0 126 -38t27 -115l-32 -184q-9 -46 34 -46q20 0 51 11l-11 -66q-35 -11 -70 -11q-76 0 -87 62q-79 -63 -154 -63zM149 54 q56 0 132 58l14 81h-79q-128 0 -128 -81q0 -58 61 -58z" />
<glyph horiz-adv-x="479" d="M128 -11q-55 0 -91.5 30t-36.5 87q0 74 60 108.5t153 34.5h92l7 33q8 47 -10.5 68.5t-74.5 21.5q-68 0 -148 -26l11 67q82 26 154 26q85 0 126 -38t27 -115l-32 -184q-9 -46 34 -46q20 0 51 11l-11 -66q-35 -11 -70 -11q-76 0 -87 62q-79 -63 -154 -63zM149 54 q56 0 132 58l14 81h-79q-128 0 -128 -81q0 -58 61 -58zM310 505l-164 130l57 61l139 -157z" />
<glyph horiz-adv-x="479" d="M128 -11q-55 0 -91.5 30t-36.5 87q0 74 60 108.5t153 34.5h92l7 33q8 47 -10.5 68.5t-74.5 21.5q-68 0 -148 -26l11 67q82 26 154 26q85 0 126 -38t27 -115l-32 -184q-9 -46 34 -46q20 0 51 11l-11 -66q-35 -11 -70 -11q-76 0 -87 62q-79 -63 -154 -63zM149 54 q56 0 132 58l14 81h-79q-128 0 -128 -81q0 -58 61 -58zM232 504l-28 35l171 156l50 -63z" />
<glyph horiz-adv-x="479" d="M128 -11q-55 0 -91.5 30t-36.5 87q0 74 60 108.5t153 34.5h92l7 33q8 47 -10.5 68.5t-74.5 21.5q-68 0 -148 -26l11 67q82 26 154 26q85 0 126 -38t27 -115l-32 -184q-9 -46 34 -46q20 0 51 11l-11 -66q-35 -11 -70 -11q-76 0 -87 62q-79 -63 -154 -63zM149 54 q56 0 132 58l14 81h-79q-128 0 -128 -81q0 -58 61 -58zM127 501l-18 27l161 133h55l106 -134l-22 -26l-125 78z" />
<glyph horiz-adv-x="479" d="M128 -11q-55 0 -91.5 30t-36.5 87q0 74 60 108.5t153 34.5h92l7 33q8 47 -10.5 68.5t-74.5 21.5q-68 0 -148 -26l11 67q82 26 154 26q85 0 126 -38t27 -115l-32 -184q-9 -46 34 -46q20 0 51 11l-11 -66q-35 -11 -70 -11q-76 0 -87 62q-79 -63 -154 -63zM149 54 q56 0 132 58l14 81h-79q-128 0 -128 -81q0 -58 61 -58zM136 508l-31 18q52 107 118 107q27 0 68 -25.5t64 -25.5q38 0 72 53l31 -19q-55 -107 -121 -107q-25 0 -67.5 26t-63.5 26q-35 0 -70 -53z" />
<glyph horiz-adv-x="479" d="M128 -11q-55 0 -91.5 30t-36.5 87q0 74 60 108.5t153 34.5h92l7 33q8 47 -10.5 68.5t-74.5 21.5q-68 0 -148 -26l11 67q82 26 154 26q85 0 126 -38t27 -115l-32 -184q-9 -46 34 -46q20 0 51 11l-11 -66q-35 -11 -70 -11q-76 0 -87 62q-79 -63 -154 -63zM149 54 q56 0 132 58l14 81h-79q-128 0 -128 -81q0 -58 61 -58zM185 509q-23 0 -38 15.5t-15 37.5t15.5 37.5t37.5 15.5t37.5 -15.5t15.5 -37.5t-15.5 -37.5t-37.5 -15.5zM367 509q-22 0 -37.5 15.5t-15.5 37.5t15.5 37.5t37.5 15.5t37.5 -15.5t15.5 -37.5t-15.5 -37.5t-37.5 -15.5z " />
<glyph horiz-adv-x="479" d="M128 -11q-55 0 -91.5 30t-36.5 87q0 74 60 108.5t153 34.5h92l7 33q8 47 -10.5 68.5t-74.5 21.5q-68 0 -148 -26l11 67q82 26 154 26q85 0 126 -38t27 -115l-32 -184q-9 -46 34 -46q20 0 51 11l-11 -66q-35 -11 -70 -11q-76 0 -87 62q-79 -63 -154 -63zM149 54 q56 0 132 58l14 81h-79q-128 0 -128 -81q0 -58 61 -58zM270 500q-51 0 -79 26t-28 69q0 48 35 84t95 36q50 0 78 -26t28 -68q0 -49 -34.5 -85t-94.5 -36zM273 550q27 0 43.5 20.5t16.5 47.5q0 47 -43 47q-27 0 -44 -20.5t-17 -47.5q0 -47 44 -47z" />
<glyph horiz-adv-x="479" d="M128 -11q-55 0 -91.5 30t-36.5 87q0 74 60 108.5t153 34.5h92l7 33q8 47 -10.5 68.5t-74.5 21.5q-68 0 -148 -26l11 67q82 26 154 26q85 0 126 -38t27 -115l-32 -184q-9 -46 34 -46q20 0 51 11l-11 -66q-35 -11 -70 -11q-76 0 -87 62q-79 -63 -154 -63zM149 54 q56 0 132 58l14 81h-79q-128 0 -128 -81q0 -58 61 -58zM132 522l11 65h270l-11 -65h-270z" />
<glyph horiz-adv-x="479" d="M128 -11q-55 0 -91.5 30t-36.5 87q0 74 60 108.5t153 34.5h92l7 33q8 47 -10.5 68.5t-74.5 21.5q-68 0 -148 -26l11 67q82 26 154 26q85 0 126 -38t27 -115l-32 -184q-9 -46 34 -46q20 0 51 11l-11 -66q-35 -11 -70 -11q-76 0 -87 62q-79 -63 -154 -63zM149 54 q56 0 132 58l14 81h-79q-128 0 -128 -81q0 -58 61 -58zM269 509q-69 0 -101.5 40.5t-24.5 102.5h63q-5 -76 69 -76t97 76h63q-15 -66 -58 -104.5t-108 -38.5z" />
<glyph horiz-adv-x="479" d="M318 -202q-87 0 -87 73q0 71 91 127q-35 13 -40 54q-79 -63 -154 -63q-55 0 -91.5 30t-36.5 87q0 74 60 108.5t153 34.5h92l7 33q8 47 -10.5 68.5t-74.5 21.5q-68 0 -148 -26l11 67q82 26 154 26q85 0 126 -38t27 -115l-32 -184q-9 -46 34 -46q20 0 51 11l-11 -66 q-36 -9 -58 -11q-74 -54 -74 -102q0 -35 39 -35q31 0 65 15l-4 -52q-44 -18 -89 -18zM149 54q56 0 132 58l14 81h-79q-128 0 -128 -81q0 -58 61 -58z" />
<glyph horiz-adv-x="513" d="M190 -1q-72 0 -117.5 50t-45.5 140q0 109 64.5 179.5t155.5 70.5q102 0 140 -91l15 80h80l-85 -482q-14 -79 -70 -117.5t-137 -38.5q-96 0 -174 34l12 69q77 -34 153 -34q52 0 87 22.5t44 69.5l21 115q-59 -67 -143 -67zM217 66q64 0 105.5 53.5t41.5 127.5 q0 58 -27 91.5t-77 33.5q-63 0 -104.5 -52t-41.5 -128q0 -59 27 -92.5t76 -33.5z" />
<glyph horiz-adv-x="513" d="M190 -1q-72 0 -117.5 50t-45.5 140q0 109 64.5 179.5t155.5 70.5q102 0 140 -91l15 80h80l-85 -482q-14 -79 -70 -117.5t-137 -38.5q-96 0 -174 34l12 69q77 -34 153 -34q52 0 87 22.5t44 69.5l21 115q-59 -67 -143 -67zM217 66q64 0 105.5 53.5t41.5 127.5 q0 58 -27 91.5t-77 33.5q-63 0 -104.5 -52t-41.5 -128q0 -59 27 -92.5t76 -33.5zM149 501l-17 27l160 133h56l106 -134l-23 -26l-125 78z" />
<glyph horiz-adv-x="513" d="M190 -1q-72 0 -117.5 50t-45.5 140q0 109 64.5 179.5t155.5 70.5q102 0 140 -91l15 80h80l-85 -482q-14 -79 -70 -117.5t-137 -38.5q-96 0 -174 34l12 69q77 -34 153 -34q52 0 87 22.5t44 69.5l21 115q-59 -67 -143 -67zM217 66q64 0 105.5 53.5t41.5 127.5 q0 58 -27 91.5t-77 33.5q-63 0 -104.5 -52t-41.5 -128q0 -59 27 -92.5t76 -33.5zM287 509q-68 0 -100.5 40.5t-24.5 102.5h63q-5 -76 69 -76t96 76h64q-14 -66 -58 -104.5t-109 -38.5z" />
<glyph horiz-adv-x="513" d="M190 -1q-72 0 -117.5 50t-45.5 140q0 109 64.5 179.5t155.5 70.5q102 0 140 -91l15 80h80l-85 -482q-14 -79 -70 -117.5t-137 -38.5q-96 0 -174 34l12 69q77 -34 153 -34q52 0 87 22.5t44 69.5l21 115q-59 -67 -143 -67zM217 66q64 0 105.5 53.5t41.5 127.5 q0 58 -27 91.5t-77 33.5q-63 0 -104.5 -52t-41.5 -128q0 -59 27 -92.5t76 -33.5zM287 509q-23 0 -40 17t-17 40t16.5 40t40.5 17t41 -16.5t17 -40.5q0 -23 -17 -40t-41 -17z" />
<glyph horiz-adv-x="513" d="M284 503q-25 0 -38.5 15.5t-13.5 40.5q0 77 115 159l33 -29q-66 -66 -66 -112q0 -35 28 -48l-2 -7q-29 -19 -56 -19zM190 -1q-72 0 -117.5 50t-45.5 140q0 109 64.5 179.5t155.5 70.5q102 0 140 -91l15 80h80l-85 -482q-14 -79 -70 -117.5t-137 -38.5q-96 0 -174 34 l12 69q77 -34 153 -34q52 0 87 22.5t44 69.5l21 115q-59 -67 -143 -67zM217 66q64 0 105.5 53.5t41.5 127.5q0 58 -27 91.5t-77 33.5q-63 0 -104.5 -52t-41.5 -128q0 -59 27 -92.5t76 -33.5z" />
<glyph horiz-adv-x="548" d="M219 -11q-89 0 -142.5 40t-53.5 117q0 68 41 111t109 63q-77 36 -77 120q0 80 63.5 129t173.5 49q89 0 178 -29l-22 -128h-77l13 78q-46 12 -94 12q-68 0 -109.5 -28.5t-41.5 -82.5q0 -46 31.5 -70t88.5 -24h243l-11 -64h-58l-20 -107q-15 -86 -74 -136t-161 -50zM222 57 q65 0 103 33t48 85l19 107h-103q-81 0 -130 -35t-49 -97q0 -93 112 -93z" />
<glyph horiz-adv-x="545" d="M-47 -149l576 905h80l-575 -905h-81z" />
<glyph horiz-adv-x="529" d="M360 -149l-256 905h81l256 -905h-81z" />
<glyph horiz-adv-x="235" d="M7 -149l160 905h79l-160 -905h-79z" />
<glyph horiz-adv-x="239" d="M104 392l65 364h79l-65 -364h-79zM9 -149l70 400h79l-70 -400h-79z" />
<glyph horiz-adv-x="355" d="M184 194q-46 0 -78 32.5t-32 78.5t32 78t78 32t78.5 -32t32.5 -78t-32.5 -78.5t-78.5 -32.5z" />
<glyph horiz-adv-x="264" d="M99 -118q-31 61 -49 138t-18 146q0 234 194 440h82q-198 -218 -198 -443q0 -160 70 -281h-81z" />
<glyph horiz-adv-x="263" d="M-48 -118q197 215 197 442q0 158 -69 282h80q31 -61 49 -138.5t18 -146.5q0 -233 -194 -439h-81z" />
<glyph horiz-adv-x="291" d="M134 -129q-46 0 -67.5 23t-21.5 58q0 31 28 95t28 95q0 66 -84 73l10 57q34 3 57 14.5t34.5 23.5t17.5 36.5t6.5 39t0.5 45.5v14q0 36 4 62.5t15.5 53t36.5 40.5t62 14q26 0 57 -9l-8 -49q-24 6 -40 6q-19 0 -30.5 -7.5t-16.5 -24.5t-6 -31.5t-1 -42.5v-12 q0 -32 -0.5 -47.5t-3 -41t-9.5 -40t-18 -32t-30 -28.5t-45 -18q63 -17 63 -96q0 -40 -27 -106t-27 -85q0 -30 34 -30q21 0 45 6l-8 -48q-30 -8 -56 -8z" />
<glyph horiz-adv-x="290" d="M25 -129q-25 0 -57 9l8 49q24 -6 40 -6q19 0 30.5 7.5t16.5 24.5t6 31.5t1 42.5v12q0 32 0.5 47.5t3 41t9.5 40t18.5 32t30.5 28.5t45 18q-64 17 -64 96q0 40 27.5 106t27.5 85q0 30 -34 30q-22 0 -46 -6l9 48q30 8 55 8q46 0 67.5 -23t21.5 -58q0 -31 -27.5 -95 t-27.5 -95q0 -66 83 -73l-10 -57q-34 -3 -57 -14.5t-34.5 -23.5t-17.5 -36.5t-6.5 -39t-0.5 -45.5v-14q0 -36 -4 -62.5t-15.5 -53t-36.5 -40.5t-62 -14z" />
<glyph horiz-adv-x="284" d="M19 -118l128 724h173l-10 -55h-98l-109 -616h98l-9 -53h-173z" />
<glyph horiz-adv-x="285" d="M-39 -118l9 53h98l109 616h-98l10 55h172l-128 -724h-172z" />
<glyph horiz-adv-x="245" d="M19 -118l128 724h74l-128 -724h-74z" />
<glyph horiz-adv-x="637" d="M266 89q-47 0 -74.5 29.5t-27.5 78.5q0 70 51 125t122 55q70 0 91 -58h2q3 7 22 45h46q-62 -138 -62 -196q0 -42 32 -42q37 0 68 44t31 112q0 87 -55 138.5t-146 51.5q-115 0 -204 -78t-89 -190q0 -89 59 -146.5t153 -57.5q78 0 146 41l17 -33q-86 -46 -162 -46 q-112 0 -182.5 68.5t-70.5 173.5q0 129 101.5 218t231.5 89q106 0 173 -63t67 -167q0 -85 -44 -138.5t-105 -53.5q-38 0 -53.5 19.5t-14.5 41.5h-3q-51 -61 -120 -61zM281 137q47 0 82 41.5t35 90.5q0 60 -56 60q-46 0 -81.5 -39.5t-35.5 -89.5q0 -63 56 -63z" />
<glyph horiz-adv-x="478" d="M186 -10q-75 0 -121 33t-46 95q0 52 33 87t89 52q-62 30 -62 96q0 63 54 103.5t145 40.5q71 0 150 -24l-19 -107h-72l10 61q-28 7 -69 7q-56 0 -87 -21t-31 -61q0 -71 96 -71h200l-10 -59h-48l-14 -79q-12 -68 -62.5 -110.5t-135.5 -42.5zM188 54q51 0 81.5 24.5 t37.5 64.5l14 79h-78q-63 0 -102 -26t-39 -73q0 -69 86 -69z" />
<glyph horiz-adv-x="504" d="M194 -58q24 0 36.5 -14t12.5 -37q0 -71 -105 -145l-30 27q61 57 61 103q0 29 -27 43l2 6q26 17 50 17zM85 0l11 65h81l63 357h-111l-14 -82h-76l26 147h457l-26 -147h-76l14 82h-110l-63 -357h80l-11 -65h-245z" />
<glyph horiz-adv-x="1056" d="M104 0l13 71h96l82 467h-146l-17 -101h-80l30 172h580l33 98h66l-60 -343q90 75 166 75q58 0 88.5 -39t18.5 -106l-34 -192q-9 -46 34 -46q20 0 51 11l-11 -66q-35 -11 -70 -11q-57 0 -77 32.5t-11 84.5l32 182q16 81 -48 81q-62 0 -153 -82l-51 -288h-86l94 538h-260 l-83 -467h97l-13 -71h-281z" />
<glyph horiz-adv-x="769" d="M221 -11q-92 0 -144 50.5t-52 143.5q0 106 64.5 180t176.5 75q5 83 58.5 119.5t135.5 36.5h215l-31 -166h124l-12 -68h-123l-44 -246q-10 -58 52 -58q26 0 86 21l-11 -65q-50 -23 -103 -23q-59 0 -89.5 33.5t-19.5 96.5l42 241h-73l12 68h73l18 106h-122q-53 0 -85 -20.5 t-35 -80.5q36 -7 67 -19l-13 -65q-54 24 -108 24q-79 0 -123 -54t-44 -131q0 -63 32 -98t95 -35q58 0 114 22l-12 -69q-61 -19 -121 -19z" />
</font>
</defs>
</svg>
